<?xml version="1.0" standalone="no"?>
<!DOCTYPE svg PUBLIC "-//W3C//DTD SVG 1.1//EN" "http://www.w3.org/Graphics/SVG/1.1/DTD/svg11.dtd" >
<svg xmlns="http://www.w3.org/2000/svg" xmlns:xlink="http://www.w3.org/1999/xlink" version="1.1">
<metadata>
Created by FontForge 20170731 at Thu Jan 28 23:48:13 2010
 By Aleksey,,,
(c) 2008 Microsoft Corporation. All Rights Reserved.
</metadata>
<defs>
<font id="Candara-BoldItalic" horiz-adv-x="1033" >
  <font-face 
    font-family="Candara"
    font-weight="700"
    font-style="italic"
    font-stretch="normal"
    units-per-em="2048"
    panose-1="2 14 7 2 3 3 3 9 2 4"
    ascent="1484"
    descent="-564"
    x-height="950"
    cap-height="1302"
    bbox="-919 -567 2248 1950"
    underline-thickness="20"
    underline-position="-163"
    slope="-6"
    unicode-range="U+0009-FB04"
  />
<missing-glyph horiz-adv-x="932" 
d="M932 1308v-1308h-932v1308h932zM841 91v1126h-750v-1126h750zM409 426l-2 31q0 124 38.5 175t68.5 79q57 58 73.5 88t16.5 63q0 66 -41.5 111.5t-96.5 45.5q-58 0 -98.5 -41t-51.5 -131l-90 14q12 130 80.5 190t167.5 60q94 0 159 -66.5t65 -173.5q0 -57 -22.5 -103
t-91.5 -112q-68 -61 -79.5 -99.5t-11.5 -130.5h-84zM389 272q0 28 19 47t46 19q28 0 47 -19t19 -47q0 -27 -19 -45.5t-47 -18.5q-27 0 -46 18.5t-19 45.5z" />
    <glyph glyph-name="uniFB00" unicode="ff" horiz-adv-x="1234" 
d="M1326 1422l-42 -172q-53 5 -110 5q-68 0 -100 -64q-34 -68 -54 -258q85 0 234 8l-28 -199q-145 6 -225 6q-22 -320 -64.5 -733.5t-333.5 -471.5l-54 141q78 60 115.5 179t65 377t48.5 508h-330q-22 -320 -64.5 -733.5t-333.5 -471.5l-54 141q78 60 115.5 179t65 377
t48.5 508q-56 0 -166 -6l29 198q99 -7 157 -7q31 284 126.5 383.5t247.5 99.5q178 0 341 -59q85 79 212 79q96 0 154 -14zM858 1201q-88 44 -217 44q-93 0 -125 -64q-34 -68 -49 -248h331q17 159 60 268z" />
    <glyph glyph-name="uniFB01" unicode="fi" horiz-adv-x="1139" 
d="M1118 1338l-95 -198q-182 115 -362 115q-108 0 -140 -64q-34 -68 -54 -258q264 0 608 38q-3 -28 -24 -181q-27 -204 -39 -315q-22 -208 -37 -475l-255 -10q20 130 63 485q15 144 27 289q-45 -16 -362 -16q-22 -320 -64.5 -733.5t-333.5 -471.5l-54 141q78 60 115.5 179
t65 377t48.5 508q-56 0 -166 -6l29 198q99 -7 157 -7q30 288 133.5 395.5t280.5 107.5q272 0 459 -98z" />
    <glyph glyph-name="uniFB02" unicode="fl" horiz-adv-x="1147" 
d="M1123 1422q0 -51 -30 -262.5t-52 -416.5q-49 -463 -63 -740l-259 -15q0 17 32.5 257.5t59.5 497.5q29 281 38 502q-113 20 -208 20q-88 0 -120 -64q-34 -68 -54 -268q85 0 234 8l-28 -199q-145 6 -225 6q-22 -320 -59 -733.5t-339 -471.5l-54 141q78 60 115.5 179t65 377
t48.5 508q-56 0 -166 -6l29 198q99 -7 157 -7q53 503 374 503q122 0 233 -30z" />
    <glyph glyph-name="uniFB03" unicode="ffi" horiz-adv-x="1692" 
d="M858 1201q-88 44 -217 44q-93 0 -125 -64q-34 -68 -49 -248h331q17 159 60 268zM1671 1338l-95 -198q-182 115 -362 115q-108 0 -140 -64q-34 -68 -54 -258q264 0 608 38q-3 -28 -24 -181q-27 -204 -39 -315q-22 -208 -37 -475l-255 -10q20 130 63 485q15 144 27 289
q-45 -16 -362 -16q-22 -320 -64.5 -733.5t-333.5 -471.5l-54 141q78 60 115.5 179t65 377t48.5 508h-330q-22 -320 -64.5 -733.5t-333.5 -471.5l-54 141q78 60 115.5 179t65 377t48.5 508q-56 0 -166 -6l29 198q99 -7 157 -7q31 284 126.5 383.5t247.5 99.5q178 0 341 -59
q85 79 252 79q272 0 459 -98z" />
    <glyph glyph-name="uniFB04" unicode="ffl" horiz-adv-x="1700" 
d="M1676 1422q0 -51 -30 -262.5t-52 -416.5q-49 -463 -63 -740l-259 -15q0 17 32.5 257.5t59.5 497.5q29 281 38 502q-113 20 -208 20q-88 0 -120 -64q-34 -68 -54 -268q85 0 234 8l-28 -199q-145 6 -225 6q-22 -320 -64.5 -733.5t-333.5 -471.5l-54 141q78 60 115.5 179
t65 377t48.5 508h-330q-22 -320 -64.5 -733.5t-333.5 -471.5l-54 141q78 60 115.5 179t65 377t48.5 508q-56 0 -166 -6l29 198q99 -7 157 -7q31 284 126.5 383.5t247.5 99.5q178 0 341 -59q85 79 212 79q122 0 233 -30zM858 1201q-88 44 -217 44q-93 0 -125 -64
q-34 -68 -49 -248h331q17 159 60 268z" />
    <glyph glyph-name="f_b.liga" unicode="fb" horiz-adv-x="1765" 
d="M1695 595q0 -259 -134 -436q-143 -188 -371 -188q-144 0 -212 68h-13l-22 -39l-224 -10q0 15 28 223q37 273 64 530q29 281 38 502q-113 20 -208 20q-88 0 -120 -64q-34 -68 -54 -268q85 0 234 8l-28 -199q-145 6 -225 6q-22 -320 -64.5 -733.5t-333.5 -471.5l-54 141
q78 60 115.5 179t65 377t48.5 508q-56 0 -166 -6l29 198q99 -7 157 -7q53 503 374 503q122 0 233 -30l271 16q0 -42 -34.5 -299.5t-52.5 -349.5h12q112 209 340 209q148 0 230 -108q77 -103 77 -279zM1442 543q0 252 -162 252q-97 0 -184 -133q-82 -126 -98 -276l-20 -186
q74 -45 162 -45q152 0 233 125q69 105 69 263z" />
    <glyph glyph-name="f_f_b.liga" unicode="ffb" horiz-adv-x="2318" 
d="M2248 595q0 -259 -134 -436q-143 -188 -371 -188q-144 0 -212 68h-13l-22 -39l-224 -10q0 15 28 223q37 273 64 530q29 281 38 502q-113 20 -208 20q-88 0 -120 -64q-34 -68 -54 -268q85 0 234 8l-28 -199q-145 6 -225 6q-22 -320 -64.5 -733.5t-333.5 -471.5l-54 141
q78 60 115.5 179t65 377t48.5 508h-330q-22 -320 -64.5 -733.5t-333.5 -471.5l-54 141q78 60 115.5 179t65 377t48.5 508q-56 0 -166 -6l29 198q99 -7 157 -7q31 284 126.5 383.5t247.5 99.5q178 0 341 -59q85 79 212 79q122 0 233 -30l271 16q0 -42 -34.5 -299.5
t-52.5 -349.5h12q112 209 340 209q148 0 230 -108q77 -103 77 -279zM1995 543q0 252 -162 252q-97 0 -184 -133q-82 -126 -98 -276l-20 -186q74 -45 162 -45q152 0 233 125q69 105 69 263zM858 1201q-88 44 -217 44q-93 0 -125 -64q-34 -68 -49 -248h331q17 159 60 268z" />
    <glyph glyph-name="f_h.liga" unicode="fh" horiz-adv-x="1747" 
d="M1651 684q0 -88 -27 -330t-27 -354l-258 -10q0 48 33 285.5t33 335.5q0 104 -30 144t-100 40q-87 0 -167 -116q-84 -122 -101 -293q-22 -215 -33 -386l-253 -10q0 15 26 223q37 273 64 530q29 281 38 502q-113 20 -208 20q-88 0 -120 -64q-34 -68 -54 -268q85 0 234 8
l-28 -199q-145 6 -225 6q-22 -320 -64.5 -733.5t-333.5 -471.5l-54 141q78 60 115.5 179t65 377t48.5 508q-56 0 -166 -6l29 198q99 -7 157 -7q53 503 374 503q122 0 233 -30l271 16q0 -44 -37.5 -305.5t-53.5 -343.5h14q117 209 346 209q259 0 259 -298z" />
    <glyph glyph-name="f_f_h.liga" unicode="ffh" horiz-adv-x="2300" 
d="M2204 684q0 -88 -27 -330t-27 -354l-258 -10q0 48 33 285.5t33 335.5q0 104 -30 144t-100 40q-87 0 -167 -116q-84 -122 -101 -293q-22 -215 -33 -386l-255 -10q0 15 28 223q37 273 64 530q29 281 38 502q-113 20 -208 20q-88 0 -120 -64q-34 -68 -54 -268q85 0 234 8
l-28 -199q-145 6 -225 6q-22 -320 -64.5 -733.5t-333.5 -471.5l-54 141q78 60 115.5 179t65 377t48.5 508h-330q-22 -320 -64.5 -733.5t-333.5 -471.5l-54 141q78 60 115.5 179t65 377t48.5 508q-56 0 -166 -6l29 198q99 -7 157 -7q31 284 126.5 383.5t247.5 99.5
q178 0 341 -59q85 79 212 79q122 0 233 -30l271 16q0 -44 -37.5 -305.5t-53.5 -343.5h14q117 209 346 209q259 0 259 -298zM858 1201q-88 44 -217 44q-93 0 -125 -64q-34 -68 -49 -248h331q17 159 60 268z" />
    <glyph glyph-name="f_j.liga" unicode="fj" horiz-adv-x="1139" 
d="M1118 1338l-95 -198q-182 115 -362 115q-108 0 -140 -64q-34 -68 -54 -258q264 0 608 38q0 -25 -23 -200q-31 -232 -49 -402q-8 -78 -18 -214.5t-15 -182.5q-39 -369 -327 -428l-53 140q73 57 104 152q40 125 77 481q35 333 40 448q-42 -17 -363 -17
q-22 -320 -64.5 -733.5t-333.5 -471.5l-54 141q78 60 115.5 179t65 377t48.5 508q-56 0 -166 -6l29 198q99 -7 157 -7q30 288 133.5 395.5t280.5 107.5q272 0 459 -98z" />
    <glyph glyph-name="f_f_j.liga" unicode="ffj" horiz-adv-x="1692" 
d="M858 1201q-88 44 -217 44q-93 0 -125 -64q-34 -68 -49 -248h331q17 159 60 268zM1671 1338l-95 -198q-182 115 -362 115q-108 0 -140 -64q-34 -68 -54 -258q264 0 608 38q0 -25 -23 -200q-31 -232 -49 -402q-8 -78 -18 -214.5t-15 -182.5q-39 -369 -327 -428l-53 140
q73 57 104 152q40 125 77 481q35 333 40 448q-42 -17 -363 -17q-22 -320 -64.5 -733.5t-333.5 -471.5l-54 141q78 60 115.5 179t65 377t48.5 508h-330q-22 -320 -64.5 -733.5t-333.5 -471.5l-54 141q78 60 115.5 179t65 377t48.5 508q-56 0 -166 -6l29 198q99 -7 157 -7
q31 284 126.5 383.5t247.5 99.5q178 0 341 -59q85 79 252 79q272 0 459 -98z" />
    <glyph glyph-name="f_k.liga" unicode="fk" horiz-adv-x="1669" 
d="M1662 949q0 -36 -120 -177.5t-204 -205.5l-1 -13q105 -121 190 -319q72 -169 72 -234l-273 -10q0 46 -45 166q-54 142 -120 231q-51 -55 -89 -114q-90 -140 -99 -273l-254 -10q0 15 28 223q37 273 64 530q29 281 38 502q-113 20 -208 20q-88 0 -120 -64q-34 -68 -54 -268
q85 0 234 8l-28 -199q-145 6 -225 6q-22 -320 -64.5 -733.5t-333.5 -471.5l-54 141q78 60 115.5 179t65 377t48.5 508q-56 0 -166 -6l29 198q99 -7 157 -7q53 503 374 503q122 0 233 -30l271 16q0 -43 -24 -210q-35 -244 -60 -469l-38 -332l15 -1q34 76 210 301
q155 198 155 249z" />
    <glyph glyph-name="f_f_k.liga" unicode="ffk" horiz-adv-x="2222" 
d="M2215 949q0 -36 -120 -177.5t-204 -205.5l-1 -13q105 -121 190 -319q72 -169 72 -234l-273 -10q0 46 -45 166q-54 142 -120 231q-51 -55 -89 -114q-90 -140 -99 -273l-252 -10q0 15 26 223q37 273 64 530q29 281 38 502q-113 20 -208 20q-88 0 -120 -64q-34 -68 -54 -268
q85 0 234 8l-28 -199q-145 6 -225 6q-22 -320 -64.5 -733.5t-333.5 -471.5l-54 141q78 60 115.5 179t65 377t48.5 508h-330q-22 -320 -64.5 -733.5t-333.5 -471.5l-54 141q78 60 115.5 179t65 377t48.5 508q-56 0 -166 -6l29 198q99 -7 157 -7q31 284 126.5 383.5
t247.5 99.5q178 0 341 -59q85 79 212 79q122 0 233 -30l271 16q0 -43 -24 -210q-35 -244 -60 -469l-38 -332l15 -1q34 76 210 301q155 198 155 249zM858 1201q-88 44 -217 44q-93 0 -125 -64q-34 -68 -49 -248h331q17 159 60 268z" />
    <glyph glyph-name=".notdef" horiz-adv-x="932" 
d="M932 1308v-1308h-932v1308h932zM841 91v1126h-750v-1126h750zM409 426l-2 31q0 124 38.5 175t68.5 79q57 58 73.5 88t16.5 63q0 66 -41.5 111.5t-96.5 45.5q-58 0 -98.5 -41t-51.5 -131l-90 14q12 130 80.5 190t167.5 60q94 0 159 -66.5t65 -173.5q0 -57 -22.5 -103
t-91.5 -112q-68 -61 -79.5 -99.5t-11.5 -130.5h-84zM389 272q0 28 19 47t46 19q28 0 47 -19t19 -47q0 -27 -19 -45.5t-47 -18.5q-27 0 -46 18.5t-19 45.5z" />
    <glyph glyph-name="glyph1" horiz-adv-x="433" 
 />
    <glyph glyph-name="glyph1" horiz-adv-x="433" 
 />
    <glyph glyph-name="glyph2" horiz-adv-x="444" 
 />
    <glyph glyph-name="uni0009" unicode="&#x9;" horiz-adv-x="433" 
 />
    <glyph glyph-name="uni0009" unicode="&#xa0;" horiz-adv-x="433" 
 />
    <glyph glyph-name="uni0009" unicode=" " horiz-adv-x="433" 
 />
    <glyph glyph-name="uni0009" unicode="&#xd;" horiz-adv-x="433" 
 />
    <glyph glyph-name="exclam" unicode="!" horiz-adv-x="516" 
d="M466 1185q0 -175 -179 -648h-97q-20 307 -20 497q0 304 174 304q122 0 122 -153zM363 195q0 -85 -58 -145t-143 -60q-65 0 -99.5 41t-34.5 101q0 85 57.5 143t143.5 58q134 0 134 -138z" />
    <glyph glyph-name="quotedbl" unicode="&#x22;" horiz-adv-x="927" 
d="M837 1303q0 -112 -69 -306q-56 -159 -128 -295h-80q-20 196 -20 357q0 176 16 233q34 129 160 129q121 0 121 -118zM450 1303q0 -112 -69 -306q-56 -159 -128 -295h-80q-20 196 -20 357q0 176 16 233q34 129 160 129q121 0 121 -118z" />
    <glyph glyph-name="numbersign" unicode="#" 
d="M1001 916l-19 -180h-201q-15 -32 -31 -66q-31 -68 -59 -128h271l-19 -180h-335q-140 -305 -159 -362h-143q19 37 172 362h-185q-139 -305 -159 -362h-141q17 37 171 362h-137l19 180h203q19 39 41 84q27 58 51 110h-275l19 180h339q144 317 159 392h141
q-12 -41 -174 -392h189q145 319 159 392h141q-12 -39 -175 -392h137zM655 736h-189q-14 -32 -31 -68q-31 -67 -58 -126h187q19 41 40 86q27 57 51 108z" />
    <glyph glyph-name="dollar" unicode="$" horiz-adv-x="909" 
d="M833 1001l-53 -194q-103 45 -227 45q-149 0 -149 -97q0 -61 139 -120q123 -52 179 -103q81 -74 81 -182q0 -273 -311 -320q-20 -185 -24 -293h-135q8 53 35 283q-143 0 -287 33l52 193q115 -43 233 -43q201 0 202 100q1 66 -137 130q-123 57 -177 106q-82 73 -82 174
q0 128 85.5 210.5t218.5 101.5q25 236 25 303h135q-8 -41 -38 -296q157 -2 235 -31zM0 1055z" />
    <glyph glyph-name="percent" unicode="%" 
d="M588 1096q0 -114 -78 -192t-192 -78q-106 0 -167 65q-54 59 -54 148q0 113 78.5 191t192.5 78q107 0 166 -65q54 -58 54 -147zM912 259q0 -113 -78.5 -191t-192.5 -78q-106 0 -166 65q-54 58 -54 147q0 113 78.5 191t192.5 78q107 0 166 -65q54 -58 54 -147zM1005 1292
q-10 -89 -423.5 -633t-425.5 -659l-140 10q11 97 424.5 643t424.5 649zM776 247q0 117 -92 117q-54 0 -89 -53q-31 -46 -31 -103q0 -113 92 -113q54 0 89 50q31 45 31 102zM452 1085q0 116 -92 116q-54 0 -89 -53q-31 -47 -31 -104q0 -112 92 -112q55 0 89 51q31 45 31 102z
" />
    <glyph glyph-name="ampersand" unicode="&#x26;" horiz-adv-x="1361" 
d="M1248 0h-282q0 34 -35 113.5t-61 111.5h-15q-208 -254 -474 -254q-160 0 -253.5 93t-93.5 237q0 293 316 428l1 14q-141 123 -141 260q0 150 118.5 235.5t275.5 85.5q127 0 218 -68.5t91 -187.5q0 -190 -216 -293l-2 -15q81 -49 220 -211h15q43 63 59 213h240
q-4 -41 -76 -155t-128 -167l-1 -14q50 -54 137 -212t87 -214zM794 353q-49 68 -133.5 163.5t-186.5 148.5q-88 -40 -140 -125.5t-52 -184.5q0 -90 52.5 -144.5t147.5 -54.5q146 0 310 182zM713 1031q0 131 -124 131q-65 0 -111 -41t-46 -104q0 -110 146 -183q135 63 135 197
z" />
    <glyph glyph-name="quotesingle" unicode="'" horiz-adv-x="503" 
d="M450 1303q0 -112 -69 -306q-56 -159 -128 -295h-80q-20 196 -20 357q0 176 16 233q34 129 160 129q121 0 121 -118z" />
    <glyph glyph-name="parenleft" unicode="(" horiz-adv-x="723" 
d="M732 1385q-127 -100 -217 -242q-217 -341 -217 -832q0 -451 261 -660l-83 -137q-112 59 -192 157q-192 236 -192 629q0 359 147 702q172 402 458 519z" />
    <glyph glyph-name="parenright" unicode=")" horiz-adv-x="723" 
d="M605 736q0 -359 -147 -702q-172 -403 -459 -520l-35 137q127 106 217 250q217 346 217 824q0 451 -261 660l84 136q112 -59 192 -157q192 -235 192 -628z" />
    <glyph glyph-name="asterisk" unicode="*" 
d="M923 1064q0 -63 -54.5 -79.5t-160.5 -16.5q-40 0 -106 5l-12 -26q164 -166 164 -224q0 -41 -48 -82.5t-89 -41.5q-78 0 -113 292h-27q-128 -263 -196 -263q-39 0 -77.5 34.5t-38.5 74.5q0 68 243 217l-4 29q-93 12 -246 46q-33 12 -33 66q0 48 28 93t68 45q55 0 232 -156
l24 16q-17 171 -17 243q0 98 120 98q87 0 87 -66q0 -61 -97 -281l18 -20q204 125 261 125q34 0 54 -42t20 -86z" />
    <glyph glyph-name="plus" unicode="+" 
d="M914 589l-18 -180h-304l-35 -340h-171l35 340h-302l18 180h304l35 340h171l-35 -340h302z" />
    <glyph glyph-name="comma" unicode="," horiz-adv-x="516" 
d="M399 178q0 -251 -359 -568l-81 67q146 151 164 327q-57 39 -57 123q0 87 56.5 146.5t134.5 59.5q75 0 108.5 -46t33.5 -109zM0 -10z" />
    <glyph glyph-name="hyphen" unicode="-" horiz-adv-x="516" 
d="M478 605l-31 -180l-408 -15l28 180z" />
    <glyph glyph-name="hyphen" unicode="&#x2010;" horiz-adv-x="516" 
d="M478 605l-31 -180l-408 -15l28 180z" />
    <glyph glyph-name="hyphen" unicode="&#xad;" horiz-adv-x="516" 
d="M478 605l-31 -180l-408 -15l28 180z" />
    <glyph glyph-name="period" unicode="." horiz-adv-x="516" 
d="M388 195q0 -85 -57 -145t-143 -60q-65 0 -99.5 41t-34.5 101q0 85 57.5 143t142.5 58q134 0 134 -138z" />
    <glyph glyph-name="slash" unicode="/" horiz-adv-x="547" 
d="M580 1455q-7 -69 -256 -828.5t-266 -928.5h-171q6 65 255 816.5t268 940.5h170z" />
    <glyph glyph-name="zero" unicode="0" horiz-adv-x="1126" 
d="M1006 613q0 -154 -34 -275.5t-99 -205.5t-160 -128t-217 -44q-187 0 -281.5 112t-94.5 323q0 86 12.5 170t39 160t68 140.5t99 111.5t131.5 73.5t166 26.5t161.5 -33t116 -93.5t69.5 -146.5t23 -191zM766 585q0 48 -6 100.5t-24 97t-52 73.5t-90 29q-63 0 -107 -42
t-71.5 -108.5t-40.5 -150t-13 -167.5q0 -135 42 -199.5t132 -64.5q63 0 107 37.5t71.5 98.5t39.5 138.5t12 157.5z" />
    <glyph glyph-name="one" unicode="1" horiz-adv-x="744" 
d="M604 1055q-43 -323 -72 -606q-23 -212 -37 -449h-260q32 224 56 449q25 243 26 307l-188 -64l-39 102l394 261h120z" />
    <glyph glyph-name="two" unicode="2" horiz-adv-x="924" 
d="M804 214l-41 -214h-723l40 201q111 63 187 123.5t135 121.5t89.5 124t30.5 131q0 169 -240 169q-57 0 -139 -14l38 186q82 22 226 22q181 0 273 -79t92 -223q0 -68 -20.5 -128.5t-55.5 -114t-82 -99t-100.5 -84t-110.5 -69.5t-91 -55l-1 -13q210 0 493 15z" />
    <glyph glyph-name="three" unicode="3" horiz-adv-x="956" 
d="M836 172q0 -262 -249.5 -407t-568.5 -164l-18 166q215 19 396.5 115.5t181.5 256.5q0 208 -396 208l37 164q129 0 235 47q138 61 138 175q0 139 -217 139q-106 0 -188 -18l36 186q76 24 283 24q165 0 247.5 -70.5t82.5 -184.5q0 -106 -78 -189q-69 -73 -180 -110l-2 -16
q121 -21 190.5 -110.5t69.5 -211.5z" />
    <glyph glyph-name="four" unicode="4" horiz-adv-x="1045" 
d="M955 348l-43 -220h-149q-20 -187 -37 -458h-255q17 119 57 458h-480l-8 192q1 18 281.5 363.5t285.5 371.5h264q-22 -152 -88 -717q85 0 172 10zM626 835h-15q-2 -21 -186.5 -250.5t-186.5 -243.5l-2 -13q119 0 320 5q23 136 70 502z" />
    <glyph glyph-name="five" unicode="5" horiz-adv-x="963" 
d="M843 1055l-31 -220q-178 20 -445 20q-17 -61 -49 -273q513 0 513 -366q0 -264 -231 -415.5t-539 -166.5l-21 167q214 20 370 109.5t156 254.5q0 131 -109.5 183.5t-357.5 52.5q31 129 56 246q58 282 71 408h617z" />
    <glyph glyph-name="six" unicode="6" horiz-adv-x="1079" 
d="M959 452q0 -204 -136.5 -348t-343.5 -144q-159 0 -269 114.5t-110 338.5q0 396 199 654t584 277l11 -165q-420 -47 -526 -464h14q89 100 252 100q157 0 241 -107t84 -256zM726 421q0 96 -52 162t-151 66q-110 0 -176 -71q-7 -67 -7 -136q0 -302 166 -302q99 0 159.5 88.5
t60.5 192.5z" />
    <glyph glyph-name="seven" unicode="7" horiz-adv-x="957" 
d="M927 1055q-20 -191 -168.5 -464t-295 -532.5t-160.5 -388.5l-253 21q14 131 314 589t311 566q-196 0 -563 -19l30 228h785z" />
    <glyph glyph-name="eight" unicode="8" horiz-adv-x="1088" 
d="M968 1091q0 -105 -66 -192q-63 -83 -165 -125l-1 -16q223 -128 223 -357q0 -194 -142.5 -309.5t-343.5 -115.5q-176 0 -284.5 98.5t-108.5 249.5q0 139 82.5 243.5t218.5 159.5l1 16q-158 103 -158 286q0 159 123 248.5t291 89.5q147 0 238.5 -79t91.5 -197zM719 379
q0 178 -207 281q-76 -30 -139 -106.5t-63 -204.5q0 -90 51.5 -142.5t135.5 -52.5q95 0 158.5 65t63.5 160zM762 1065q0 68 -42 108t-109 40q-76 0 -125.5 -45t-49.5 -119q0 -137 172 -228q67 35 110.5 102t43.5 142z" />
    <glyph glyph-name="nine" unicode="9" horiz-adv-x="1073" 
d="M953 583q0 -405 -205.5 -688.5t-596.5 -300.5l-20 167q241 14 376 170t178 386h-10q-97 -105 -253 -105q-155 0 -238.5 109t-83.5 260q0 203 134.5 343t340.5 140q157 0 267.5 -125t110.5 -356zM714 577q0 155 -49.5 230.5t-124.5 75.5q-98 0 -153.5 -87.5t-55.5 -191.5
q0 -97 49 -163.5t144 -66.5q110 0 183 81q7 67 7 122z" />
    <glyph glyph-name="colon" unicode=":" horiz-adv-x="516" 
d="M388 195q0 -85 -57 -145t-143 -60q-65 0 -99.5 41t-34.5 101q0 85 57.5 143t142.5 58q134 0 134 -138zM451 819q0 -85 -57 -145t-143 -60q-65 0 -99.5 41t-34.5 101q0 85 57.5 143t142.5 58q134 0 134 -138z" />
    <glyph glyph-name="semicolon" unicode=";" horiz-adv-x="516" 
d="M399 178q0 -251 -359 -568l-81 67q146 151 164 327q-57 39 -57 123q0 87 56.5 146.5t134.5 59.5q75 0 108.5 -46t33.5 -109zM0 -10zM448 818q0 -85 -57 -145t-143 -60q-65 0 -99.5 41t-34.5 101q0 85 57.5 143t142.5 58q134 0 134 -138z" />
    <glyph glyph-name="less" unicode="&#x3c;" 
d="M924 803l-585 -290l-3 -23l525 -287l-98 -188l-655 418l15 139l742 418z" />
    <glyph glyph-name="equal" unicode="=" 
d="M937 799l-19 -180h-777l19 180h777zM893 380l-20 -180h-777l20 180h777z" />
    <glyph glyph-name="greater" unicode="&#x3e;" 
d="M924 572l-15 -139l-742 -418l-59 188l585 288l2 23l-523 289l97 187z" />
    <glyph glyph-name="question" unicode="?" horiz-adv-x="723" 
d="M686 1062q0 -125 -88 -223.5t-215 -150.5l-35 -151h-126l-16 213q229 74 229 225q0 160 -334 171l41 189q275 0 403 -59q141 -65 141 -214zM397 195q0 -85 -57.5 -145t-143.5 -60q-65 0 -100 41t-35 101q0 85 58 143t143 58q135 0 135 -138z" />
    <glyph glyph-name="at" unicode="@" horiz-adv-x="2014" 
d="M1883 702q0 -288 -139 -509.5t-386 -221.5q-116 0 -176.5 52.5t-60.5 134.5q0 -1 3 26h-13q-125 -213 -307 -213q-113 0 -171.5 94t-58.5 236q0 234 140.5 440t365.5 206q121 0 167 -74h13l20 46l189 21q-59 -223 -131 -575q-4 -38 -4 -75q0 -142 111 -142
q103 0 165 154.5t62 367.5q0 265 -143 440t-436 175q-331 0 -533 -288.5t-202 -632.5q0 -280 145 -468.5t424 -188.5q160 0 300 52l2 -195q-140 -39 -325 -39q-372 0 -567.5 243.5t-195.5 597.5q0 437 269 773t699 336q377 0 575.5 -222t198.5 -551zM1209 727
q-47 50 -124 50q-136 0 -218.5 -147.5t-82.5 -295.5q0 -182 109 -182q106 0 198.5 167.5t117.5 407.5z" />
    <glyph glyph-name="A" unicode="A" horiz-adv-x="1216" 
d="M1145 0h-304q0 109 -48 374h-438q-36 -85 -62 -154q-64 -164 -67 -220h-286q3 37 289 640.5t292 661.5h358q0 -113 133 -647t133 -655zM765 565q-104 513 -104 558h-15q-4 -35 -227 -558h346z" />
    <glyph glyph-name="B" unicode="B" horiz-adv-x="1169" 
d="M1089 420q0 -426 -662 -426q-107 0 -343 6q20 137 83 681q38 364 43 621h164q43 0 152 3t167 3q180 0 286 -67.5t106 -199.5q0 -112 -69.5 -200t-178.5 -115l-1 -15q100 -17 176.5 -90t76.5 -201zM832 406q0 174 -313 174q-65 0 -123 -5q-22 -209 -33 -385q42 -8 106 -8
q195 0 279 54t84 170zM821 968q0 152 -196 152q-98 0 -182 -15q0 -41 -28 -347q45 -2 85 -2q321 0 321 212z" />
    <glyph glyph-name="C" unicode="C" horiz-adv-x="1049" 
d="M1027 1292l-57 -231q-108 38 -211 38q-201 0 -315.5 -148t-114.5 -353q0 -170 96.5 -287t280.5 -117q118 0 263 43l-41 -230q-159 -34 -270 -34q-302 0 -452.5 174.5t-150.5 419.5q0 318 216 535.5t539 217.5q116 0 217 -28z" />
    <glyph glyph-name="D" unicode="D" horiz-adv-x="1261" 
d="M1206 750q0 -314 -205 -538t-522 -224q-150 0 -394 12q20 137 83 681q38 364 43 621h176q41 0 121.5 3t124.5 3q286 0 429.5 -158.5t143.5 -399.5zM943 719q0 171 -94.5 280t-286.5 109q-48 0 -117 -9q-6 -92 -37 -418q-25 -239 -42 -474q61 -13 127 -13
q211 0 330.5 155.5t119.5 369.5z" />
    <glyph glyph-name="E" unicode="E" horiz-adv-x="1031" 
d="M989 1302l-31 -219q-281 16 -513 16q-7 -107 -26 -328q198 0 425 11l-23 -209q-219 10 -422 10q-21 -203 -34 -380q260 0 558 17l-32 -220h-808q21 137 84 681q38 364 43 621h779z" />
    <glyph glyph-name="F" unicode="F" horiz-adv-x="981" 
d="M1005 1302l-30 -219q-292 16 -532 16q-6 -107 -30 -379q184 0 418 10l-22 -207q-235 9 -415 9q-30 -283 -43 -532h-267q21 137 84 681q38 364 42 621h795z" />
    <glyph glyph-name="G" unicode="G" horiz-adv-x="1205" 
d="M1105 648q-11 -71 -40 -310q-12 -113 -15 -304q-241 -61 -393 -61q-298 0 -450 171t-152 418q0 324 222 541t550 217q153 0 267 -29l-56 -236q-144 41 -263 41q-208 0 -328.5 -147t-120.5 -362q0 -173 95.5 -292.5t273.5 -119.5q54 0 128 12q-1 18 -1 68q0 47 7.5 177
t7.5 216h268z" />
    <glyph glyph-name="H" unicode="H" horiz-adv-x="1299" 
d="M1217 1302q-19 -113 -79 -621q-40 -383 -49 -681h-278q21 156 70 574h-478q-23 -218 -41 -574h-279q22 151 84 681q37 355 43 621h279q-20 -131 -67 -520h484q24 227 31 520h280z" />
    <glyph glyph-name="I" unicode="I" horiz-adv-x="574" 
d="M491 1302q-18 -112 -78 -621q-37 -348 -49 -681h-280q22 141 86 681q38 365 41 621h280z" />
    <glyph glyph-name="J" unicode="J" horiz-adv-x="817" 
d="M758 1302q-20 -132 -90 -736q-35 -333 -179 -473q-123 -120 -355 -120q-84 0 -164 21l39 215q60 -30 124 -30q125 0 187 57q90 82 114 310q48 457 55 756h269z" />
    <glyph glyph-name="K" unicode="K" horiz-adv-x="1180" 
d="M1158 1302q0 -32 -202.5 -252.5t-293.5 -283.5l-2 -15q86 -47 260.5 -367t174.5 -384h-301q0 59 -138.5 332.5t-208.5 273.5h-42q-24 -228 -44 -606h-277q20 137 83 681q38 364 43 621h279q-19 -129 -65 -520h21q42 0 229 243.5t187 276.5h297z" />
    <glyph glyph-name="L" unicode="L" horiz-adv-x="961" 
d="M905 218l-32 -218h-789q19 120 84 681q40 376 43 621h277q-17 -98 -78 -621q-32 -301 -58 -478q237 0 553 15z" />
    <glyph glyph-name="M" unicode="M" horiz-adv-x="1658" 
d="M1533 1302q-33 -285 -33 -712q0 -281 15 -590h-285q0 415 60 1082h-16q-15 -63 -64 -204t-196 -476.5t-154 -401.5h-217q0 79 -75.5 416t-91 437t-27.5 229h-15q-13 -115 -82 -574t-69 -508h-258q0 27 129 619.5t141 682.5h364q0 -137 73.5 -495.5t73.5 -487.5h15
q10 97 173.5 495t172.5 488h366z" />
    <glyph glyph-name="N" unicode="N" horiz-adv-x="1323" 
d="M1239 1302q-18 -110 -78 -621q-40 -376 -59 -681h-234q0 48 -225 460q-234 429 -259 569h-15q11 -76 11 -153q0 -117 -18 -285q-26 -246 -45 -591h-233q21 141 84 681q38 365 42 621h292q0 -66 202 -454q213 -408 236 -533h14q-12 58 -12 123q0 138 19 319q30 289 34 545
h244z" />
    <glyph glyph-name="O" unicode="O" horiz-adv-x="1333" 
d="M1278 741q0 -309 -198.5 -543t-499.5 -234q-228 0 -376.5 168t-148.5 423q0 312 200 544.5t499 232.5q228 0 376 -167.5t148 -423.5zM1013 722q0 179 -87.5 286t-219.5 107q-174 0 -279 -168t-105 -369q0 -179 87 -286.5t219 -107.5q173 0 279 170t106 368z" />
    <glyph glyph-name="P" unicode="P" horiz-adv-x="1133" 
d="M1090 978q0 -239 -175 -361.5t-467 -122.5q-37 0 -56 2q-20 -188 -31 -496h-277q20 129 84 681q38 360 43 621h174q35 0 136 3t174 3q164 0 279.5 -87t115.5 -243zM838 935q0 185 -249 185q-67 0 -141 -15q-5 -85 -37 -428q23 -2 55 -2q372 0 372 260z" />
    <glyph glyph-name="Q" unicode="Q" horiz-adv-x="1333" 
d="M1277 742q0 -215 -101.5 -401t-284.5 -291l-1 -16q149 -19 216.5 -122t88.5 -344l-279 -12q-27 256 -83 332t-254 76q-228 0 -376 168t-148 423q0 316 199.5 546.5t499.5 230.5q228 0 375.5 -167.5t147.5 -422.5zM1012 722q0 179 -87 286t-219 107q-172 0 -278.5 -168.5
t-106.5 -368.5q0 -179 87.5 -286.5t219.5 -107.5q172 0 278 168.5t106 369.5z" />
    <glyph glyph-name="R" unicode="R" horiz-adv-x="1194" 
d="M1095 0h-279q-71 344 -130.5 432t-189.5 88q-40 0 -103 -1q-29 -277 -36 -519h-273q20 137 83 681q38 364 44 621h173q29 0 120 3t168 3q177 0 291 -75t114 -223q0 -127 -80 -224.5t-207 -138.5l-1 -15q91 -27 157 -164t149 -468zM826 951q0 168 -223 168q-89 0 -156 -14
q-5 -88 -34 -404q52 -2 88 -2q325 0 325 252z" />
    <glyph glyph-name="S" unicode="S" horiz-adv-x="1035" 
d="M969 1290l-59 -222q-122 49 -271 49q-241 0 -241 -146q0 -57 52 -99q46 -38 179 -97q308 -137 308 -391q0 -420 -577 -420q-181 0 -333 46l71 223q147 -56 284 -56q130 0 192 20q110 35 110 136q0 66 -60 118q-54 47 -198 115q-276 131 -276 364q0 208 143 300.5
t367 92.5q186 0 309 -33z" />
    <glyph glyph-name="T" unicode="T" horiz-adv-x="1061" 
d="M1091 1302l-29 -215q-189 15 -356 15q-12 -91 -47 -421q-41 -387 -51 -681h-276q21 145 84 681q24 227 40 421q-134 0 -370 -16l31 216h974z" />
    <glyph glyph-name="U" unicode="U" horiz-adv-x="1300" 
d="M1231 1302q-18 -139 -78 -672q-70 -664 -586 -664q-221 0 -338 108t-117 400q0 64 8 147q33 315 54 681h279q-23 -157 -81 -652q-9 -86 -9 -165q0 -178 57.5 -246t173.5 -68q140 0 218 97.5t108 383.5q34 328 45 650h266z" />
    <glyph glyph-name="V" unicode="V" horiz-adv-x="1173" 
d="M1216 1302q0 -91 -291.5 -659.5t-299.5 -642.5h-261q0 154 -141 645t-141 657h295q0 -140 83.5 -523.5t83.5 -499.5h16q5 49 191 478t186 545h279z" />
    <glyph glyph-name="W" unicode="W" horiz-adv-x="1862" 
d="M1905 1302q0 -97 -265 -665.5t-272 -636.5h-252q0 112 -77.5 468.5t-83.5 493.5h-15q-28 -127 -182 -509t-161 -453h-257q0 146 -129 671.5t-129 630.5h298q0 -99 64 -495t64 -528h14q8 75 178.5 505.5t170.5 517.5h271q0 -106 67.5 -502.5t67.5 -520.5h15q6 62 169 481
t163 542h281z" />
    <glyph glyph-name="X" unicode="X" horiz-adv-x="1186" 
d="M1182 1302q0 -27 -190.5 -277.5t-240.5 -296.5l-1 -15q55 -67 198.5 -367t143.5 -346h-320q0 40 -88 260t-123 280h-16q-50 -63 -171 -282t-121 -258h-304q0 29 221 336t279 362l1 15q-43 59 -171.5 307t-128.5 282h306q0 -36 74 -219t102 -225h15q42 49 148.5 230.5
t106.5 213.5h280z" />
    <glyph glyph-name="Y" unicode="Y" horiz-adv-x="1065" 
d="M1117 1302q0 -42 -171.5 -284t-249.5 -362.5t-88 -217.5q-23 -220 -24 -438h-280q58 381 58 467q0 143 -148 474.5t-148 360.5h298q0 -63 85 -312t85 -337h15q7 68 152.5 324t145.5 325h270z" />
    <glyph glyph-name="Z" unicode="Z" horiz-adv-x="1023" 
d="M994 1302l-35 -207q-122 -155 -356 -492.5t-236 -384.5l-1 -15q200 0 535 23l-30 -226h-849l35 205q122 147 368.5 493.5t249.5 391.5l1 16q-227 0 -524 -23l29 219h813z" />
    <glyph glyph-name="bracketleft" unicode="[" horiz-adv-x="723" 
d="M739 1521l-32 -211q-172 6 -248 6l-96 -845q-15 -139 -73 -763q70 2 260 18l-32 -212l-446 11l112 946q21 204 97 1037z" />
    <glyph glyph-name="backslash" unicode="\" horiz-adv-x="503" 
d="M398 -302h-153q0 169 -77.5 928.5t-77.5 828.5h151q0 -189 78.5 -940t78.5 -817z" />
    <glyph glyph-name="bracketright" unicode="]" horiz-adv-x="723" 
d="M600 1510l-112 -946q-21 -203 -97 -1037l-458 -13l32 212q173 -6 249 -6l96 844q15 139 72 765q-70 -2 -260 -19l32 211z" />
    <glyph glyph-name="asciicircum" unicode="^" horiz-adv-x="1007" 
d="M950 682l-179 -83l-220 593h-22l-343 -593l-162 83l475 735h132z" />
    <glyph glyph-name="underscore" unicode="_" horiz-adv-x="1007" 
d="M968 -512h-1033v180h1033v-180z" />
    <glyph glyph-name="grave" unicode="`" horiz-adv-x="562" 
d="M489 1086h-174q0 16 -108.5 164t-110.5 160h255q0 -11 69 -159.5t69 -164.5z" />
    <glyph glyph-name="a" unicode="a" horiz-adv-x="1031" 
d="M966 995q-80 -542 -80 -749q0 -105 17 -236l-246 -28q-6 83 -6 193h-15q-111 -203 -330 -203q-126 0 -190 94.5t-64 258.5q0 236 165 425.5t513 198.5l44 31zM710 791q-209 -2 -307 -122t-98 -324q0 -185 116 -185q90 0 165.5 131t95.5 250.5t28 249.5z" />
    <glyph glyph-name="b" unicode="b" horiz-adv-x="1115" 
d="M1045 595q0 -259 -138.5 -441.5t-366.5 -182.5q-144 0 -212 68h-13l-22 -39l-224 -10q19 131 89 753q40 381 40 663l275 16q0 -42 -35.5 -299.5t-51.5 -349.5h12q112 209 340 209q148 0 227.5 -105.5t79.5 -281.5zM792 543q0 252 -162 252q-97 0 -181.5 -129.5
t-100.5 -279.5l-20 -186q74 -45 162 -45q152 0 227 115t75 273z" />
    <glyph glyph-name="c" unicode="c" horiz-adv-x="866" 
d="M840 960l-53 -203q-84 28 -192 28q-131 0 -205 -101.5t-74 -234.5q0 -279 212 -279q121 0 266 88l-32 -198q-122 -89 -296 -89q-206 0 -304.5 129.5t-98.5 320.5q0 231 158 394.5t414 163.5q117 0 205 -19z" />
    <glyph glyph-name="d" unicode="d" horiz-adv-x="1112" 
d="M1094 1414q0 -26 -34 -216t-60 -449.5t-26 -488.5q0 -135 8 -259l-231 -12q-12 83 -12 195l-13 -1q-120 -209 -348 -209q-148 0 -227.5 105.5t-79.5 281.5q0 259 138.5 441.5t366.5 182.5q135 0 209 -66h14q19 210 32 486zM786 757q-71 45 -159 45q-152 0 -227 -115.5
t-75 -273.5q0 -251 162 -251q97 0 180 128.5t99 279.5z" />
    <glyph glyph-name="e" unicode="e" horiz-adv-x="986" 
d="M949 743q0 -298 -641 -310q0 -132 49 -197.5t171 -65.5q160 0 343 103l-31 -198q-149 -104 -378 -104q-204 0 -301.5 122.5t-97.5 324.5q0 261 163.5 418.5t387.5 157.5q155 0 243 -64q92 -66 92 -187zM726 723q0 97 -149 97q-85 0 -161 -62.5t-99 -179.5q409 8 409 145z
" />
    <glyph glyph-name="f" unicode="f" horiz-adv-x="693" 
d="M773 1422l-42 -172q-53 5 -110 5q-68 0 -101 -66t-53 -256q85 0 234 8l-28 -199q-145 6 -225 6q-22 -320 -59 -733.5t-339 -471.5l-54 141q78 60 115.5 179t65 377t48.5 508q-56 0 -166 -6l29 198q99 -7 157 -7q53 503 374 503q96 0 154 -14zM0 960z" />
    <glyph glyph-name="g" unicode="g" horiz-adv-x="1077" 
d="M1110 1088l-40 -186q-148 0 -189 -45l-1 -13q45 -71 45 -150q0 -172 -128.5 -267.5t-312.5 -95.5q-97 0 -156 16q-49 -41 -49 -90q0 -50 43 -66.5t331 -16.5q305 0 305 -228q0 -210 -177 -336.5t-425 -126.5q-195 0 -291.5 63.5t-96.5 190.5q0 174 192 272l1 15
q-64 40 -64 132q0 111 129 214l1 14q-55 30 -95 94.5t-40 142.5q0 180 137 270.5t329 90.5q142 0 241 -68h12q49 197 194 197q61 0 105 -23zM717 -133q0 58 -43 81.5t-195 23.5q-99 0 -186 10q-108 -65 -108 -186q0 -166 191 -166q147 0 244 58.5t97 178.5zM690 675
q0 78 -49.5 118.5t-111.5 40.5q-80 0 -137 -56t-57 -148q0 -77 49.5 -116.5t112.5 -39.5q79 0 136 55t57 146z" />
    <glyph glyph-name="h" unicode="h" horiz-adv-x="1095" 
d="M999 684q0 -88 -27 -330t-27 -354l-258 -10q0 48 33 285.5t33 335.5q0 104 -30 144t-100 40q-87 0 -169 -119t-99 -290q-22 -215 -33 -386l-253 -10q18 131 87 753q40 381 40 663l275 16q0 -44 -37.5 -305.5t-53.5 -343.5h14q117 209 346 209q259 0 259 -298z" />
    <glyph glyph-name="i" unicode="i" horiz-adv-x="488" 
d="M420 970q1 -27 -23 -205.5t-36 -289.5q-22 -208 -37 -475l-255 -10q20 130 63 485q20 190 20 355q0 67 -4 111zM497 1271q0 -78 -54 -133.5t-133 -55.5q-61 0 -94 37.5t-33 93.5q0 79 54 133t133 54q127 0 127 -129z" />
    <glyph glyph-name="j" unicode="j" horiz-adv-x="488" 
d="M424 971q0 -25 -33 -285t-50 -464t-22 -250q-39 -369 -327 -428l-53 140q73 57 108.5 167t71.5 454.5t36 553.5q0 54 -3 84zM497 1271q0 -78 -54.5 -133.5t-133.5 -55.5q-61 0 -94 37.5t-33 93.5q0 79 55 133t134 54q126 0 126 -129z" />
    <glyph glyph-name="k" unicode="k" horiz-adv-x="1017" 
d="M1010 949q0 -36 -120 -177.5t-204 -205.5l-1 -13q105 -121 183.5 -304.5t78.5 -248.5l-273 -10q0 46 -49.5 177t-115.5 220q-51 -55 -89 -114q-90 -140 -99 -273l-252 -10q20 131 91 753q39 371 39 663l272 16q0 -43 -29.5 -248.5t-92.5 -764.5l15 1q34 76 210 301
q155 198 155 249z" />
    <glyph glyph-name="l" unicode="l" horiz-adv-x="519" 
d="M473 1422q0 -51 -30 -262.5t-52 -416.5q-49 -463 -63 -740l-259 -15q0 17 32.5 257.5t59.5 497.5q41 390 41 663z" />
    <glyph glyph-name="m" unicode="m" horiz-adv-x="1669" 
d="M1573 684q0 -104 -27 -340t-27 -344l-255 -10q0 64 32.5 299t32.5 317q0 106 -25 147.5t-87 41.5q-95 0 -172 -114t-95 -295q-23 -225 -28 -386l-256 -10q0 52 33 293.5t33 322.5q0 107 -25.5 148t-86.5 41q-94 0 -171.5 -117t-95.5 -292q-23 -224 -33 -386l-251 -10
q70 518 70 700q0 105 -16 256l248 25q7 -78 7 -198h14q111 209 336 209q113 0 173 -58t63 -151h12q119 209 345 209q140 0 196 -75.5t56 -222.5z" />
    <glyph glyph-name="n" unicode="n" horiz-adv-x="1093" 
d="M997 684q0 -88 -27 -330t-27 -354l-258 -10q0 48 33 285.5t33 335.5q0 104 -30 144t-100 40q-87 0 -169 -119t-99 -290q-22 -215 -33 -386l-251 -10q70 518 70 700q0 105 -16 256l248 25q7 -85 7 -198h14q117 209 346 209q259 0 259 -298z" />
    <glyph glyph-name="o" unicode="o" horiz-adv-x="1095" 
d="M1032 548q0 -244 -155.5 -415.5t-399.5 -171.5q-170 0 -292 124.5t-122 329.5q0 243 156 411t401 168q171 0 291.5 -120.5t120.5 -325.5zM779 526q0 124 -53.5 203.5t-145.5 79.5q-118 0 -191.5 -119t-73.5 -262q0 -124 54 -203.5t147 -79.5q121 0 192 117.5t71 263.5z
" />
    <glyph glyph-name="p" unicode="p" horiz-adv-x="1107" 
d="M1041 595q0 -259 -138.5 -441.5t-366.5 -182.5q-144 0 -209 68h-12q-26 -245 -43 -491l-260 -5q126 922 126 1177q0 95 -16 223l246 28q9 -77 9 -198h12q118 209 346 209q148 0 227 -105.5t79 -281.5zM789 543q0 252 -163 252q-97 0 -181 -129.5t-100 -279.5l-20 -186
q73 -45 161 -45q152 0 227.5 115.5t75.5 272.5z" />
    <glyph glyph-name="q" unicode="q" horiz-adv-x="1112" 
d="M1047 966q-18 -98 -86 -679q-26 -244 -64 -732l-249 -12q14 105 53 455q9 92 33 185h-11q-117 -209 -345 -209q-148 0 -227.5 105.5t-79.5 281.5q0 259 138.5 441.5t366.5 182.5q144 0 218 -60h13l37 25zM788 757q-74 45 -162 45q-149 0 -225.5 -114t-76.5 -275
q0 -251 162 -251q97 0 181.5 129t100.5 279z" />
    <glyph glyph-name="r" unicode="r" horiz-adv-x="757" 
d="M790 961l-79 -235q-67 20 -140 20q-181 0 -202 -199q-32 -302 -49 -547l-251 -10q70 518 70 700q0 105 -16 256l248 25q6 -66 6 -132h15q102 144 248 144q69 0 150 -22z" />
    <glyph glyph-name="s" unicode="s" horiz-adv-x="812" 
d="M759 966l-54 -198q-105 33 -229 33q-156 0 -156 -95q0 -63 147 -122q260 -105 260 -286q0 -325 -457 -325q-154 0 -265 30l53 197q114 -40 232 -40q213 0 213 98q0 70 -146 133q-122 53 -180 104q-81 73 -81 176q0 159 115.5 237t285.5 78q168 0 262 -20z" />
    <glyph glyph-name="t" unicode="t" horiz-adv-x="746" 
d="M690 941l-27 -199q-141 6 -231 6q-42 -272 -42 -404q0 -100 22 -137t79 -37q88 0 187 62l-34 -182q-90 -71 -224 -71q-142 0 -202 69.5t-60 234.5q0 122 50 465q-48 0 -137 -6l28 197q76 -6 139 -6q10 70 43 279l222 29q-17 -95 -47 -308q80 0 234 8zM0 960z" />
    <glyph glyph-name="u" unicode="u" horiz-adv-x="1086" 
d="M1016 970q-70 -554 -70 -736q0 -105 16 -226l-246 -28q-6 81 -6 198h-14q-113 -209 -342 -209q-258 0 -258 298q0 88 26.5 329.5t26.5 353.5l260 20q0 -48 -34 -287t-34 -337q0 -105 28.5 -147t97.5 -42q87 0 169 118.5t99 289.5q28 278 28 385z" />
    <glyph glyph-name="v" unicode="v" horiz-adv-x="981" 
d="M983 961q0 -85 -217.5 -494t-223.5 -467h-259q0 145 -101.5 488.5t-101.5 461.5l273 11q0 -98 56.5 -362t56.5 -352h12q4 38 126.5 322t122.5 381z" />
    <glyph glyph-name="w" unicode="w" horiz-adv-x="1564" 
d="M1559 961q0 -74 -204.5 -485.5t-211.5 -475.5h-222q0 61 -51.5 319.5t-67.5 366.5h-15q-38 -111 -154 -372.5t-121 -313.5h-222q0 82 -100.5 475t-100.5 473l271 13q0 -94 44 -365.5t44 -348.5h14q8 65 136.5 355t128.5 348h224q0 -68 55.5 -350.5t55.5 -352.5h13
q5 48 120.5 332.5t115.5 368.5z" />
    <glyph glyph-name="x" unicode="x" horiz-adv-x="1025" 
d="M995 961q0 -31 -146.5 -206.5t-200.5 -224.5l-1 -15q50 -65 168.5 -274.5t118.5 -240.5l-293 -10q0 32 -64.5 180t-101.5 213h-12q-35 -43 -112.5 -199t-77.5 -184l-278 -10q0 34 156.5 240.5t224.5 271.5l1 15q-43 54 -145.5 231t-102.5 202l291 11q0 -26 50.5 -158.5
t78.5 -179.5h13q33 39 99 169.5t66 157.5z" />
    <glyph glyph-name="y" unicode="y" horiz-adv-x="965" 
d="M957 961q0 -141 -198.5 -512.5t-227.5 -454.5q-88 -248 -205 -342.5t-320 -94.5v193q126 0 217.5 80.5t91.5 203.5q0 136 -121.5 474t-121.5 442l288 11q0 -137 56.5 -384.5t56.5 -337.5h15q4 35 109 299.5t105 408.5z" />
    <glyph glyph-name="z" unicode="z" horiz-adv-x="859" 
d="M834 950l-36 -186q-58 -55 -254.5 -295.5t-196.5 -277.5v-15q215 0 427 19l-26 -195h-718l34 186q54 46 261.5 292t207.5 282v15q-226 0 -415 -16l26 191h690z" />
    <glyph glyph-name="braceleft" unicode="{" horiz-adv-x="723" 
d="M749 1365q-310 -55 -310 -296q0 -49 27.5 -161t27.5 -148q0 -91 -75 -164t-167 -73l-1 -15q60 0 118 -40q79 -54 79 -152q0 -68 -65.5 -203.5t-65.5 -204.5q0 -171 264 -238l-82 -160q-379 83 -379 296q0 88 66.5 255.5t66.5 240.5q0 64 -75 102q-57 29 -131 34l15 149
q247 33 247 177q0 45 -23.5 182.5t-23.5 199.5q0 170 150 273q127 89 310 102z" />
    <glyph glyph-name="bar" unicode="|" horiz-adv-x="516" 
d="M358 -517h-201q10 775 10 988q0 203 -11 1079h201q-10 -775 -10 -988q0 -203 11 -1079z" />
    <glyph glyph-name="braceright" unicode="}" horiz-adv-x="723" 
d="M657 590l-16 -149q-240 -25 -240 -178q0 -45 20 -182.5t20 -201.5q0 -160 -150 -261q-120 -82 -301 -108l-41 159q301 71 301 284q0 46 -20 162t-20 155q0 93 73 164t167 71l2 14q-58 0 -117 43q-78 57 -78 156q0 64 57.5 199t57.5 204q0 194 -240 243l65 157
q112 -16 193 -52q192 -85 192 -250q0 -82 -69 -256.5t-69 -231.5q0 -63 78 -103q59 -31 135 -38z" />
    <glyph glyph-name="asciitilde" unicode="~" horiz-adv-x="1007" 
d="M1003 611q-169 -264 -348 -264q-65 0 -157 33.5t-153 33.5q-113 0 -231 -128l-107 90q169 276 348 276q65 0 163 -32t159 -32q113 0 219 112z" />
    <glyph glyph-name="exclamdown" unicode="&#xa1;" horiz-adv-x="516" 
d="M327 -66q0 -304 -174 -304q-122 0 -122 153q0 175 179 648h97q20 -307 20 -497zM469 836q0 -85 -57.5 -143t-143.5 -58q-134 0 -134 138q0 85 58 145t143 60q65 0 99.5 -41t34.5 -101z" />
    <glyph glyph-name="cent" unicode="&#xa2;" 
d="M899 1003l-54 -200q-84 35 -177 35q-129 0 -208 -105t-79 -238q0 -118 67.5 -199t198.5 -81q79 0 205 35l-38 -191q-114 -42 -222 -42q-15 -144 -20 -281h-132q8 55 35 288q-170 25 -259 151t-89 290q0 204 127 362.5t329 194.5q16 162 23 305h134q-12 -68 -40 -295
q108 -1 199 -29zM0 1055z" />
    <glyph glyph-name="sterling" unicode="&#xa3;" horiz-adv-x="909" 
d="M820 179l-37 -179h-737l16 159q150 47 150 254q0 37 -3 80q-67 0 -136 -5l21 147q47 -4 112 -4q0 302 109.5 424.5t273.5 122.5q107 0 179 -13l-42 -170q-54 13 -102 13q-88 0 -137.5 -64.5t-51.5 -312.5q71 0 205 5l-22 -147q-100 4 -176 4q2 -33 2 -64
q0 -197 -139 -259l-1 -10q195 0 516 19z" />
    <glyph glyph-name="currency" unicode="&#xa4;" horiz-adv-x="1000" 
d="M889 774l-111 -106q47 -72 47 -177q0 -110 -46 -188l94 -88l-102 -102l-86 91q-90 -64 -205 -64q-102 0 -181 49l-87 -92l-101 101l92 87q-40 69 -40 165q0 129 61 215l-97 92l102 102l97 -104q82 49 182 49q95 0 170 -44l110 115zM704 466q0 95 -56.5 172.5t-155.5 77.5
q-97 0 -153 -73t-56 -165q0 -95 57 -172.5t155 -77.5t153.5 73t55.5 165z" />
    <glyph glyph-name="yen" unicode="&#xa5;" horiz-adv-x="909" 
d="M965 1068q-3 -27 -90 -153.5t-174 -252.5q52 2 151 5l-12 -122q-160 -1 -217 0q-27 -44 -40 -72h249l-13 -122q-161 7 -273 7q-15 -157 -19 -358h-271q13 99 44 358q-87 0 -252 -7l13 122h227q-10 42 -20 72h-199l12 122q109 -5 139 -5q-13 30 -87.5 205t-77.5 201h296
q2 -27 66 -237t58 -267h13q5 55 110 263.5t108 240.5h259z" />
    <glyph glyph-name="brokenbar" unicode="&#xa6;" horiz-adv-x="500" 
d="M357 -508h-205q13 339 13 429q0 88 -13 461h205q-13 -339 -13 -429q0 -88 13 -461zM357 635h-205q13 339 13 429q0 88 -13 461h205q-13 -339 -13 -429q0 -88 13 -461z" />
    <glyph glyph-name="section" unicode="&#xa7;" horiz-adv-x="859" 
d="M844 1383l-54 -199q-113 44 -237 44q-151 0 -151 -116q0 -61 101 -159l186 -186q101 -115 101 -244q0 -223 -206 -295q144 -151 144 -299q0 -189 -130 -276t-330 -87q-154 0 -264 35l52 197q115 -45 233 -45q213 0 213 117q0 61 -100 165l-185 195q-100 124 -100 236
q0 102 59.5 180.5t157.5 111.5q-154 159 -154 303q0 163 113 257.5t280 94.5q168 0 271 -30zM583 463q0 68 -129 187q-54 0 -91 -37t-37 -91q0 -68 132 -182q53 0 89 35.5t36 87.5z" />
    <glyph glyph-name="dieresis" unicode="&#xa8;" horiz-adv-x="836" 
d="M756 1277q0 -66 -45 -112.5t-111 -46.5q-107 0 -107 110q0 66 46 111.5t112 45.5q105 0 105 -108zM387 1277q0 -66 -45.5 -112.5t-111.5 -46.5q-105 0 -105 109q0 66 45.5 112t111.5 46q105 0 105 -108z" />
    <glyph glyph-name="copyright" unicode="&#xa9;" horiz-adv-x="1277" 
d="M1262 608q0 -253 -178.5 -430.5t-431.5 -177.5t-432.5 178t-179.5 430q0 253 179.5 432.5t432.5 179.5t431.5 -179.5t178.5 -432.5zM1168 610q0 215 -151 367t-365 152q-215 0 -366.5 -152t-151.5 -367t151.5 -366.5t366.5 -151.5q214 0 365 151.5t151 366.5zM851 942
l-29 -115q-54 19 -105 19q-101 0 -158 -74t-57 -177q0 -85 48 -143.5t140 -58.5q59 0 132 22l-21 -115q-79 -17 -135 -17q-149 0 -225 86.5t-76 210.5q0 159 108 267.5t269 108.5q58 0 109 -14z" />
    <glyph glyph-name="ordfeminine" unicode="&#xaa;" horiz-adv-x="590" 
d="M549 1336q-27 -148 -39.5 -250t-12.5 -162q0 -28 3 -65t8 -75l-159 -25q-2 20 -4 46.5t-2 42.5h-10q-27 -35 -68.5 -61.5t-85.5 -26.5q-65 0 -106 49t-41 153q0 75 29.5 138.5t81 110t120.5 73t147 26.5l21 13zM360 1083q5 40 8.5 69.5t5.5 49.5q-98 -14 -139 -73
t-41 -159q0 -46 15.5 -71t34.5 -25q48 0 76 56t40 153z" />
    <glyph glyph-name="guillemotleft" unicode="&#xab;" horiz-adv-x="929" 
d="M858 730l-216 -242l165 -244l-91 -118l-252 261l22 201l306 259zM461 730l-216 -242l165 -244l-91 -118l-252 261l22 201l306 259z" />
    <glyph glyph-name="logicalnot" unicode="&#xac;" 
d="M915 809l-69 -649h-151l48 457h-626l21 192h777z" />
    <glyph glyph-name="registered" unicode="&#xae;" horiz-adv-x="1277" 
d="M1262 771q0 -253 -178.5 -430.5t-431.5 -177.5t-432.5 178t-179.5 430q0 253 179.5 432.5t432.5 179.5t431.5 -179.5t178.5 -432.5zM1168 773q0 215 -151 366.5t-365 151.5q-215 0 -366.5 -151.5t-151.5 -366.5t151.5 -367t366.5 -152q214 0 365 152t151 367zM902 466
h-140q-35 172 -68 220q-27 40 -92 40q-20 0 -51 -1q-15 -138 -18 -259h-137q10 68 42 340q19 182 22 311h86q15 0 60.5 1.5t83.5 1.5q203 0 203 -149q0 -138 -144 -182v-7q45 -14 78 -82.5t75 -233.5zM767 941q0 84 -111 84q-45 0 -78 -7q-3 -44 -17 -202q26 -1 44 -1
q162 0 162 126z" />
    <glyph glyph-name="macron" unicode="&#xaf;" horiz-adv-x="500" 
d="M554 1335l-31 -174h-460l30 174h461z" />
    <glyph glyph-name="macron" unicode="&#x2c9;" horiz-adv-x="500" 
d="M554 1335l-31 -174h-460l30 174h461z" />
    <glyph glyph-name="degree" unicode="&#xb0;" horiz-adv-x="547" 
d="M526 1281q0 -120 -82 -200t-207 -80q-108 0 -176 69t-68 180q0 119 81.5 198t206.5 79q109 0 177 -68.5t68 -177.5zM408 1264q0 64 -40.5 103.5t-103.5 39.5q-68 0 -110.5 -41.5t-42.5 -104.5q0 -65 39.5 -105t101.5 -40q68 0 112 42.5t44 105.5z" />
    <glyph glyph-name="plusminus" unicode="&#xb1;" 
d="M947 799l-19 -180h-303l-30 -290h-172l30 290h-304l19 180h304l30 290h172l-30 -290h303zM887 225l-19 -180h-779l19 180h779z" />
    <glyph glyph-name="uni00B2" unicode="&#xb2;" horiz-adv-x="547" 
d="M481 1110q0 -121 -96.5 -226.5t-143.5 -137.5l-3 -16q132 0 233 8l-28 -131h-417l24 110q68 35 169 146.5t101 225.5q0 100 -110 100q-51 0 -120 -18l28 125q64 20 142 20q117 0 169 -56.5t52 -149.5z" />
    <glyph glyph-name="uni00B3" unicode="&#xb3;" horiz-adv-x="547" 
d="M496 1166q0 -94 -116 -149l-2 -10q115 -44 115 -148q0 -63 -31 -118t-91 -98t-148 -70t-202 -35l-13 107q73 9 132 25.5t100 39.5t63.5 53t22.5 66q0 97 -222 97l29 110q118 0 162 22.5t44 63.5q0 37 -25.5 52t-72.5 15q-66 0 -143 -22l21 128q80 21 175 21q59 0 95 -11
t60 -30t35.5 -44.5t11.5 -64.5zM0 607z" />
    <glyph glyph-name="acute" unicode="&#xb4;" horiz-adv-x="562" 
d="M541 1410q0 -12 -147.5 -160t-147.5 -164h-174q0 16 102 164.5t102 159.5h265z" />
    <glyph glyph-name="mu" unicode="&#xb5;" horiz-adv-x="1128" 
d="M1020 -1l-235 -8q-19 68 -19 103h-16q-85 -94 -215 -94q-136 0 -208 94h-16q0 -269 57 -549l-262 -20q13 400 13 743q0 399 -33 670l290 11q-9 -208 -9 -369q0 -239 44.5 -320t153.5 -81q105 0 179 67q0 507 -12 694l268 10q-11 -232 -11 -437q0 -232 31 -514z" />
    <glyph glyph-name="paragraph" unicode="&#xb6;" horiz-adv-x="1371" 
d="M1229 1405q-19 -121 -87 -711q-67 -637 -104 -1107h-257q25 207 126 1128q29 279 43 493q-36 2 -126 6q-28 -217 -97 -821q-32 -296 -81 -889h-176q18 113 105 889q6 60 17 172q-430 11 -430 367q0 206 130 342.5t339 136.5q80 0 187 -3t155 -3h256z" />
    <glyph glyph-name="periodcentered" unicode="&#xb7;" horiz-adv-x="516" 
d="M427 634q0 -85 -57 -145t-143 -60q-65 0 -99.5 41t-34.5 101q0 85 57.5 143t142.5 58q134 0 134 -138z" />
    <glyph glyph-name="periodcentered" unicode="&#x2219;" horiz-adv-x="516" 
d="M427 634q0 -85 -57 -145t-143 -60q-65 0 -99.5 41t-34.5 101q0 85 57.5 143t142.5 58q134 0 134 -138z" />
    <glyph glyph-name="cedilla" unicode="&#xb8;" horiz-adv-x="470" 
d="M371 -262q0 -232 -257 -232l-11 112q41 0 72 29t31 69q0 97 -109 119l61 217l81 -14l-26 -108q158 -55 158 -192z" />
    <glyph glyph-name="uni00B9" unicode="&#xb9;" horiz-adv-x="547" 
d="M473 1304q-23 -143 -43.5 -347t-28.5 -350h-167q3 19 25.5 219.5t30.5 285.5q-47 -23 -189 -98l-28 98l295 192h105z" />
    <glyph glyph-name="ordmasculine" unicode="&#xba;" horiz-adv-x="590" 
d="M568 1083q0 -134 -78 -232q-89 -104 -236 -104q-46 0 -87.5 17.5t-73.5 49.5q-71 77 -71 192q0 65 22.5 123t63 102t98 70t127.5 26q43 0 90.5 -14t79.5 -51q30 -35 47.5 -80.5t17.5 -98.5zM411 1067q0 75 -25.5 113t-73.5 38q-59 0 -95 -54.5t-36 -153.5q0 -94 27 -124
q25 -32 65 -32q59 0 97 62q41 65 41 151z" />
    <glyph glyph-name="guillemotright" unicode="&#xbb;" horiz-adv-x="929" 
d="M835 588l-22 -201l-305 -261l-66 118l216 242l-166 244l91 117zM426 588l-22 -201l-305 -261l-66 118l216 242l-166 244l91 117z" />
    <glyph glyph-name="onequarter" unicode="&#xbc;" horiz-adv-x="1550" 
d="M1395 1315q-7 -66 -541.5 -666t-544.5 -691l-154 20q7 71 540.5 665.5t543.5 691.5zM523 1304q-23 -143 -43.5 -347t-28.5 -350h-167q3 19 25.5 219.5t30.5 285.5q-47 -23 -189 -98l-28 98l295 192h105zM1430 338l-30 -133h-79q-5 -48 -9 -110.5t-8 -125.5h-163
q9 65 16.5 122.5t13.5 113.5h-258l-4 99q1 17 111.5 149.5t180.5 242.5h182q-9 -53 -22 -141t-27 -225q31 0 96 8zM1211 554h-5q-30 -58 -84.5 -126t-79.5 -92l-3 -11h82q44 0 63 1q7 44 14.5 102t12.5 126z" />
    <glyph glyph-name="onehalf" unicode="&#xbd;" horiz-adv-x="1550" 
d="M1395 1315q-7 -66 -541.5 -666t-544.5 -691l-154 20q7 71 540.5 665.5t543.5 691.5zM522 1304q-23 -143 -43.5 -347t-28.5 -350h-167q3 19 25.5 219.5t30.5 285.5q-47 -23 -189 -98l-28 98l295 192h105zM1420 504q0 -121 -96.5 -226.5t-143.5 -137.5l-3 -16q132 0 233 8
l-28 -131h-417l24 110q68 35 169 146.5t101 225.5q0 100 -110 100q-51 0 -120 -18l28 125q64 20 142 20q117 0 169 -56.5t52 -149.5z" />
    <glyph glyph-name="threequarters" unicode="&#xbe;" horiz-adv-x="1550" 
d="M1395 1315q-7 -66 -541.5 -666t-544.5 -691l-154 20q7 71 540.5 665.5t543.5 691.5zM576 1166q0 -94 -116 -149l-2 -10q115 -44 115 -148q0 -63 -31 -118t-91 -98t-148 -70t-202 -35l-13 107q73 9 132 25.5t100 39.5t63.5 53t22.5 66q0 97 -222 97l29 110q118 0 162 22.5
t44 63.5q0 37 -25.5 52t-72.5 15q-66 0 -143 -22l21 128q80 21 175 21q59 0 95 -11t60 -30t35.5 -44.5t11.5 -64.5zM80 607zM1429 338l-30 -133h-79q-5 -48 -9 -110.5t-8 -125.5h-163q9 65 16.5 122.5t13.5 113.5h-258l-4 99q1 17 111.5 149.5t180.5 242.5h182
q-9 -53 -22 -141t-27 -225q31 0 96 8zM1210 554h-5q-30 -58 -84.5 -126t-79.5 -92l-3 -11h82q44 0 63 1q7 44 14.5 102t12.5 126z" />
    <glyph glyph-name="questiondown" unicode="&#xbf;" horiz-adv-x="723" 
d="M556 -172l-41 -189q-275 0 -403 59q-141 65 -141 214q0 125 88 223.5t215 150.5l35 151h126l16 -213q-229 -74 -229 -225q0 -160 334 -171zM596 842q0 -85 -58 -143t-143 -58q-135 0 -135 138q0 85 57.5 145t143.5 60q66 0 100.5 -41t34.5 -101z" />
    <glyph glyph-name="Agrave" unicode="&#xc0;" horiz-adv-x="1216" 
d="M1145 0h-304q0 109 -48 374h-438q-36 -85 -62 -154q-64 -164 -67 -220h-286q3 37 289 640.5t292 661.5h358q0 -113 133 -647t133 -655zM765 565q-104 513 -104 558h-15q-4 -35 -227 -558h346zM860 1416h-174q0 16 -108.5 139t-110.5 135h265q0 -11 64 -134.5t64 -139.5z
" />
    <glyph glyph-name="Aacute" unicode="&#xc1;" horiz-adv-x="1216" 
d="M1145 0h-304q0 109 -48 374h-438q-36 -85 -62 -154q-64 -164 -67 -220h-286q3 37 289 640.5t292 661.5h358q0 -113 133 -647t133 -655zM765 565q-104 513 -104 558h-15q-4 -35 -227 -558h346zM1042 1690q0 -12 -147.5 -135t-147.5 -139h-174q0 16 97 139.5t97 134.5h275z
" />
    <glyph glyph-name="Acircumflex" unicode="&#xc2;" horiz-adv-x="1216" 
d="M1145 0h-304q0 109 -48 374h-438q-36 -85 -62 -154q-64 -164 -67 -220h-286q3 37 289 640.5t292 661.5h358q0 -113 133 -647t133 -655zM765 565q-104 513 -104 558h-15q-4 -35 -227 -558h346zM1018 1416h-146q0 13 -140 128q-175 -115 -176 -128h-146q1 13 106 135.5
t111 138.5h241q4 -16 77 -138.5t73 -135.5z" />
    <glyph glyph-name="Atilde" unicode="&#xc3;" horiz-adv-x="1216" 
d="M1145 0h-304q0 109 -48 374h-438q-36 -85 -62 -154q-64 -164 -67 -220h-286q3 37 289 640.5t292 661.5h358q0 -113 133 -647t133 -655zM765 565q-104 513 -104 558h-15q-4 -35 -227 -558h346zM1105 1612q-130 -185 -267 -185q-50 0 -113.5 24t-110.5 24q-86 0 -177 -67
l-77 75q130 186 267 186q50 0 113.5 -22t110.5 -22q86 0 178 62z" />
    <glyph glyph-name="Adieresis" unicode="&#xc4;" horiz-adv-x="1216" 
d="M1145 0h-304q0 109 -48 374h-438q-36 -85 -62 -154q-64 -164 -67 -220h-286q3 37 289 640.5t292 661.5h358q0 -113 133 -647t133 -655zM765 565q-104 513 -104 558h-15q-4 -35 -227 -558h346zM1043 1583q0 -66 -45 -112.5t-111 -46.5q-107 0 -107 110q0 66 46 111.5
t112 45.5q105 0 105 -108zM674 1583q0 -66 -45.5 -112.5t-111.5 -46.5q-105 0 -105 109q0 66 45.5 112t111.5 46q105 0 105 -108z" />
    <glyph glyph-name="Aring" unicode="&#xc5;" horiz-adv-x="1216" 
d="M1145 0h-304q0 109 -48 374h-438q-36 -85 -62 -154q-64 -164 -67 -220h-286q3 37 289 640.5t292 661.5h358q0 -113 133 -647t133 -655zM765 565q-104 513 -104 558h-15q-4 -35 -227 -558h346zM958 1603q0 -115 -82 -186q-73 -64 -173 -64q-90 0 -151 55q-69 60 -69 166
q0 114 82 183q73 63 173 63q90 0 151 -53q69 -60 69 -164zM844 1594q0 60 -35 94q-32 30 -80 30q-52 0 -90 -35q-42 -39 -42 -103q0 -60 35 -94q32 -31 80 -31q52 0 90 35q42 40 42 104z" />
    <glyph glyph-name="AE" unicode="&#xc6;" horiz-adv-x="1598" 
d="M1556 1302l-30 -219q-294 16 -525 16q-7 -105 -26 -328q184 0 437 8l-22 -206q-234 10 -436 10q-21 -203 -32 -380q263 0 567 17l-31 -220h-816q15 92 50 374h-353q-34 -85 -76.5 -201.5t-48.5 -172.5h-274q4 38 289 638t292 664h1035zM761 1099h-125q-4 -39 -231 -534
h308q31 293 48 534z" />
    <glyph glyph-name="Ccedilla" unicode="&#xc7;" horiz-adv-x="1049" 
d="M1027 1292l-57 -231q-108 38 -211 38q-201 0 -315.5 -148t-114.5 -353q0 -170 96.5 -287t280.5 -117q118 0 263 43l-41 -230q-159 -34 -270 -34q-36 0 -69 3l-11 -46q158 -55 158 -192q0 -232 -257 -232l-11 112q41 0 72 29t31 69q0 97 -109 119l42 152
q-190 36 -319.5 184.5t-129.5 395.5q0 318 216 535.5t539 217.5q116 0 217 -28z" />
    <glyph glyph-name="Egrave" unicode="&#xc8;" horiz-adv-x="1031" 
d="M989 1302l-31 -219q-281 16 -513 16q-7 -107 -26 -328q198 0 425 11l-23 -209q-219 10 -422 10q-21 -203 -34 -380q260 0 558 17l-32 -220h-808q21 137 84 681q38 364 43 621h779zM763 1416h-174q0 16 -108.5 139t-110.5 135h265q0 -11 64 -134.5t64 -139.5z" />
    <glyph glyph-name="Eacute" unicode="&#xc9;" horiz-adv-x="1031" 
d="M989 1302l-31 -219q-281 16 -513 16q-7 -107 -26 -328q198 0 425 11l-23 -209q-219 10 -422 10q-21 -203 -34 -380q260 0 558 17l-32 -220h-808q21 137 84 681q38 364 43 621h779zM960 1690q0 -12 -147.5 -135t-147.5 -139h-174q0 16 97 139.5t97 134.5h275z" />
    <glyph glyph-name="Ecircumflex" unicode="&#xca;" horiz-adv-x="1031" 
d="M989 1302l-31 -219q-281 16 -513 16q-7 -107 -26 -328q198 0 425 11l-23 -209q-219 10 -422 10q-21 -203 -34 -380q260 0 558 17l-32 -220h-808q21 137 84 681q38 364 43 621h779zM910 1416h-146q0 13 -140 128q-175 -115 -176 -128h-146q1 13 106 135.5t111 138.5h241
q4 -16 77 -138.5t73 -135.5z" />
    <glyph glyph-name="Edieresis" unicode="&#xcb;" horiz-adv-x="1031" 
d="M989 1302l-31 -219q-281 16 -513 16q-7 -107 -26 -328q198 0 425 11l-23 -209q-219 10 -422 10q-21 -203 -34 -380q260 0 558 17l-32 -220h-808q21 137 84 681q38 364 43 621h779zM945 1583q0 -66 -45 -112.5t-111 -46.5q-107 0 -107 110q0 66 46 111.5t112 45.5
q105 0 105 -108zM576 1583q0 -66 -45.5 -112.5t-111.5 -46.5q-105 0 -105 109q0 66 45.5 112t111.5 46q105 0 105 -108z" />
    <glyph glyph-name="Igrave" unicode="&#xcc;" horiz-adv-x="574" 
d="M491 1302q-18 -112 -78 -621q-37 -348 -49 -681h-280q22 141 86 681q38 365 41 621h280zM493 1416h-174q0 16 -108.5 139t-110.5 135h265q0 -11 64 -134.5t64 -139.5z" />
    <glyph glyph-name="Iacute" unicode="&#xcd;" horiz-adv-x="574" 
d="M491 1302q-18 -112 -78 -621q-37 -348 -49 -681h-280q22 141 86 681q38 365 41 621h280zM708 1690q0 -12 -147.5 -135t-147.5 -139h-174q0 16 97 139.5t97 134.5h275z" />
    <glyph glyph-name="Icircumflex" unicode="&#xce;" horiz-adv-x="574" 
d="M491 1302q-18 -112 -78 -621q-37 -348 -49 -681h-280q22 141 86 681q38 365 41 621h280zM666 1416h-146q0 13 -140 128q-175 -115 -176 -128h-146q1 13 106 135.5t111 138.5h241q4 -16 77 -138.5t73 -135.5z" />
    <glyph glyph-name="Idieresis" unicode="&#xcf;" horiz-adv-x="574" 
d="M491 1302q-18 -112 -78 -621q-37 -348 -49 -681h-280q22 141 86 681q38 365 41 621h280zM702 1583q0 -66 -45 -112.5t-111 -46.5q-107 0 -107 110q0 66 46 111.5t112 45.5q105 0 105 -108zM333 1583q0 -66 -45.5 -112.5t-111.5 -46.5q-105 0 -105 109q0 66 45.5 112
t111.5 46q105 0 105 -108z" />
    <glyph glyph-name="Eth" unicode="&#xd0;" horiz-adv-x="1279" 
d="M1224 759q0 -318 -209 -545q-209 -226 -519 -226q-150 0 -394 12q21 149 74 582q-54 -4 -140 -14l26 179q77 -1 131 -1q25 249 46 556h165q41 0 123.5 3t123.5 3q284 0 428 -154q145 -154 145 -395zM960 716q0 175 -99 283q-98 109 -288 109q-48 0 -110 -8
q-4 -74 -29 -347q94 5 315 26l-27 -176q-149 0 -304 -7q-20 -202 -33 -389q60 -13 126 -13q204 0 326 153q123 153 123 369z" />
    <glyph glyph-name="Ntilde" unicode="&#xd1;" horiz-adv-x="1323" 
d="M1239 1302q-18 -110 -78 -621q-40 -376 -59 -681h-234q0 48 -225 460q-234 429 -259 569h-15q11 -76 11 -153q0 -117 -18 -285q-26 -246 -45 -591h-233q21 141 84 681q38 365 42 621h292q0 -66 202 -454q213 -408 236 -533h14q-12 58 -12 123q0 138 19 319q30 289 34 545
h244zM1129 1612q-130 -185 -267 -185q-50 0 -113.5 24t-110.5 24q-86 0 -177 -67l-77 75q130 186 267 186q50 0 113.5 -22t110.5 -22q86 0 178 62z" />
    <glyph glyph-name="Ograve" unicode="&#xd2;" horiz-adv-x="1333" 
d="M1278 741q0 -309 -198.5 -543t-499.5 -234q-228 0 -376.5 168t-148.5 423q0 312 200 544.5t499 232.5q228 0 376 -167.5t148 -423.5zM1013 722q0 179 -87.5 286t-219.5 107q-174 0 -279 -168t-105 -369q0 -179 87 -286.5t219 -107.5q173 0 279 170t106 368zM853 1416
h-174q0 16 -108.5 139t-110.5 135h265q0 -11 64 -134.5t64 -139.5z" />
    <glyph glyph-name="Oacute" unicode="&#xd3;" horiz-adv-x="1333" 
d="M1278 741q0 -309 -198.5 -543t-499.5 -234q-228 0 -376.5 168t-148.5 423q0 312 200 544.5t499 232.5q228 0 376 -167.5t148 -423.5zM1013 722q0 179 -87.5 286t-219.5 107q-174 0 -279 -168t-105 -369q0 -179 87 -286.5t219 -107.5q173 0 279 170t106 368zM1120 1690
q0 -12 -147.5 -135t-147.5 -139h-174q0 16 97 139.5t97 134.5h275z" />
    <glyph glyph-name="Ocircumflex" unicode="&#xd4;" horiz-adv-x="1333" 
d="M1278 741q0 -309 -198.5 -543t-499.5 -234q-228 0 -376.5 168t-148.5 423q0 312 200 544.5t499 232.5q228 0 376 -167.5t148 -423.5zM1013 722q0 179 -87.5 286t-219.5 107q-174 0 -279 -168t-105 -369q0 -179 87 -286.5t219 -107.5q173 0 279 170t106 368zM1067 1416
h-146q0 13 -140 128q-175 -115 -176 -128h-146q1 13 106 135.5t111 138.5h241q4 -16 77 -138.5t73 -135.5z" />
    <glyph glyph-name="Otilde" unicode="&#xd5;" horiz-adv-x="1333" 
d="M1278 741q0 -309 -198.5 -543t-499.5 -234q-228 0 -376.5 168t-148.5 423q0 312 200 544.5t499 232.5q228 0 376 -167.5t148 -423.5zM1013 722q0 179 -87.5 286t-219.5 107q-174 0 -279 -168t-105 -369q0 -179 87 -286.5t219 -107.5q173 0 279 170t106 368zM1158 1612
q-130 -185 -267 -185q-50 0 -113.5 24t-110.5 24q-86 0 -177 -67l-77 75q130 186 267 186q50 0 113.5 -22t110.5 -22q86 0 178 62z" />
    <glyph glyph-name="Odieresis" unicode="&#xd6;" horiz-adv-x="1333" 
d="M1278 741q0 -309 -198.5 -543t-499.5 -234q-228 0 -376.5 168t-148.5 423q0 312 200 544.5t499 232.5q228 0 376 -167.5t148 -423.5zM1013 722q0 179 -87.5 286t-219.5 107q-174 0 -279 -168t-105 -369q0 -179 87 -286.5t219 -107.5q173 0 279 170t106 368zM1086 1583
q0 -66 -45 -112.5t-111 -46.5q-107 0 -107 110q0 66 46 111.5t112 45.5q105 0 105 -108zM717 1583q0 -66 -45.5 -112.5t-111.5 -46.5q-105 0 -105 109q0 66 45.5 112t111.5 46q105 0 105 -108z" />
    <glyph glyph-name="multiply" unicode="&#xd7;" 
d="M823 273l-133 -127l-192 226l-253 -241l-109 128l255 240l-192 226l135 128l191 -227l253 241l109 -128l-254 -240z" />
    <glyph glyph-name="Oslash" unicode="&#xd8;" horiz-adv-x="1333" 
d="M1355 1322q-4 -42 -160 -225q91 -144 91 -361q0 -305 -196 -538.5t-499 -233.5q-190 0 -327 113q-138 -159 -142 -196l-137 42q4 39 188 249q-109 150 -109 387q0 308 195.5 540.5t499.5 232.5q207 0 348 -131q107 128 110 158zM937 1003q-87 112 -226 112
q-177 0 -279.5 -172.5t-102.5 -362.5q0 -107 35 -194q203 216 573 617zM1020 719q0 87 -21 154q-197 -209 -563 -603q83 -86 203 -86q177 0 279 172.5t102 362.5z" />
    <glyph glyph-name="Ugrave" unicode="&#xd9;" horiz-adv-x="1300" 
d="M1231 1302q-18 -139 -78 -672q-70 -664 -586 -664q-221 0 -338 108t-117 400q0 64 8 147q33 315 54 681h279q-23 -157 -81 -652q-9 -86 -9 -165q0 -178 57.5 -246t173.5 -68q140 0 218 97.5t108 383.5q34 328 45 650h266zM834 1416h-174q0 16 -108.5 139t-110.5 135h265
q0 -11 64 -134.5t64 -139.5z" />
    <glyph glyph-name="Uacute" unicode="&#xda;" horiz-adv-x="1300" 
d="M1231 1302q-18 -139 -78 -672q-70 -664 -586 -664q-221 0 -338 108t-117 400q0 64 8 147q33 315 54 681h279q-23 -157 -81 -652q-9 -86 -9 -165q0 -178 57.5 -246t173.5 -68q140 0 218 97.5t108 383.5q34 328 45 650h266zM1094 1690q0 -12 -147.5 -135t-147.5 -139h-174
q0 16 97 139.5t97 134.5h275z" />
    <glyph glyph-name="Ucircumflex" unicode="&#xdb;" horiz-adv-x="1300" 
d="M1231 1302q-18 -139 -78 -672q-70 -664 -586 -664q-221 0 -338 108t-117 400q0 64 8 147q33 315 54 681h279q-23 -157 -81 -652q-9 -86 -9 -165q0 -178 57.5 -246t173.5 -68q140 0 218 97.5t108 383.5q34 328 45 650h266zM1010 1416h-146q0 13 -140 128
q-175 -115 -176 -128h-146q1 13 106 135.5t111 138.5h241q4 -16 77 -138.5t73 -135.5z" />
    <glyph glyph-name="Udieresis" unicode="&#xdc;" horiz-adv-x="1300" 
d="M1231 1302q-18 -139 -78 -672q-70 -664 -586 -664q-221 0 -338 108t-117 400q0 64 8 147q33 315 54 681h279q-23 -157 -81 -652q-9 -86 -9 -165q0 -178 57.5 -246t173.5 -68q140 0 218 97.5t108 383.5q34 328 45 650h266zM1050 1583q0 -66 -45 -112.5t-111 -46.5
q-107 0 -107 110q0 66 46 111.5t112 45.5q105 0 105 -108zM681 1583q0 -66 -45.5 -112.5t-111.5 -46.5q-105 0 -105 109q0 66 45.5 112t111.5 46q105 0 105 -108z" />
    <glyph glyph-name="Yacute" unicode="&#xdd;" horiz-adv-x="1065" 
d="M1117 1302q0 -42 -171.5 -284t-249.5 -362.5t-88 -217.5q-23 -220 -24 -438h-280q58 381 58 467q0 143 -148 474.5t-148 360.5h298q0 -63 85 -312t85 -337h15q7 68 152.5 324t145.5 325h270zM967 1690q0 -12 -147.5 -135t-147.5 -139h-174q0 16 97 139.5t97 134.5h275z
" />
    <glyph glyph-name="Thorn" unicode="&#xde;" horiz-adv-x="1119" 
d="M1076 850q0 -255 -189.5 -369t-463.5 -114h-45q-18 -170 -21 -367h-274q21 145 83 684q38 357 44 618h268q-9 -34 -25 -126q124 5 227 5q164 0 280 -87.5t116 -243.5zM824 808q0 185 -249 185q-63 0 -140 -15q-14 -110 -30 -267q-7 -76 -14 -163h61q372 0 372 260z" />
    <glyph glyph-name="germandbls" unicode="&#xdf;" horiz-adv-x="1075" 
d="M1022 1192q0 -100 -69 -188l-130 -134q-69 -72 -69 -132t95 -157q144 -147 144 -287q0 -151 -115 -233.5t-273 -82.5q-105 0 -183 24l39 176q68 -28 154 -28q141 0 141 103q0 62 -102 174q-114 125 -114 233q0 97 74 192l136 146q74 82 74 150q0 112 -168 112
q-132 0 -195 -117t-86.5 -416t-60.5 -712.5t-339 -471.5l-54 141q78 60 115.5 179t67.5 377t54 573.5t142.5 469t364.5 153.5q178 0 267.5 -63t89.5 -181z" />
    <glyph glyph-name="agrave" unicode="&#xe0;" horiz-adv-x="1031" 
d="M966 995q-80 -542 -80 -749q0 -105 17 -236l-246 -28q-6 83 -6 193h-15q-111 -203 -330 -203q-126 0 -190 94.5t-64 258.5q0 236 165 425.5t513 198.5l44 31zM710 791q-209 -2 -307 -122t-98 -324q0 -185 116 -185q90 0 165.5 131t95.5 250.5t28 249.5zM679 1086h-174
q0 16 -108.5 164t-110.5 160h255q0 -11 69 -159.5t69 -164.5z" />
    <glyph glyph-name="aacute" unicode="&#xe1;" horiz-adv-x="1031" 
d="M966 995q-80 -542 -80 -749q0 -105 17 -236l-246 -28q-6 83 -6 193h-15q-111 -203 -330 -203q-126 0 -190 94.5t-64 258.5q0 236 165 425.5t513 198.5l44 31zM710 791q-209 -2 -307 -122t-98 -324q0 -185 116 -185q90 0 165.5 131t95.5 250.5t28 249.5zM911 1410
q0 -12 -147.5 -160t-147.5 -164h-174q0 16 102 164.5t102 159.5h265z" />
    <glyph glyph-name="acircumflex" unicode="&#xe2;" horiz-adv-x="1031" 
d="M966 995q-80 -542 -80 -749q0 -105 17 -236l-246 -28q-6 83 -6 193h-15q-111 -203 -330 -203q-126 0 -190 94.5t-64 258.5q0 236 165 425.5t513 198.5l44 31zM710 791q-209 -2 -307 -122t-98 -324q0 -185 116 -185q90 0 165.5 131t95.5 250.5t28 249.5zM861 1086h-146
q0 13 -140 168q-175 -155 -176 -168h-146q1 13 106 160.5t111 163.5h241q4 -16 77 -163.5t73 -160.5z" />
    <glyph glyph-name="atilde" unicode="&#xe3;" horiz-adv-x="1031" 
d="M966 995q-80 -542 -80 -749q0 -105 17 -236l-246 -28q-6 83 -6 193h-15q-111 -203 -330 -203q-126 0 -190 94.5t-64 258.5q0 236 165 425.5t513 198.5l44 31zM710 791q-209 -2 -307 -122t-98 -324q0 -185 116 -185q90 0 165.5 131t95.5 250.5t28 249.5zM980 1342
q-130 -195 -267 -195q-50 0 -113.5 24t-110.5 24q-86 0 -177 -107l-77 75q130 206 267 206q50 0 113.5 -22t110.5 -22q86 0 178 92z" />
    <glyph glyph-name="adieresis" unicode="&#xe4;" horiz-adv-x="1031" 
d="M966 995q-80 -542 -80 -749q0 -105 17 -236l-246 -28q-6 83 -6 193h-15q-111 -203 -330 -203q-126 0 -190 94.5t-64 258.5q0 236 165 425.5t513 198.5l44 31zM710 791q-209 -2 -307 -122t-98 -324q0 -185 116 -185q90 0 165.5 131t95.5 250.5t28 249.5zM916 1277
q0 -66 -45 -112.5t-111 -46.5q-107 0 -107 110q0 66 46 111.5t112 45.5q105 0 105 -108zM547 1277q0 -66 -45.5 -112.5t-111.5 -46.5q-105 0 -105 109q0 66 45.5 112t111.5 46q105 0 105 -108z" />
    <glyph glyph-name="aring" unicode="&#xe5;" horiz-adv-x="1031" 
d="M966 995q-80 -542 -80 -749q0 -105 17 -236l-246 -28q-6 83 -6 193h-15q-111 -203 -330 -203q-126 0 -190 94.5t-64 258.5q0 236 165 425.5t513 198.5l44 31zM710 791q-209 -2 -307 -122t-98 -324q0 -185 116 -185q90 0 165.5 131t95.5 250.5t28 249.5zM882 1288
q0 -115 -82 -186q-73 -64 -173 -64q-90 0 -151 55q-69 60 -69 166q0 114 82 183q73 63 173 63q90 0 151 -53q69 -60 69 -164zM768 1279q0 60 -35 94q-32 30 -80 30q-52 0 -90 -35q-42 -39 -42 -103q0 -60 35 -94q32 -31 80 -31q52 0 90 35q42 40 42 104z" />
    <glyph glyph-name="ae" unicode="&#xe6;" horiz-adv-x="1588" 
d="M1551 743q0 -298 -641 -310q0 -125 46 -194t173 -69q160 0 344 103l-31 -198q-149 -104 -378 -104q-295 0 -374 246h-14q-137 -245 -370 -245q-126 0 -190 94.5t-64 258.5q0 237 167 427t511 198l44 30l172 15l-12 -76h15q124 75 267 75q155 0 245 -65t90 -186zM710 791
q-208 -3 -306.5 -123.5t-98.5 -322.5q0 -185 116 -185q91 0 166.5 125.5t103.5 306.5q11 69 19 199zM1328 723q0 97 -149 97q-85 0 -161.5 -62.5t-99.5 -179.5q410 8 410 145z" />
    <glyph glyph-name="ccedilla" unicode="&#xe7;" horiz-adv-x="866" 
d="M840 960l-53 -203q-84 28 -192 28q-131 0 -205 -101.5t-74 -234.5q0 -279 212 -279q121 0 266 88l-32 -198q-122 -89 -296 -89q-14 0 -28 1l-10 -42q158 -55 158 -192q0 -232 -257 -232l-11 112q41 0 72 29t31 69q0 97 -109 119l41 148q-124 29 -207 138t-83 300
q0 231 158 394.5t414 163.5q117 0 205 -19z" />
    <glyph glyph-name="egrave" unicode="&#xe8;" horiz-adv-x="986" 
d="M949 743q0 -298 -641 -310q0 -132 49 -197.5t171 -65.5q160 0 343 103l-31 -198q-149 -104 -378 -104q-204 0 -301.5 122.5t-97.5 324.5q0 261 163.5 418.5t387.5 157.5q155 0 243 -64q92 -66 92 -187zM726 723q0 97 -149 97q-85 0 -161 -62.5t-99 -179.5q409 8 409 145z
M679 1086h-174q0 16 -108.5 164t-110.5 160h255q0 -11 69 -159.5t69 -164.5z" />
    <glyph glyph-name="eacute" unicode="&#xe9;" horiz-adv-x="986" 
d="M949 743q0 -298 -641 -310q0 -132 49 -197.5t171 -65.5q160 0 343 103l-31 -198q-149 -104 -378 -104q-204 0 -301.5 122.5t-97.5 324.5q0 261 163.5 418.5t387.5 157.5q155 0 243 -64q92 -66 92 -187zM726 723q0 97 -149 97q-85 0 -161 -62.5t-99 -179.5q409 8 409 145z
M936 1410q0 -12 -147.5 -160t-147.5 -164h-174q0 16 102 164.5t102 159.5h265z" />
    <glyph glyph-name="ecircumflex" unicode="&#xea;" horiz-adv-x="986" 
d="M949 743q0 -298 -641 -310q0 -132 49 -197.5t171 -65.5q160 0 343 103l-31 -198q-149 -104 -378 -104q-204 0 -301.5 122.5t-97.5 324.5q0 261 163.5 418.5t387.5 157.5q155 0 243 -64q92 -66 92 -187zM726 723q0 97 -149 97q-85 0 -161 -62.5t-99 -179.5q409 8 409 145z
M876 1086h-146q0 13 -140 168q-175 -155 -176 -168h-146q1 13 106 160.5t111 163.5h241q4 -16 77 -163.5t73 -160.5z" />
    <glyph glyph-name="edieresis" unicode="&#xeb;" horiz-adv-x="986" 
d="M949 743q0 -298 -641 -310q0 -132 49 -197.5t171 -65.5q160 0 343 103l-31 -198q-149 -104 -378 -104q-204 0 -301.5 122.5t-97.5 324.5q0 261 163.5 418.5t387.5 157.5q155 0 243 -64q92 -66 92 -187zM726 723q0 97 -149 97q-85 0 -161 -62.5t-99 -179.5q409 8 409 145z
M906 1277q0 -66 -45 -112.5t-111 -46.5q-107 0 -107 110q0 66 46 111.5t112 45.5q105 0 105 -108zM537 1277q0 -66 -45.5 -112.5t-111.5 -46.5q-105 0 -105 109q0 66 45.5 112t111.5 46q105 0 105 -108z" />
    <glyph glyph-name="igrave" unicode="&#xec;" horiz-adv-x="488" 
d="M420 970q0 -27 -20 -180q-27 -204 -39 -315q-22 -208 -37 -475l-255 -10q20 130 63 485q20 190 20 355q0 67 -4 111zM410 1086h-174q0 16 -108.5 164t-110.5 160h255q0 -11 69 -159.5t69 -164.5z" />
    <glyph glyph-name="iacute" unicode="&#xed;" horiz-adv-x="488" 
d="M420 970q0 -27 -20 -180q-27 -204 -39 -315q-22 -208 -37 -475l-255 -10q20 130 63 485q20 190 20 355q0 67 -4 111zM639 1410q0 -12 -147.5 -160t-147.5 -164h-174q0 16 102 164.5t102 159.5h265z" />
    <glyph glyph-name="icircumflex" unicode="&#xee;" horiz-adv-x="488" 
d="M420 970q0 -27 -20 -180q-27 -204 -39 -315q-22 -208 -37 -475l-255 -10q20 130 63 485q20 190 20 355q0 67 -4 111zM592 1086h-146q0 13 -140 168q-175 -155 -176 -168h-146q1 13 106 160.5t111 163.5h241q4 -16 77 -163.5t73 -160.5z" />
    <glyph glyph-name="idieresis" unicode="&#xef;" horiz-adv-x="488" 
d="M420 970q1 -27 -20 -180q-27 -204 -39 -315q-22 -208 -37 -475l-255 -10q20 130 63 485q20 190 20 355q0 67 -4 111zM616 1277q0 -66 -45 -112.5t-111 -46.5q-107 0 -107 110q0 66 46 111.5t112 45.5q105 0 105 -108zM287 1277q0 -66 -45.5 -112.5t-111.5 -46.5
q-105 0 -105 109q0 66 45.5 112t111.5 46q105 0 105 -108z" />
    <glyph glyph-name="eth" unicode="&#xf0;" horiz-adv-x="1114" 
d="M1016 1310q-40 -17 -156 -69q171 -237 171 -545q0 -276 -140.5 -505t-407.5 -229q-204 0 -311.5 129.5t-107.5 316.5q0 203 139.5 370t362.5 167q118 0 196 -64h15q-25 159 -93 258q-92 -48 -168 -102l-69 142q39 17 182 65q-56 74 -113 114l133 101q42 -20 132 -115
q73 46 167 111zM783 695q-86 61 -200 61q-124 0 -196.5 -113t-72.5 -237q0 -112 51.5 -188t146.5 -76q271 0 271 553z" />
    <glyph glyph-name="ntilde" unicode="&#xf1;" horiz-adv-x="1093" 
d="M997 684q0 -88 -27 -330t-27 -354l-258 -10q0 48 33 285.5t33 335.5q0 104 -30 144t-100 40q-87 0 -169 -119t-99 -290q-22 -215 -33 -386l-251 -10q70 518 70 700q0 105 -16 256l248 25q7 -85 7 -198h14q117 209 346 209q259 0 259 -298zM1020 1342q-130 -195 -267 -195
q-50 0 -113.5 24t-110.5 24q-86 0 -177 -107l-77 75q130 206 267 206q50 0 113.5 -22t110.5 -22q86 0 178 92z" />
    <glyph glyph-name="ograve" unicode="&#xf2;" horiz-adv-x="1095" 
d="M1032 548q0 -244 -155.5 -415.5t-399.5 -171.5q-170 0 -292 124.5t-122 329.5q0 243 156 411t401 168q171 0 291.5 -120.5t120.5 -325.5zM779 526q0 124 -53.5 203.5t-145.5 79.5q-118 0 -191.5 -119t-73.5 -262q0 -124 54 -203.5t147 -79.5q121 0 192 117.5t71 263.5z
M709 1086h-174q0 16 -108.5 164t-110.5 160h255q0 -11 69 -159.5t69 -164.5z" />
    <glyph glyph-name="oacute" unicode="&#xf3;" horiz-adv-x="1095" 
d="M1032 548q0 -244 -155.5 -415.5t-399.5 -171.5q-170 0 -292 124.5t-122 329.5q0 243 156 411t401 168q171 0 291.5 -120.5t120.5 -325.5zM779 526q0 124 -53.5 203.5t-145.5 79.5q-118 0 -191.5 -119t-73.5 -262q0 -124 54 -203.5t147 -79.5q121 0 192 117.5t71 263.5z
M996 1410q0 -12 -147.5 -160t-147.5 -164h-174q0 16 102 164.5t102 159.5h265z" />
    <glyph glyph-name="ocircumflex" unicode="&#xf4;" horiz-adv-x="1095" 
d="M1032 548q0 -244 -155.5 -415.5t-399.5 -171.5q-170 0 -292 124.5t-122 329.5q0 243 156 411t401 168q171 0 291.5 -120.5t120.5 -325.5zM779 526q0 124 -53.5 203.5t-145.5 79.5q-118 0 -191.5 -119t-73.5 -262q0 -124 54 -203.5t147 -79.5q121 0 192 117.5t71 263.5z
M921 1086h-146q0 13 -140 168q-175 -155 -176 -168h-146q1 13 106 160.5t111 163.5h241q4 -16 77 -163.5t73 -160.5z" />
    <glyph glyph-name="otilde" unicode="&#xf5;" horiz-adv-x="1095" 
d="M1032 548q0 -244 -155.5 -415.5t-399.5 -171.5q-170 0 -292 124.5t-122 329.5q0 243 156 411t401 168q171 0 291.5 -120.5t120.5 -325.5zM779 526q0 124 -53.5 203.5t-145.5 79.5q-118 0 -191.5 -119t-73.5 -262q0 -124 54 -203.5t147 -79.5q121 0 192 117.5t71 263.5z
M1010 1342q-130 -195 -267 -195q-50 0 -113.5 24t-110.5 24q-86 0 -177 -107l-77 75q130 206 267 206q50 0 113.5 -22t110.5 -22q86 0 178 92z" />
    <glyph glyph-name="odieresis" unicode="&#xf6;" horiz-adv-x="1095" 
d="M1032 548q0 -244 -155.5 -415.5t-399.5 -171.5q-170 0 -292 124.5t-122 329.5q0 243 156 411t401 168q171 0 291.5 -120.5t120.5 -325.5zM779 526q0 124 -53.5 203.5t-145.5 79.5q-118 0 -191.5 -119t-73.5 -262q0 -124 54 -203.5t147 -79.5q121 0 192 117.5t71 263.5z
M956 1277q0 -66 -45 -112.5t-111 -46.5q-107 0 -107 110q0 66 46 111.5t112 45.5q105 0 105 -108zM587 1277q0 -66 -45.5 -112.5t-111.5 -46.5q-105 0 -105 109q0 66 45.5 112t111.5 46q105 0 105 -108z" />
    <glyph glyph-name="divide" unicode="&#xf7;" 
d="M911 591l-20 -180h-769l20 180h769zM609 189q0 -66 -45 -112.5t-111 -46.5q-107 0 -107 110q0 66 46 111.5t112 45.5q105 0 105 -108zM685 859q0 -66 -45 -112.5t-111 -46.5q-107 0 -107 110q0 66 46 111.5t112 45.5q105 0 105 -108z" />
    <glyph glyph-name="oslash" unicode="&#xf8;" horiz-adv-x="1095" 
d="M1100 981q-4 -36 -129 -174q61 -102 61 -257q0 -244 -154 -416.5t-398 -172.5q-154 0 -262 84q-124 -131 -127 -159l-102 42q3 34 155 193q-79 108 -79 282q0 244 155 417.5t398 173.5q173 0 286 -106q89 100 92 130zM736 711q-56 98 -158 98q-125 0 -193.5 -121
t-68.5 -256q0 -67 17 -121zM780 497q0 69 -9 102q-134 -133 -390 -387q54 -67 137 -67q125 0 193.5 110.5t68.5 241.5z" />
    <glyph glyph-name="ugrave" unicode="&#xf9;" horiz-adv-x="1086" 
d="M1016 970q-70 -554 -70 -736q0 -105 16 -226l-246 -28q-6 81 -6 198h-14q-113 -209 -342 -209q-258 0 -258 298q0 88 26.5 329.5t26.5 353.5l260 20q0 -48 -34 -287t-34 -337q0 -105 28.5 -147t97.5 -42q87 0 169 118.5t99 289.5q28 278 28 385zM679 1086h-174
q0 16 -108.5 164t-110.5 160h255q0 -11 69 -159.5t69 -164.5z" />
    <glyph glyph-name="uacute" unicode="&#xfa;" horiz-adv-x="1086" 
d="M1016 970q-70 -554 -70 -736q0 -105 16 -226l-246 -28q-6 81 -6 198h-14q-113 -209 -342 -209q-258 0 -258 298q0 88 26.5 329.5t26.5 353.5l260 20q0 -48 -34 -287t-34 -337q0 -105 28.5 -147t97.5 -42q87 0 169 118.5t99 289.5q28 278 28 385zM956 1410
q0 -12 -147.5 -160t-147.5 -164h-174q0 16 102 164.5t102 159.5h265z" />
    <glyph glyph-name="ucircumflex" unicode="&#xfb;" horiz-adv-x="1086" 
d="M1016 970q-70 -554 -70 -736q0 -105 16 -226l-246 -28q-6 81 -6 198h-14q-113 -209 -342 -209q-258 0 -258 298q0 88 26.5 329.5t26.5 353.5l260 20q0 -48 -34 -287t-34 -337q0 -105 28.5 -147t97.5 -42q87 0 169 118.5t99 289.5q28 278 28 385zM896 1086h-146
q0 13 -140 168q-175 -155 -176 -168h-146q1 13 106 160.5t111 163.5h241q4 -16 77 -163.5t73 -160.5z" />
    <glyph glyph-name="udieresis" unicode="&#xfc;" horiz-adv-x="1086" 
d="M1016 970q-70 -554 -70 -736q0 -105 16 -226l-246 -28q-6 81 -6 198h-14q-113 -209 -342 -209q-258 0 -258 298q0 88 26.5 329.5t26.5 353.5l260 20q0 -48 -34 -287t-34 -337q0 -105 28.5 -147t97.5 -42q87 0 169 118.5t99 289.5q28 278 28 385zM926 1277
q0 -66 -45 -112.5t-111 -46.5q-107 0 -107 110q0 66 46 111.5t112 45.5q105 0 105 -108zM557 1277q0 -66 -45.5 -112.5t-111.5 -46.5q-105 0 -105 109q0 66 45.5 112t111.5 46q105 0 105 -108z" />
    <glyph glyph-name="yacute" unicode="&#xfd;" horiz-adv-x="965" 
d="M957 961q0 -141 -198.5 -512.5t-227.5 -454.5q-88 -248 -205 -342.5t-320 -94.5v193q126 0 217.5 80.5t91.5 203.5q0 136 -121.5 474t-121.5 442l288 11q0 -137 56.5 -384.5t56.5 -337.5h15q4 35 109 299.5t105 408.5zM906 1410q0 -12 -147.5 -160t-147.5 -164h-174
q0 16 102 164.5t102 159.5h265z" />
    <glyph glyph-name="thorn" unicode="&#xfe;" horiz-adv-x="1104" 
d="M1038 595q0 -259 -138.5 -441.5t-366.5 -182.5q-144 0 -209 68h-12q-26 -245 -43 -496h-260q39 263 144 1200q38 390 38 663l275 16q0 -34 -34 -295.5t-53 -353.5h12q113 209 341 209q148 0 227 -105.5t79 -281.5zM786 543q0 252 -163 252q-97 0 -181 -129.5t-100 -279.5
l-20 -186q73 -45 161 -45q152 0 227.5 115.5t75.5 272.5z" />
    <glyph glyph-name="ydieresis" unicode="&#xff;" horiz-adv-x="965" 
d="M957 961q0 -141 -198.5 -512.5t-227.5 -454.5q-88 -248 -205 -342.5t-320 -94.5v193q126 0 217.5 80.5t91.5 203.5q0 136 -121.5 474t-121.5 442l288 11q0 -137 56.5 -384.5t56.5 -337.5h15q4 35 109 299.5t105 408.5zM870 1277q0 -66 -45 -112.5t-111 -46.5
q-107 0 -107 110q0 66 46 111.5t112 45.5q105 0 105 -108zM501 1277q0 -66 -45.5 -112.5t-111.5 -46.5q-105 0 -105 109q0 66 45.5 112t111.5 46q105 0 105 -108z" />
    <glyph glyph-name="Amacron" unicode="&#x100;" horiz-adv-x="1216" 
d="M1145 0h-304q0 109 -48 374h-438q-36 -85 -62 -154q-64 -164 -67 -220h-286q3 37 289 640.5t292 661.5h358q0 -113 133 -647t133 -655zM765 565q-104 513 -104 558h-15q-4 -35 -227 -558h346zM979 1621l-30 -174h-478l28 174h480z" />
    <glyph glyph-name="amacron" unicode="&#x101;" horiz-adv-x="1031" 
d="M966 995q-80 -542 -80 -749q0 -105 17 -236l-246 -28q-6 83 -6 193h-15q-111 -203 -330 -203q-126 0 -190 94.5t-64 258.5q0 236 165 425.5t513 198.5l44 31zM710 791q-209 -2 -307 -122t-98 -324q0 -185 116 -185q90 0 165.5 131t95.5 250.5t28 249.5zM848 1335
l-31 -174h-460l30 174h461z" />
    <glyph glyph-name="Abreve" unicode="&#x102;" horiz-adv-x="1216" 
d="M1145 0h-304q0 109 -48 374h-438q-36 -85 -62 -154q-64 -164 -67 -220h-286q3 37 289 640.5t292 661.5h358q0 -113 133 -647t133 -655zM765 565q-104 513 -104 558h-15q-4 -35 -227 -558h346zM1033 1630q-116 -251 -337 -251q-234 0 -287 251l133 60q52 -147 170 -147
q114 0 202 147z" />
    <glyph glyph-name="abreve" unicode="&#x103;" horiz-adv-x="1031" 
d="M966 995q-80 -542 -80 -749q0 -105 17 -236l-246 -28q-6 83 -6 193h-15q-111 -203 -330 -203q-126 0 -190 94.5t-64 258.5q0 236 165 425.5t513 198.5l44 31zM710 791q-209 -2 -307 -122t-98 -324q0 -185 116 -185q90 0 165.5 131t95.5 250.5t28 249.5zM935 1398
q-120 -286 -341 -286q-233 0 -283 286l144 50q57 -172 156 -172q95 0 180 172z" />
    <glyph glyph-name="Aogonek" unicode="&#x104;" horiz-adv-x="1222" 
d="M1145 0q-290 -65 -290 -227q0 -102 112 -102q27 0 76 13l10 -150q-66 -20 -133 -20q-133 0 -191.5 54.5t-58.5 148.5q0 191 171 283q0 109 -48 374h-438q-36 -85 -81 -201.5t-48 -172.5h-286q3 37 289 640.5t292 661.5h358q0 -113 133 -647t133 -655zM765 565
q-104 513 -104 558h-15q-4 -35 -227 -558h346z" />
    <glyph glyph-name="aogonek" unicode="&#x105;" horiz-adv-x="1031" 
d="M966 995q-80 -542 -80 -749q0 -105 17 -236q-219 -81 -219 -232q0 -107 100 -107q30 0 76 10l11 -149q-61 -18 -134 -18q-126 0 -182 59t-56 157q0 144 158 252q-6 83 -6 193h-15q-111 -203 -330 -203q-126 0 -192 97q-62 92 -62 256q0 225 144 400q185 224 534 224
l44 31zM710 791q-212 0 -316 -134q-89 -115 -89 -312q0 -185 116 -185q90 0 170 136q74 126 100 296q11 69 19 199z" />
    <glyph glyph-name="Cacute" unicode="&#x106;" horiz-adv-x="1049" 
d="M1027 1292l-57 -231q-108 38 -211 38q-201 0 -315.5 -148t-114.5 -353q0 -170 96.5 -287t280.5 -117q118 0 263 43l-41 -230q-159 -34 -270 -34q-302 0 -452.5 174.5t-150.5 419.5q0 318 216 535.5t539 217.5q116 0 217 -28zM1097 1690q0 -12 -147.5 -135t-147.5 -139
h-174q0 16 97 139.5t97 134.5h275z" />
    <glyph glyph-name="cacute" unicode="&#x107;" horiz-adv-x="866" 
d="M840 960l-53 -203q-84 28 -192 28q-131 0 -205 -101.5t-74 -234.5q0 -279 212 -279q121 0 266 88l-32 -198q-122 -89 -296 -89q-206 0 -304.5 129.5t-98.5 320.5q0 231 158 394.5t414 163.5q117 0 205 -19zM950 1410q0 -12 -147.5 -160t-147.5 -164h-174q0 16 102 164.5
t102 159.5h265z" />
    <glyph glyph-name="Ccircumflex" unicode="&#x108;" horiz-adv-x="1049" 
d="M1027 1292l-57 -231q-108 38 -211 38q-201 0 -315.5 -148t-114.5 -353q0 -170 96.5 -287t280.5 -117q118 0 263 43l-41 -230q-159 -34 -270 -34q-302 0 -452.5 174.5t-150.5 419.5q0 318 216 535.5t539 217.5q116 0 217 -28zM1067 1416h-146q0 13 -140 128
q-175 -115 -176 -128h-146q1 13 106 135.5t111 138.5h241q4 -16 77 -138.5t73 -135.5z" />
    <glyph glyph-name="ccircumflex" unicode="&#x109;" horiz-adv-x="866" 
d="M840 960l-53 -203q-84 28 -192 28q-131 0 -205 -101.5t-74 -234.5q0 -279 212 -279q121 0 266 88l-32 -198q-122 -89 -296 -89q-206 0 -304.5 129.5t-98.5 320.5q0 231 158 394.5t414 163.5q117 0 205 -19zM827 1086h-146q0 13 -140 168q-175 -155 -176 -168h-146
q1 13 106 160.5t111 163.5h241q4 -16 77 -163.5t73 -160.5z" />
    <glyph glyph-name="Cdotaccent" unicode="&#x10a;" horiz-adv-x="1049" 
d="M1027 1292l-57 -231q-108 38 -211 38q-201 0 -315.5 -148t-114.5 -353q0 -170 96.5 -287t280.5 -117q118 0 263 43l-41 -230q-159 -34 -270 -34q-302 0 -452.5 174.5t-150.5 419.5q0 318 216 535.5t539 217.5q116 0 217 -28zM945 1570q0 -78 -54 -133.5t-133 -55.5
q-61 0 -94 37.5t-33 93.5q0 79 54 133t133 54q127 0 127 -129z" />
    <glyph glyph-name="cdotaccent" unicode="&#x10b;" horiz-adv-x="866" 
d="M840 960l-53 -203q-84 28 -192 28q-131 0 -205 -101.5t-74 -234.5q0 -279 212 -279q121 0 266 88l-32 -198q-122 -89 -296 -89q-206 0 -304.5 129.5t-98.5 320.5q0 231 158 394.5t414 163.5q117 0 205 -19zM778 1271q0 -78 -54 -133.5t-133 -55.5q-61 0 -94 37.5
t-33 93.5q0 79 54 133t133 54q127 0 127 -129z" />
    <glyph glyph-name="Ccaron" unicode="&#x10c;" horiz-adv-x="1049" 
d="M1027 1292l-57 -231q-108 38 -211 38q-201 0 -315.5 -148t-114.5 -353q0 -170 96.5 -287t280.5 -117q118 0 263 43l-41 -230q-159 -34 -270 -34q-302 0 -452.5 174.5t-150.5 419.5q0 318 216 535.5t539 217.5q116 0 217 -28zM1090 1690q-1 -13 -106 -135.5t-111 -138.5
h-241q-4 16 -77 138.5t-73 135.5h146q0 -13 140 -128q175 115 176 128h146z" />
    <glyph glyph-name="ccaron" unicode="&#x10d;" horiz-adv-x="866" 
d="M840 960l-53 -203q-84 28 -192 28q-131 0 -205 -101.5t-74 -234.5q0 -279 212 -279q121 0 266 88l-32 -198q-122 -89 -296 -89q-206 0 -304.5 129.5t-98.5 320.5q0 231 158 394.5t414 163.5q117 0 205 -19zM911 1410q-1 -13 -106 -160.5t-111 -163.5h-241
q-4 16 -77 163.5t-73 160.5h146q0 -13 140 -168q175 155 176 168h146z" />
    <glyph glyph-name="Dcaron" unicode="&#x10e;" horiz-adv-x="1261" 
d="M1206 750q0 -314 -205 -538t-522 -224q-150 0 -394 12q20 137 83 681q38 364 43 621h176q41 0 121.5 3t124.5 3q286 0 429.5 -158.5t143.5 -399.5zM943 719q0 171 -94.5 280t-286.5 109q-48 0 -117 -9q-6 -92 -37 -418q-25 -239 -42 -474q61 -13 127 -13
q211 0 330.5 155.5t119.5 369.5zM1007 1690q-1 -13 -106 -135.5t-111 -138.5h-241q-4 16 -77 138.5t-73 135.5h146q0 -13 140 -128q175 115 176 128h146z" />
    <glyph glyph-name="dcaron" unicode="&#x10f;" horiz-adv-x="1304" 
d="M1094 1414q0 -26 -34 -216t-60 -449.5t-26 -488.5q0 -135 8 -259l-231 -12q-12 83 -12 195l-13 -1q-120 -209 -348 -209q-148 0 -227.5 105.5t-79.5 281.5q0 259 138.5 441.5t366.5 182.5q135 0 209 -66h14q19 210 32 486zM786 757q-71 45 -159 45q-152 0 -227 -115.5
t-75 -273.5q0 -251 162 -251q97 0 180 128.5t99 279.5zM1405 1197q0 -213 -232 -371l-65 65q66 81 83 189q-60 32 -60 92q0 67 48.5 111.5t112.5 44.5q56 0 84.5 -33.5t28.5 -97.5z" />
    <glyph glyph-name="Dcroat" unicode="&#x110;" horiz-adv-x="1279" 
d="M1224 759q0 -315 -202 -538q-210 -233 -526 -233q-150 0 -394 12q21 149 74 582q-54 -4 -140 -14l26 179q77 -1 131 -1q25 249 46 556h165q41 0 123.5 3t123.5 3q290 0 441 -169q132 -146 132 -380zM960 716q0 169 -90 273q-102 119 -297 119q-48 0 -110 -8
q-4 -74 -29 -347q94 5 315 26l-27 -176q-149 0 -304 -7q-20 -202 -33 -389q60 -13 126 -13q209 0 334 162q115 147 115 360z" />
    <glyph glyph-name="dcroat" unicode="&#x111;" horiz-adv-x="1112" 
d="M1189 1238l-23 -142h-123l-25 -167q-44 -440 -44 -669q0 -135 8 -258l-231 -13q-12 83 -12 194h-14q-119 -209 -347 -209q-148 0 -227.5 105.5t-79.5 266.5q0 244 133.5 426.5t361.5 182.5q135 0 219 -66h14q5 81 13 207h-231l20 142h221q4 79 7 162l265 14
q0 -23 -27 -176h122zM786 727q-81 45 -169 45q-152 0 -222 -115.5t-70 -258.5q0 -236 162 -236q97 0 180 128.5t99 279.5zM0 985z" />
    <glyph glyph-name="Emacron" unicode="&#x112;" horiz-adv-x="1031" 
d="M989 1302l-31 -219q-281 16 -513 16q-7 -107 -26 -328q198 0 425 11l-23 -209q-219 10 -422 10q-21 -203 -34 -380q260 0 558 17l-32 -220h-808q21 137 84 681q38 364 43 621h779zM876 1621l-30 -174h-478l28 174h480z" />
    <glyph glyph-name="emacron" unicode="&#x113;" horiz-adv-x="986" 
d="M949 743q0 -298 -641 -310q0 -132 49 -197.5t171 -65.5q160 0 343 103l-31 -198q-149 -104 -378 -104q-204 0 -301.5 122.5t-97.5 324.5q0 261 163.5 418.5t387.5 157.5q155 0 243 -64q92 -66 92 -187zM726 723q0 97 -149 97q-85 0 -161 -62.5t-99 -179.5q409 8 409 145z
M860 1335l-31 -174h-460l30 174h461z" />
    <glyph glyph-name="Ebreve" unicode="&#x114;" horiz-adv-x="1031" 
d="M989 1302l-31 -219q-281 16 -513 16q-7 -107 -26 -328q198 0 425 11l-23 -209q-219 10 -422 10q-21 -203 -34 -380q260 0 558 17l-32 -220h-808q21 137 84 681q38 364 43 621h779zM959 1630q-116 -251 -337 -251q-234 0 -287 251l133 60q52 -147 170 -147q114 0 202 147z
" />
    <glyph glyph-name="ebreve" unicode="&#x115;" horiz-adv-x="986" 
d="M949 743q0 -298 -641 -310q0 -132 49 -197.5t171 -65.5q160 0 343 103l-31 -198q-149 -104 -378 -104q-204 0 -301.5 122.5t-97.5 324.5q0 261 163.5 418.5t387.5 157.5q155 0 243 -64q92 -66 92 -187zM726 723q0 97 -149 97q-85 0 -161 -62.5t-99 -179.5q409 8 409 145z
M937 1398q-120 -286 -341 -286q-233 0 -283 286l144 50q57 -172 156 -172q95 0 180 172z" />
    <glyph glyph-name="Edotaccent" unicode="&#x116;" horiz-adv-x="1031" 
d="M989 1302l-31 -219q-281 16 -513 16q-7 -107 -26 -328q198 0 425 11l-23 -209q-219 10 -422 10q-21 -203 -34 -380q260 0 558 17l-32 -220h-808q21 137 84 681q38 364 43 621h779zM794 1570q0 -78 -54 -133.5t-133 -55.5q-61 0 -94 37.5t-33 93.5q0 79 54 133t133 54
q127 0 127 -129z" />
    <glyph glyph-name="edotaccent" unicode="&#x117;" horiz-adv-x="986" 
d="M949 743q0 -298 -641 -310q0 -132 49 -197.5t171 -65.5q160 0 343 103l-31 -198q-149 -104 -378 -104q-204 0 -301.5 122.5t-97.5 324.5q0 261 163.5 418.5t387.5 157.5q155 0 243 -64q92 -66 92 -187zM726 723q0 97 -149 97q-85 0 -161 -62.5t-99 -179.5q409 8 409 145z
M769 1271q0 -78 -54 -133.5t-133 -55.5q-61 0 -94 37.5t-33 93.5q0 79 54 133t133 54q127 0 127 -129z" />
    <glyph glyph-name="Eogonek" unicode="&#x118;" horiz-adv-x="1031" 
d="M989 1302l-31 -219q-281 16 -513 16q-7 -107 -26 -328q198 0 426 11l-24 -209q-219 10 -422 10q-21 -203 -34 -380q260 0 558 17l-32 -220q-250 -65 -250 -227q0 -102 102 -102q27 0 76 13l10 -150q-66 -20 -133 -20q-113 0 -176.5 54.5t-63.5 148.5q0 191 181 273v10
h-554q21 137 84 681q38 364 43 621h779z" />
    <glyph glyph-name="eogonek" unicode="&#x119;" horiz-adv-x="986" 
d="M949 743q0 -298 -641 -310q0 -125 46.5 -194t173.5 -69q160 0 343 103l-31 -198q-295 -146 -295 -302q0 -102 113 -102q27 0 66 13l10 -150q-66 -20 -133 -20q-134 0 -187.5 54.5t-53.5 148.5q0 167 158 251l1 12q-34 -9 -57 -9q-211 0 -305 126.5t-94 320.5
q0 261 163.5 418.5t387.5 157.5q155 0 243 -64q92 -66 92 -187zM726 723q0 97 -149 97q-85 0 -161 -62.5t-99 -179.5q409 8 409 145z" />
    <glyph glyph-name="Ecaron" unicode="&#x11a;" horiz-adv-x="1031" 
d="M989 1302l-31 -219q-281 16 -513 16q-7 -107 -26 -328q198 0 425 11l-23 -209q-219 10 -422 10q-21 -203 -34 -380q260 0 558 17l-32 -220h-808q21 137 84 681q38 364 43 621h779zM952 1690q-1 -13 -106 -135.5t-111 -138.5h-241q-4 16 -77 138.5t-73 135.5h146
q0 -13 140 -128q175 115 176 128h146z" />
    <glyph glyph-name="ecaron" unicode="&#x11b;" horiz-adv-x="986" 
d="M949 743q0 -298 -641 -310q0 -132 49 -197.5t171 -65.5q160 0 343 103l-31 -198q-149 -104 -378 -104q-204 0 -301.5 122.5t-97.5 324.5q0 261 163.5 418.5t387.5 157.5q155 0 243 -64q92 -66 92 -187zM726 723q0 97 -149 97q-85 0 -161 -62.5t-99 -179.5q409 8 409 145z
M905 1410q-1 -13 -106 -160.5t-111 -163.5h-241q-4 16 -77 163.5t-73 160.5h146q0 -13 140 -168q175 155 176 168h146z" />
    <glyph glyph-name="Gcircumflex" unicode="&#x11c;" horiz-adv-x="1205" 
d="M1105 648q-11 -71 -40 -310q-12 -113 -15 -304q-241 -61 -393 -61q-298 0 -450 171t-152 418q0 324 222 541t550 217q153 0 267 -29l-56 -236q-144 41 -263 41q-208 0 -328.5 -147t-120.5 -362q0 -173 95.5 -292.5t273.5 -119.5q54 0 128 12q-1 18 -1 68q0 47 7.5 177
t7.5 216h268zM1092 1416h-146q0 13 -140 128q-175 -115 -176 -128h-146q1 13 106 135.5t111 138.5h241q4 -16 77 -138.5t73 -135.5z" />
    <glyph glyph-name="gcircumflex" unicode="&#x11d;" horiz-adv-x="1077" 
d="M1110 1088l-40 -186q-148 0 -189 -45l-1 -13q45 -71 45 -150q0 -172 -128.5 -267.5t-312.5 -95.5q-97 0 -156 16q-49 -41 -49 -90q0 -50 43 -66.5t331 -16.5q305 0 305 -228q0 -210 -177 -336.5t-425 -126.5q-195 0 -291.5 63.5t-96.5 190.5q0 174 192 272l1 15
q-64 40 -64 132q0 111 129 214l1 14q-55 30 -95 94.5t-40 142.5q0 180 137 270.5t329 90.5q142 0 241 -68h12q49 197 194 197q61 0 105 -23zM717 -133q0 58 -43 81.5t-195 23.5q-99 0 -186 10q-108 -65 -108 -186q0 -166 191 -166q147 0 244 58.5t97 178.5zM690 675
q0 78 -49.5 118.5t-111.5 40.5q-80 0 -137 -56t-57 -148q0 -77 49.5 -116.5t112.5 -39.5q79 0 136 55t57 146zM843 1086h-146q0 13 -140 168q-175 -155 -176 -168h-146q1 13 106 160.5t111 163.5h241q4 -16 77 -163.5t73 -160.5z" />
    <glyph glyph-name="Gbreve" unicode="&#x11e;" horiz-adv-x="1205" 
d="M1105 648q-11 -71 -40 -310q-12 -113 -15 -304q-241 -61 -393 -61q-298 0 -450 171t-152 418q0 324 222 541t550 217q153 0 267 -29l-56 -236q-144 41 -263 41q-208 0 -328.5 -147t-120.5 -362q0 -173 95.5 -292.5t273.5 -119.5q54 0 128 12q-1 18 -1 68q0 47 7.5 177
t7.5 216h268zM1100 1630q-116 -251 -337 -251q-234 0 -287 251l133 60q52 -147 170 -147q114 0 202 147z" />
    <glyph glyph-name="gbreve" unicode="&#x11f;" horiz-adv-x="1077" 
d="M1110 1088l-40 -186q-148 0 -189 -45l-1 -13q45 -71 45 -150q0 -172 -128.5 -267.5t-312.5 -95.5q-97 0 -156 16q-49 -41 -49 -90q0 -50 43 -66.5t331 -16.5q305 0 305 -228q0 -210 -177 -336.5t-425 -126.5q-195 0 -291.5 63.5t-96.5 190.5q0 174 192 272l1 15
q-64 40 -64 132q0 111 129 214l1 14q-55 30 -95 94.5t-40 142.5q0 180 137 270.5t329 90.5q142 0 241 -68h12q49 197 194 197q61 0 105 -23zM717 -133q0 58 -43 81.5t-195 23.5q-99 0 -186 10q-108 -65 -108 -186q0 -166 191 -166q147 0 244 58.5t97 178.5zM690 675
q0 78 -49.5 118.5t-111.5 40.5q-80 0 -137 -56t-57 -148q0 -77 49.5 -116.5t112.5 -39.5q79 0 136 55t57 146zM900 1398q-120 -286 -341 -286q-233 0 -283 286l144 50q57 -172 156 -172q95 0 180 172z" />
    <glyph glyph-name="Gdotaccent" unicode="&#x120;" horiz-adv-x="1205" 
d="M1105 648q-11 -71 -40 -310q-12 -113 -15 -304q-241 -61 -393 -61q-298 0 -450 171t-152 418q0 324 222 541t550 217q153 0 267 -29l-56 -236q-144 41 -263 41q-208 0 -328.5 -147t-120.5 -362q0 -173 95.5 -292.5t273.5 -119.5q54 0 128 12q-1 18 -1 68q0 47 7.5 177
t7.5 216h268zM962 1570q0 -78 -54 -133.5t-133 -55.5q-61 0 -94 37.5t-33 93.5q0 79 54 133t133 54q127 0 127 -129z" />
    <glyph glyph-name="gdotaccent" unicode="&#x121;" horiz-adv-x="1077" 
d="M1110 1088l-40 -186q-148 0 -189 -45l-1 -13q45 -71 45 -150q0 -172 -128.5 -267.5t-312.5 -95.5q-97 0 -156 16q-49 -41 -49 -90q0 -50 43 -66.5t331 -16.5q305 0 305 -228q0 -210 -177 -336.5t-425 -126.5q-195 0 -291.5 63.5t-96.5 190.5q0 174 192 272l1 15
q-64 40 -64 132q0 111 129 214l1 14q-55 30 -95 94.5t-40 142.5q0 180 137 270.5t329 90.5q142 0 241 -68h12q49 197 194 197q61 0 105 -23zM717 -133q0 58 -43 81.5t-195 23.5q-99 0 -186 10q-108 -65 -108 -186q0 -166 191 -166q147 0 244 58.5t97 178.5zM690 675
q0 78 -49.5 118.5t-111.5 40.5q-80 0 -137 -56t-57 -148q0 -77 49.5 -116.5t112.5 -39.5q79 0 136 55t57 146zM735 1271q0 -78 -54 -133.5t-133 -55.5q-61 0 -94 37.5t-33 93.5q0 79 54 133t133 54q127 0 127 -129z" />
    <glyph glyph-name="uni0122" unicode="&#x122;" horiz-adv-x="1205" 
d="M1105 648q-11 -71 -40 -310q-12 -113 -15 -304q-241 -61 -393 -61q-298 0 -450 171t-152 418q0 324 222 541t550 217q153 0 267 -29l-56 -236q-144 41 -263 41q-208 0 -328.5 -147t-120.5 -362q0 -173 95.5 -292.5t273.5 -119.5q54 0 128 12q-1 18 -1 68q0 47 7.5 177
t7.5 216h268zM758 -216q0 -152 -223 -308l-64 64q78 65 87 146q-56 38 -56 102q0 61 42 100.5t104 39.5q52 0 81 -38t29 -106z" />
    <glyph glyph-name="uni0123" unicode="&#x123;" horiz-adv-x="1077" 
d="M1110 1088l-40 -186q-148 0 -189 -45l-1 -13q45 -71 45 -150q0 -172 -128.5 -267.5t-312.5 -95.5q-97 0 -156 16q-49 -41 -49 -90q0 -50 43 -66.5t331 -16.5q305 0 305 -228q0 -210 -177 -336.5t-425 -126.5q-195 0 -291.5 63.5t-96.5 190.5q0 174 192 272l1 15
q-64 40 -64 132q0 111 129 214l1 14q-55 30 -95 94.5t-40 142.5q0 180 137 270.5t329 90.5q142 0 241 -68h12q49 197 194 197q61 0 105 -23zM717 -133q0 58 -43 81.5t-195 23.5q-99 0 -186 10q-108 -65 -108 -186q0 -166 191 -166q147 0 244 58.5t97 178.5zM690 675
q0 78 -49.5 118.5t-111.5 40.5q-80 0 -137 -56t-57 -148q0 -77 49.5 -116.5t112.5 -39.5q79 0 136 55t57 146zM724 1235q0 -62 -44 -107.5t-106 -45.5q-70 0 -101 46t-31 105q0 222 231 351l65 -65q-51 -56 -73 -159q59 -39 59 -125z" />
    <glyph glyph-name="Hcircumflex" unicode="&#x124;" horiz-adv-x="1299" 
d="M1217 1302q-19 -113 -79 -621q-40 -383 -49 -681h-278q21 156 70 574h-478q-23 -218 -41 -574h-279q22 151 84 681q37 355 43 621h279q-20 -131 -67 -520h484q24 227 31 520h280zM1034 1416h-146q0 13 -140 128q-175 -115 -176 -128h-146q1 13 106 135.5t111 138.5h241
q4 -16 77 -138.5t73 -135.5z" />
    <glyph glyph-name="hcircumflex" unicode="&#x125;" horiz-adv-x="1095" 
d="M999 684q0 -88 -27 -330t-27 -354l-258 -10q0 48 33 285.5t33 335.5q0 104 -30 144t-100 40q-87 0 -169 -119t-99 -290q-22 -215 -33 -386l-253 -10q18 131 87 753q40 381 40 663l275 16q0 -44 -37.5 -305.5t-53.5 -343.5h14q117 209 346 209q259 0 259 -298zM642 1416
h-146q0 13 -140 128q-175 -115 -176 -128h-146q1 13 106 135.5t111 138.5h241q4 -16 77 -138.5t73 -135.5z" />
    <glyph glyph-name="Hbar" unicode="&#x126;" horiz-adv-x="1299" 
d="M1275 1084l-26 -148h-81q-13 -111 -30 -255q-40 -383 -49 -681h-278q21 156 70 574h-478q-23 -218 -41 -574h-279q22 151 84 681q14 134 23 255h-90l26 148h75q6 116 9 218h279q-11 -71 -30 -218h470q5 104 8 218h280q-10 -58 -31 -218h89zM920 936h-480q-8 -71 -18 -154
h484q8 73 14 154z" />
    <glyph glyph-name="hbar" unicode="&#x127;" horiz-adv-x="1095" 
d="M999 654q0 -88 -25.5 -315t-25.5 -339l-258 -10q0 48 33 285.5t30 305.5q0 104 -30 144t-100 40q-87 0 -169 -104t-99 -275q-22 -215 -33 -386l-253 -10q18 131 87 753q14 139 28 353h-109l20 142h97q4 88 4 168l275 16q0 -39 -24 -184h236l-23 -142h-233
q-17 -131 -23 -178q-8 -63 -27 -175h14q120 209 349 209q259 0 259 -298z" />
    <glyph glyph-name="Itilde" unicode="&#x128;" horiz-adv-x="574" 
d="M491 1302q-18 -112 -78 -621q-37 -348 -49 -681h-280q22 141 86 681q38 365 41 621h280zM761 1612q-130 -185 -267 -185q-50 0 -113.5 24t-110.5 24q-86 0 -177 -67l-77 75q130 186 267 186q50 0 113.5 -22t110.5 -22q86 0 178 62z" />
    <glyph glyph-name="itilde" unicode="&#x129;" horiz-adv-x="488" 
d="M648 1355q-130 -226 -258 -226q-43 0 -89 18t-84 18q-77 0 -160 -97l-75 75q129 226 257 226q47 0 91.5 -18t81.5 -18q77 0 160 97zM420 970q0 -27 -20 -180q-27 -204 -39 -315q-22 -208 -37 -475l-255 -10q20 130 63 485q20 190 20 355q0 67 -4 111z" />
    <glyph glyph-name="Imacron" unicode="&#x12a;" horiz-adv-x="574" 
d="M491 1302q-18 -112 -78 -621q-37 -348 -49 -681h-280q22 141 86 681q38 365 41 621h280zM634 1621l-30 -174h-478l28 174h480z" />
    <glyph glyph-name="imacron" unicode="&#x12b;" horiz-adv-x="488" 
d="M420 970q0 -27 -20 -180q-27 -204 -39 -315q-22 -208 -37 -475l-255 -10q20 130 63 485q20 190 20 355q0 67 -4 111zM573 1335l-31 -174h-460l30 174h461z" />
    <glyph glyph-name="Ibreve" unicode="&#x12c;" horiz-adv-x="574" 
d="M491 1302q-18 -112 -78 -621q-37 -348 -49 -681h-280q22 141 86 681q38 365 41 621h280zM694 1630q-116 -251 -337 -251q-234 0 -287 251l133 60q52 -147 170 -147q114 0 202 147z" />
    <glyph glyph-name="ibreve" unicode="&#x12d;" horiz-adv-x="488" 
d="M420 970q0 -27 -20 -180q-27 -204 -39 -315q-22 -208 -37 -475l-255 -10q20 130 63 485q20 190 20 355q0 67 -4 111zM626 1398q-120 -286 -341 -286q-233 0 -283 286l144 50q57 -172 156 -172q95 0 180 172z" />
    <glyph glyph-name="Iogonek" unicode="&#x12e;" horiz-adv-x="574" 
d="M491 1302q-18 -112 -78 -621q-37 -348 -49 -681q-266 -65 -266 -217q0 -112 98 -112q27 0 76 13l10 -150q-66 -20 -133 -20q-129 0 -182.5 54.5t-53.5 148.5q0 172 171 283q22 141 86 681q38 365 41 621h280z" />
    <glyph glyph-name="iogonek" unicode="&#x12f;" horiz-adv-x="488" 
d="M420 970q1 -27 -23 -205.5t-36 -289.5q-22 -208 -37 -465q-219 -81 -219 -232q0 -107 100 -107q30 0 76 10l11 -149q-61 -18 -134 -18q-126 0 -182 59t-56 157q0 144 149 260q20 130 63 485q20 190 20 355q0 67 -4 111zM497 1271q0 -78 -54 -133.5t-133 -55.5
q-61 0 -94 37.5t-33 93.5q0 79 54 133t133 54q127 0 127 -129z" />
    <glyph glyph-name="Idotaccent" unicode="&#x130;" horiz-adv-x="574" 
d="M491 1302q-18 -112 -78 -621q-37 -348 -49 -681h-280q22 141 86 681q38 365 41 621h280zM547 1570q0 -78 -54 -133.5t-133 -55.5q-61 0 -94 37.5t-33 93.5q0 79 54 133t133 54q127 0 127 -129z" />
    <glyph glyph-name="dotlessi" unicode="&#x131;" horiz-adv-x="488" 
d="M420 970q0 -27 -20 -180q-27 -204 -39 -315q-22 -208 -37 -475l-255 -10q20 130 63 485q20 190 20 355q0 67 -4 111z" />
    <glyph glyph-name="IJ" unicode="&#x132;" horiz-adv-x="1359" 
d="M491 1302q-18 -112 -78 -621q-37 -348 -49 -681h-280q22 141 86 681q38 365 41 621h280zM1300 1302q-20 -132 -90 -736q-35 -333 -179 -473q-123 -120 -355 -120q-84 0 -164 21l39 215q60 -30 124 -30q125 0 187 57q90 82 114 310q48 457 55 756h269z" />
    <glyph glyph-name="ij" unicode="&#x133;" horiz-adv-x="976" 
d="M420 970q1 -27 -23 -205.5t-36 -289.5q-22 -208 -37 -475l-255 -10q20 130 63 485q20 190 20 355q0 67 -4 111zM497 1271q0 -78 -54 -133.5t-133 -55.5q-61 0 -94 37.5t-33 93.5q0 79 54 133t133 54q127 0 127 -129zM912 971q0 -25 -33 -285t-50 -464t-22 -250
q-39 -369 -327 -428l-53 140q73 57 108.5 167t71.5 454.5t36 553.5q0 54 -3 84zM985 1271q0 -78 -54.5 -133.5t-133.5 -55.5q-61 0 -94 37.5t-33 93.5q0 79 55 133t134 54q126 0 126 -129z" />
    <glyph glyph-name="Jcircumflex" unicode="&#x134;" horiz-adv-x="817" 
d="M758 1302q-20 -132 -90 -736q-35 -333 -179 -473q-123 -120 -355 -120q-84 0 -164 21l39 215q60 -30 124 -30q125 0 187 57q90 82 114 310q48 457 55 756h269zM936 1416h-146q0 13 -140 128q-175 -115 -176 -128h-146q1 13 106 135.5t111 138.5h241q4 -16 77 -138.5
t73 -135.5z" />
    <glyph glyph-name="jcircumflex" unicode="&#x135;" horiz-adv-x="488" 
d="M424 971q0 -25 -27 -228.5t-50 -464t-28 -306.5q-39 -369 -327 -428l-53 140q73 57 108.5 167t71.5 454.5t36 553.5q0 54 -3 84zM594 1086h-146q0 13 -140 168q-175 -155 -176 -168h-146q1 13 106 160.5t111 163.5h241q4 -16 77 -163.5t73 -160.5z" />
    <glyph glyph-name="uni0136" unicode="&#x136;" horiz-adv-x="1180" 
d="M1158 1302q0 -32 -202.5 -252.5t-293.5 -283.5l-2 -15q86 -47 260.5 -367t174.5 -384h-301q0 59 -138.5 332.5t-208.5 273.5h-42q-24 -228 -44 -606h-277q20 137 83 681q38 364 43 621h279q-19 -129 -65 -520h21q42 0 229 243.5t187 276.5h297zM703 -216
q0 -152 -223 -308l-64 64q78 65 87 146q-56 38 -56 102q0 61 42 100.5t104 39.5q52 0 81 -38t29 -106z" />
    <glyph glyph-name="uni0137" unicode="&#x137;" horiz-adv-x="1017" 
d="M1010 949q0 -36 -120 -177.5t-204 -205.5l-1 -13q105 -121 183.5 -304.5t78.5 -248.5l-273 -10q0 46 -49.5 177t-115.5 220q-51 -55 -89 -114q-90 -140 -99 -273l-252 -10q20 131 91 753q39 371 39 663l272 16q0 -43 -29.5 -248.5t-92.5 -764.5l15 1q34 76 210 301
q155 198 155 249zM615 -216q0 -152 -223 -308l-64 64q78 65 87 146q-56 38 -56 102q0 61 42 100.5t104 39.5q52 0 81 -38t29 -106z" />
    <glyph glyph-name="kgreenlandic" unicode="&#x138;" horiz-adv-x="1017" 
d="M1010 949q0 -36 -120 -177.5t-204 -205.5l-1 -13q105 -121 183.5 -304.5t78.5 -248.5l-273 -10q0 46 -49.5 177t-115.5 220q-51 -55 -89 -114q-90 -140 -99 -273l-252 -10q16 94 41 299q41 390 41 661l281 15q0 -43 -29.5 -248.5t-53.5 -306.5h15q34 76 199 287.5
t168 266.5z" />
    <glyph glyph-name="Lacute" unicode="&#x139;" horiz-adv-x="961" 
d="M905 218l-32 -218h-789q19 120 84 681q40 376 43 621h277q-17 -98 -78 -621q-32 -301 -58 -478q237 0 553 15zM712 1690q0 -12 -147.5 -135t-147.5 -139h-174q0 16 97 139.5t97 134.5h275z" />
    <glyph glyph-name="lacute" unicode="&#x13a;" horiz-adv-x="519" 
d="M473 1422q0 -51 -30 -262.5t-52 -416.5q-49 -463 -63 -740l-259 -15q0 17 32.5 257.5t59.5 497.5q41 390 41 663zM684 1790q0 -12 -147.5 -135t-147.5 -139h-174q0 16 97 139.5t97 134.5h275z" />
    <glyph glyph-name="uni013B" unicode="&#x13b;" horiz-adv-x="961" 
d="M905 218l-32 -218h-789q19 120 84 681q40 376 43 621h277q-17 -98 -78 -621q-32 -301 -58 -478q237 0 553 15zM644 -216q0 -152 -223 -308l-64 64q78 65 87 146q-56 38 -56 102q0 61 42 100.5t104 39.5q52 0 81 -38t29 -106z" />
    <glyph glyph-name="uni013C" unicode="&#x13c;" horiz-adv-x="519" 
d="M473 1422q0 -51 -30 -262.5t-52 -416.5q-49 -463 -63 -740l-259 -15q0 17 32.5 257.5t59.5 497.5q41 390 41 663zM308 -216q0 -152 -223 -308l-64 64q78 65 87 146q-56 38 -56 102q0 61 42 100.5t104 39.5q52 0 81 -38t29 -106z" />
    <glyph glyph-name="Lcaron" unicode="&#x13d;" horiz-adv-x="961" 
d="M905 218l-32 -218h-789q19 120 84 681q40 376 43 621h277q-17 -98 -78 -621q-32 -301 -58 -478q237 0 553 15zM1037 1197q0 -213 -232 -371l-65 65q66 81 83 189q-60 32 -60 92q0 67 48.5 111.5t112.5 44.5q56 0 84.5 -33.5t28.5 -97.5z" />
    <glyph glyph-name="lcaron" unicode="&#x13e;" horiz-adv-x="684" 
d="M473 1422q0 -51 -30 -262.5t-52 -416.5q-49 -463 -63 -740l-259 -15q0 17 32.5 257.5t59.5 497.5q41 390 41 663zM785 1197q0 -213 -232 -371l-65 65q66 81 83 189q-60 32 -60 92q0 67 48.5 111.5t112.5 44.5q56 0 84.5 -33.5t28.5 -97.5z" />
    <glyph glyph-name="Ldot" unicode="&#x13f;" horiz-adv-x="961" 
d="M905 218l-32 -218h-789q19 120 84 681q40 376 43 621h277q-17 -98 -78 -621q-32 -301 -58 -478q237 0 553 15zM928 732q0 -78 -54 -133.5t-133 -55.5q-61 0 -94 37.5t-33 93.5q0 79 54 133t133 54q127 0 127 -129z" />
    <glyph glyph-name="ldot" unicode="&#x140;" horiz-adv-x="704" 
d="M473 1422q0 -51 -30 -262.5t-52 -416.5q-49 -463 -63 -740l-259 -15q0 17 32.5 257.5t59.5 497.5q41 390 41 663zM768 633q0 -78 -54 -133.5t-133 -55.5q-61 0 -94 37.5t-33 93.5q0 79 54 133t133 54q127 0 127 -129z" />
    <glyph glyph-name="Lslash" unicode="&#x141;" horiz-adv-x="961" 
d="M905 218l-31 -218h-789q29 203 61 465l-99 -72l-66 128l182 114l5 46q39 376 44 621h277q-30 -191 -65 -499l354 242l86 -136l-455 -273q-31 -264 -60 -433q262 0 556 15z" />
    <glyph glyph-name="lslash" unicode="&#x142;" horiz-adv-x="581" 
d="M681 941l-271 -198q-40 -383 -64 -743l-260 -10q20 147 71 560l-143 -120l-71 78l232 186q44 419 44 712l277 16q0 -55 -26 -218.5t-42 -299.5l164 140z" />
    <glyph glyph-name="Nacute" unicode="&#x143;" horiz-adv-x="1323" 
d="M1239 1302q-18 -110 -78 -621q-40 -376 -59 -681h-234q0 48 -225 460q-234 429 -259 569h-15q11 -76 11 -153q0 -117 -18 -285q-26 -246 -45 -591h-233q21 141 84 681q38 365 42 621h292q0 -66 202 -454q213 -408 236 -533h14q-12 58 -12 123q0 138 19 319q30 289 34 545
h244zM1119 1690q0 -12 -147.5 -135t-147.5 -139h-174q0 16 97 139.5t97 134.5h275z" />
    <glyph glyph-name="nacute" unicode="&#x144;" horiz-adv-x="1093" 
d="M997 684q0 -88 -27 -330t-27 -354l-258 -10q0 48 33 285.5t33 335.5q0 104 -30 144t-100 40q-87 0 -169 -119t-99 -290q-22 -215 -33 -386l-251 -10q70 518 70 700q0 105 -16 256l248 25q7 -85 7 -198h14q117 209 346 209q259 0 259 -298zM982 1410q0 -12 -147.5 -160
t-147.5 -164h-174q0 16 102 164.5t102 159.5h265z" />
    <glyph glyph-name="uni0145" unicode="&#x145;" horiz-adv-x="1323" 
d="M1239 1302q-18 -110 -78 -621q-40 -376 -59 -681h-234q0 48 -225 460q-234 429 -259 569h-15q11 -76 11 -153q0 -117 -18 -285q-26 -246 -45 -591h-233q21 141 84 681q38 365 42 621h292q0 -66 202 -454q213 -408 236 -533h14q-12 58 -12 123q0 138 19 319q30 289 34 545
h244zM729 -216q0 -152 -223 -308l-64 64q78 65 87 146q-56 38 -56 102q0 61 42 100.5t104 39.5q52 0 81 -38t29 -106z" />
    <glyph glyph-name="uni0146" unicode="&#x146;" horiz-adv-x="1093" 
d="M997 684q0 -88 -27 -330t-27 -354l-258 -10q0 48 33 285.5t33 335.5q0 104 -30 144t-100 40q-87 0 -169 -119t-99 -290q-22 -215 -33 -386l-251 -10q70 518 70 700q0 105 -16 256l248 25q7 -85 7 -198h14q117 209 346 209q259 0 259 -298zM612 -216q0 -152 -223 -308
l-64 64q78 65 87 146q-56 38 -56 102q0 61 42 100.5t104 39.5q52 0 81 -38t29 -106z" />
    <glyph glyph-name="Ncaron" unicode="&#x147;" horiz-adv-x="1323" 
d="M1239 1302q-18 -110 -78 -621q-40 -376 -59 -681h-234q0 48 -225 460q-234 429 -259 569h-15q11 -76 11 -153q0 -117 -18 -285q-26 -246 -45 -591h-233q21 141 84 681q38 365 42 621h292q0 -66 202 -454q213 -408 236 -533h14q-12 58 -12 123q0 138 19 319q30 289 34 545
h244zM1070 1690q-1 -13 -106 -135.5t-111 -138.5h-241q-4 16 -77 138.5t-73 135.5h146q0 -13 140 -128q175 115 176 128h146z" />
    <glyph glyph-name="ncaron" unicode="&#x148;" horiz-adv-x="1093" 
d="M997 684q0 -88 -27 -330t-27 -354l-258 -10q0 48 33 285.5t33 335.5q0 104 -30 144t-100 40q-87 0 -169 -119t-99 -290q-22 -215 -33 -386l-251 -10q70 518 70 700q0 105 -16 256l248 25q7 -85 7 -198h14q117 209 346 209q259 0 259 -298zM959 1410q-1 -13 -106 -160.5
t-111 -163.5h-241q-4 16 -77 163.5t-73 160.5h146q0 -13 140 -168q175 155 176 168h146z" />
    <glyph glyph-name="napostrophe" unicode="&#x149;" horiz-adv-x="1309" 
d="M1263 684q0 -88 -27 -330t-27 -354l-258 -10q0 48 33 285.5t33 335.5q0 104 -30 144t-100 40q-87 0 -169 -119t-99 -290q-22 -215 -33 -386l-251 -10q70 518 70 700q0 105 -16 256l248 25q7 -85 7 -198h14q117 209 346 209q259 0 259 -298zM436 1276q0 -256 -358 -573
l-82 71q145 151 164 328q-59 41 -59 123q0 87 58 146t135 59q75 0 108.5 -45.5t33.5 -108.5zM-59 1422z" />
    <glyph glyph-name="Eng" unicode="&#x14a;" horiz-adv-x="1323" 
d="M1239 1302q-41 -265 -78 -618q-30 -287 -39 -438t-24 -302q-17 -159 -125 -272.5t-382 -113.5l7 200q94 0 180.5 48.5t119.5 226.5q-33 48 -255 427q-234 429 -259 569h-15q11 -76 11 -153q0 -117 -18 -285q-26 -246 -45 -591h-233q21 141 84 681q38 365 42 621h292
q0 -66 202 -454q213 -408 236 -533h14q-12 58 -12 123q0 138 19 319q30 289 34 545h244z" />
    <glyph glyph-name="eng" unicode="&#x14b;" horiz-adv-x="1093" 
d="M997 684q0 -200 -40 -537.5t-193.5 -463t-351.5 -125.5l7 190q144 0 205.5 80.5t94 334t32.5 448.5q0 104 -30 144t-100 40q-87 0 -167 -116q-84 -122 -101 -293q-22 -215 -33 -386l-251 -10q70 518 70 700q0 105 -16 256l248 25q7 -85 7 -198h14q117 209 346 209
q259 0 259 -298z" />
    <glyph glyph-name="Omacron" unicode="&#x14c;" horiz-adv-x="1333" 
d="M1278 741q0 -309 -198.5 -543t-499.5 -234q-228 0 -376.5 168t-148.5 423q0 312 200 544.5t499 232.5q228 0 376 -167.5t148 -423.5zM1013 722q0 179 -87.5 286t-219.5 107q-174 0 -279 -168t-105 -369q0 -179 87 -286.5t219 -107.5q173 0 279 170t106 368zM1024 1621
l-30 -174h-478l28 174h480z" />
    <glyph glyph-name="omacron" unicode="&#x14d;" horiz-adv-x="1095" 
d="M1032 548q0 -244 -155.5 -415.5t-399.5 -171.5q-170 0 -292 124.5t-122 329.5q0 243 156 411t401 168q171 0 291.5 -120.5t120.5 -325.5zM779 526q0 124 -53.5 203.5t-145.5 79.5q-118 0 -191.5 -119t-73.5 -262q0 -124 54 -203.5t147 -79.5q121 0 192 117.5t71 263.5z
M904 1335l-31 -174h-460l30 174h461z" />
    <glyph glyph-name="Obreve" unicode="&#x14e;" horiz-adv-x="1333" 
d="M1278 741q0 -309 -198.5 -543t-499.5 -234q-228 0 -376.5 168t-148.5 423q0 312 200 544.5t499 232.5q228 0 376 -167.5t148 -423.5zM1013 722q0 179 -87.5 286t-219.5 107q-174 0 -279 -168t-105 -369q0 -179 87 -286.5t219 -107.5q173 0 279 170t106 368zM1088 1630
q-116 -251 -337 -251q-234 0 -287 251l133 60q52 -147 170 -147q114 0 202 147z" />
    <glyph glyph-name="obreve" unicode="&#x14f;" horiz-adv-x="1095" 
d="M1032 548q0 -244 -155.5 -415.5t-399.5 -171.5q-170 0 -292 124.5t-122 329.5q0 243 156 411t401 168q171 0 291.5 -120.5t120.5 -325.5zM779 526q0 124 -53.5 203.5t-145.5 79.5q-118 0 -191.5 -119t-73.5 -262q0 -124 54 -203.5t147 -79.5q121 0 192 117.5t71 263.5z
M952 1398q-120 -286 -341 -286q-233 0 -283 286l144 50q57 -172 156 -172q95 0 180 172z" />
    <glyph glyph-name="Ohungarumlaut" unicode="&#x150;" horiz-adv-x="1333" 
d="M1278 741q0 -309 -198.5 -543t-499.5 -234q-228 0 -376.5 168t-148.5 423q0 312 200 544.5t499 232.5q228 0 376 -167.5t148 -423.5zM1013 722q0 179 -87.5 286t-219.5 107q-174 0 -279 -168t-105 -369q0 -179 87 -286.5t219 -107.5q173 0 279 170t106 368zM858 1690
q-2 -22 -109.5 -140t-108.5 -134h-136q1 16 49.5 134.5t50.5 139.5h254zM1216 1690q-2 -22 -109.5 -140t-108.5 -134h-136q1 16 49.5 134.5t50.5 139.5h254z" />
    <glyph glyph-name="ohungarumlaut" unicode="&#x151;" horiz-adv-x="1095" 
d="M1032 548q0 -244 -155.5 -415.5t-399.5 -171.5q-170 0 -292 124.5t-122 329.5q0 243 156 411t401 168q171 0 291.5 -120.5t120.5 -325.5zM779 526q0 124 -53.5 203.5t-145.5 79.5q-118 0 -191.5 -119t-73.5 -262q0 -124 54 -203.5t147 -79.5q121 0 192 117.5t71 263.5z
M696 1410q-2 -22 -104.5 -165t-103.5 -159h-136q1 16 49.5 159.5t50.5 164.5h244zM1054 1410q-2 -22 -104.5 -165t-103.5 -159h-136q1 16 49.5 159.5t50.5 164.5h244z" />
    <glyph glyph-name="OE" unicode="&#x152;" horiz-adv-x="1750" 
d="M1708 1302l-30 -219q-317 16 -524 16l-27 -328q169 0 437 8l-23 -206q-232 10 -434 10q-21 -203 -31 -380q214 0 565 17l-32 -220h-792q-127 -35 -243 -35q-249 0 -384 173t-135 418q0 307 194.5 541.5t492.5 234.5q98 0 231 -30h735zM913 1090q-90 25 -213 25
q-172 0 -273 -162t-101 -368q0 -169 75 -284.5t216 -115.5q124 0 203 31q15 107 57 465q21 198 36 409z" />
    <glyph glyph-name="oe" unicode="&#x153;" horiz-adv-x="1676" 
d="M1639 743q0 -298 -641 -310q0 -125 46.5 -194t173.5 -69q160 0 343 103l-31 -198q-149 -104 -378 -104q-207 0 -307 143h-15q-146 -153 -353 -153q-170 0 -292 124.5t-122 329.5q0 243 156 411t401 168q187 0 296 -156h13q153 156 375 156q155 0 245 -65t90 -186z
M774 526q0 125 -51.5 204t-142.5 79q-125 0 -195 -122.5t-70 -258.5q0 -124 54 -203.5t147 -79.5q125 0 191.5 121.5t66.5 259.5zM1416 723q0 97 -149 97q-85 0 -161 -62.5t-99 -179.5q409 8 409 145z" />
    <glyph glyph-name="Racute" unicode="&#x154;" horiz-adv-x="1194" 
d="M1095 0h-279q-71 344 -130.5 432t-189.5 88q-40 0 -103 -1q-29 -277 -36 -519h-273q20 137 83 681q38 364 44 621h173q29 0 120 3t168 3q177 0 291 -75t114 -223q0 -127 -80 -224.5t-207 -138.5l-1 -15q91 -27 157 -164t149 -468zM826 951q0 168 -223 168q-89 0 -156 -14
q-5 -88 -34 -404q52 -2 88 -2q325 0 325 252zM1002 1690q0 -12 -147.5 -135t-147.5 -139h-174q0 16 97 139.5t97 134.5h275z" />
    <glyph glyph-name="racute" unicode="&#x155;" horiz-adv-x="757" 
d="M790 961l-79 -235q-67 20 -140 20q-181 0 -202 -199q-32 -302 -49 -547l-251 -10q70 518 70 700q0 105 -16 256l248 25q6 -66 6 -132h15q102 144 248 144q69 0 150 -22zM839 1410q0 -12 -147.5 -160t-147.5 -164h-174q0 16 102 164.5t102 159.5h265z" />
    <glyph glyph-name="uni0156" unicode="&#x156;" horiz-adv-x="1194" 
d="M1095 0h-279q-71 344 -130.5 432t-189.5 88q-40 0 -103 -1q-29 -277 -36 -519h-273q20 137 83 681q38 364 44 621h173q29 0 120 3t168 3q177 0 291 -75t114 -223q0 -127 -80 -224.5t-207 -138.5l-1 -15q91 -27 157 -164t149 -468zM826 951q0 168 -223 168q-89 0 -156 -14
q-5 -88 -34 -404q52 -2 88 -2q325 0 325 252zM722 -216q0 -152 -223 -308l-64 64q78 65 87 146q-56 38 -56 102q0 61 42 100.5t104 39.5q52 0 81 -38t29 -106z" />
    <glyph glyph-name="uni0157" unicode="&#x157;" horiz-adv-x="757" 
d="M790 961l-79 -235q-67 20 -140 20q-181 0 -202 -199q-32 -302 -49 -547l-251 -10q70 518 70 700q0 105 -16 256l248 25q6 -66 6 -132h15q102 144 248 144q69 0 150 -22zM318 -216q0 -152 -223 -308l-64 64q78 65 87 146q-56 38 -56 102q0 61 42 100.5t104 39.5
q52 0 81 -38t29 -106z" />
    <glyph glyph-name="Rcaron" unicode="&#x158;" horiz-adv-x="1194" 
d="M1095 0h-279q-71 344 -130.5 432t-189.5 88q-40 0 -103 -1q-29 -277 -36 -519h-273q20 137 83 681q38 364 44 621h173q29 0 120 3t168 3q177 0 291 -75t114 -223q0 -127 -80 -224.5t-207 -138.5l-1 -15q91 -27 157 -164t149 -468zM826 951q0 168 -223 168q-89 0 -156 -14
q-5 -88 -34 -404q52 -2 88 -2q325 0 325 252zM971 1690q-1 -13 -106 -135.5t-111 -138.5h-241q-4 16 -77 138.5t-73 135.5h146q0 -13 140 -128q175 115 176 128h146z" />
    <glyph glyph-name="rcaron" unicode="&#x159;" horiz-adv-x="757" 
d="M790 961l-79 -235q-67 20 -140 20q-181 0 -202 -199q-32 -302 -49 -547l-251 -10q70 518 70 700q0 105 -16 256l248 25q6 -66 6 -132h15q102 144 248 144q69 0 150 -22zM793 1410q-1 -13 -106 -160.5t-111 -163.5h-241q-4 16 -77 163.5t-73 160.5h146q0 -13 140 -168
q175 155 176 168h146z" />
    <glyph glyph-name="Sacute" unicode="&#x15a;" horiz-adv-x="1035" 
d="M969 1290l-59 -222q-122 49 -271 49q-241 0 -241 -146q0 -57 52 -99q46 -38 179 -97q308 -137 308 -391q0 -420 -577 -420q-181 0 -333 46l71 223q147 -56 284 -56q130 0 192 20q110 35 110 136q0 66 -60 118q-54 47 -198 115q-276 131 -276 364q0 208 143 300.5
t367 92.5q186 0 309 -33zM1001 1690q0 -12 -147.5 -135t-147.5 -139h-174q0 16 97 139.5t97 134.5h275z" />
    <glyph glyph-name="sacute" unicode="&#x15b;" horiz-adv-x="812" 
d="M759 966l-54 -198q-105 33 -229 33q-156 0 -156 -95q0 -63 147 -122q260 -105 260 -286q0 -325 -457 -325q-154 0 -265 30l53 197q114 -40 232 -40q213 0 213 98q0 70 -146 133q-122 53 -180 104q-81 73 -81 176q0 159 115.5 237t285.5 78q168 0 262 -20zM843 1410
q0 -12 -147.5 -160t-147.5 -164h-174q0 16 102 164.5t102 159.5h265z" />
    <glyph glyph-name="Scircumflex" unicode="&#x15c;" horiz-adv-x="1035" 
d="M969 1290l-59 -222q-122 49 -271 49q-241 0 -241 -146q0 -57 52 -99q46 -38 179 -97q308 -137 308 -391q0 -420 -577 -420q-181 0 -333 46l71 223q147 -56 284 -56q130 0 192 20q110 35 110 136q0 66 -60 118q-54 47 -198 115q-276 131 -276 364q0 208 143 300.5
t367 92.5q186 0 309 -33zM933 1416h-146q0 13 -140 128q-175 -115 -176 -128h-146q1 13 106 135.5t111 138.5h241q4 -16 77 -138.5t73 -135.5z" />
    <glyph glyph-name="scircumflex" unicode="&#x15d;" horiz-adv-x="812" 
d="M759 966l-54 -198q-105 33 -229 33q-156 0 -156 -95q0 -63 147 -122q260 -105 260 -286q0 -325 -457 -325q-154 0 -265 30l53 197q114 -40 232 -40q213 0 213 98q0 70 -146 133q-122 53 -180 104q-81 73 -81 176q0 159 115.5 237t285.5 78q168 0 262 -20zM760 1086h-146
q0 13 -140 168q-175 -155 -176 -168h-146q1 13 106 160.5t111 163.5h241q4 -16 77 -163.5t73 -160.5z" />
    <glyph glyph-name="Scedilla" unicode="&#x15e;" horiz-adv-x="1035" 
d="M969 1290l-59 -222q-122 49 -271 49q-241 0 -241 -146q0 -57 52 -99q46 -38 179 -97q308 -137 308 -391q0 -383 -479 -416l-10 -38q158 -55 158 -192q0 -232 -257 -232l-11 112q41 0 72 29t31 69q0 97 -109 119l36 129h-8q-181 0 -333 46l71 223q147 -56 284 -56
q130 0 192 20q110 35 110 136q0 66 -60 118q-54 47 -198 115q-276 131 -276 364q0 208 155 308q131 85 355 85q186 0 309 -33z" />
    <glyph glyph-name="scedilla" unicode="&#x15f;" horiz-adv-x="812" 
d="M759 966l-54 -198q-105 33 -229 33q-156 0 -156 -95q0 -63 147 -122q260 -105 260 -286q0 -298 -383 -322l-12 -46q158 -55 158 -192q0 -232 -257 -232l-11 112q41 0 72 29t31 69q0 97 -109 119l39 138q-145 2 -250 32l53 195q114 -40 232 -40q213 0 213 98
q0 70 -146 133q-122 53 -180 104q-81 73 -81 176q0 159 115.5 237t285.5 78q168 0 262 -20z" />
    <glyph glyph-name="Scaron" unicode="&#x160;" horiz-adv-x="1035" 
d="M969 1290l-59 -222q-122 49 -271 49q-241 0 -241 -146q0 -57 52 -99q46 -38 179 -97q308 -137 308 -391q0 -420 -577 -420q-181 0 -333 46l71 223q147 -56 284 -56q130 0 192 20q110 35 110 136q0 66 -60 118q-54 47 -198 115q-276 131 -276 364q0 208 143 300.5
t367 92.5q186 0 309 -33zM964 1690q-1 -13 -106 -135.5t-111 -138.5h-241q-4 16 -77 138.5t-73 135.5h146q0 -13 140 -128q175 115 176 128h146z" />
    <glyph glyph-name="scaron" unicode="&#x161;" horiz-adv-x="812" 
d="M759 966l-54 -198q-105 33 -229 33q-156 0 -156 -95q0 -63 147 -122q260 -105 260 -286q0 -325 -457 -325q-154 0 -265 30l53 197q114 -40 232 -40q213 0 213 98q0 70 -146 133q-122 53 -180 104q-81 73 -81 176q0 159 115.5 237t285.5 78q168 0 262 -20zM820 1410
q-1 -13 -106 -160.5t-111 -163.5h-241q-4 16 -77 163.5t-73 160.5h146q0 -13 140 -168q175 155 176 168h146z" />
    <glyph glyph-name="uni0162" unicode="&#x162;" horiz-adv-x="1061" 
d="M1091 1302l-29 -215q-189 15 -356 15q-12 -91 -47 -421q-41 -387 -51 -681h-276q21 145 84 681q24 227 40 421q-134 0 -370 -16l31 216h974zM595 -216q0 -152 -223 -308l-64 64q78 65 87 146q-56 38 -56 102q0 61 42 100.5t104 39.5q52 0 81 -38t29 -106z" />
    <glyph glyph-name="uni0162" unicode="&#x21a;" horiz-adv-x="1061" 
d="M1091 1302l-29 -215q-189 15 -356 15q-12 -91 -47 -421q-41 -387 -51 -681h-276q21 145 84 681q24 227 40 421q-134 0 -370 -16l31 216h974zM595 -216q0 -152 -223 -308l-64 64q78 65 87 146q-56 38 -56 102q0 61 42 100.5t104 39.5q52 0 81 -38t29 -106z" />
    <glyph glyph-name="uni0163" unicode="&#x163;" horiz-adv-x="746" 
d="M690 941l-27 -199q-141 6 -231 6q-42 -272 -42 -404q0 -100 22 -137t79 -37q88 0 187 62l-34 -182q-90 -71 -224 -71q-142 0 -202 69.5t-60 234.5q0 122 50 465q-48 0 -137 -6l28 197q76 -6 139 -6q10 70 43 279l222 29q-17 -95 -47 -308q80 0 234 8zM0 960zM506 -216
q0 -152 -223 -308l-64 64q78 65 87 146q-56 38 -56 102q0 61 42 100.5t104 39.5q52 0 81 -38t29 -106z" />
    <glyph glyph-name="uni0163" unicode="&#x21b;" horiz-adv-x="746" 
d="M690 941l-27 -199q-141 6 -231 6q-42 -272 -42 -404q0 -100 22 -137t79 -37q88 0 187 62l-34 -182q-90 -71 -224 -71q-142 0 -202 69.5t-60 234.5q0 122 50 465q-48 0 -137 -6l28 197q76 -6 139 -6q10 70 43 279l222 29q-17 -95 -47 -308q80 0 234 8zM0 960zM506 -216
q0 -152 -223 -308l-64 64q78 65 87 146q-56 38 -56 102q0 61 42 100.5t104 39.5q52 0 81 -38t29 -106z" />
    <glyph glyph-name="Tcaron" unicode="&#x164;" horiz-adv-x="1061" 
d="M1091 1302l-29 -215q-189 15 -356 15q-12 -91 -47 -421q-41 -387 -51 -681h-276q21 145 84 681q24 227 40 421q-134 0 -370 -16l31 216h974zM938 1690q-1 -13 -106 -135.5t-111 -138.5h-241q-4 16 -77 138.5t-73 135.5h146q0 -13 140 -128q175 115 176 128h146z" />
    <glyph glyph-name="tcaron" unicode="&#x165;" horiz-adv-x="903" 
d="M690 941l-27 -199q-141 6 -231 6q-42 -272 -42 -404q0 -100 22 -137t79 -37q88 0 187 62l-34 -182q-90 -71 -224 -71q-142 0 -202 69.5t-60 234.5q0 122 50 465q-48 0 -137 -6l28 197q76 -6 139 -6q10 70 43 279l222 29q-17 -95 -47 -308q80 0 234 8zM0 960zM1004 1197
q0 -213 -232 -371l-65 65q66 81 83 189q-60 32 -60 92q0 67 48.5 111.5t112.5 44.5q56 0 84.5 -33.5t28.5 -97.5z" />
    <glyph glyph-name="Tbar" unicode="&#x166;" horiz-adv-x="1061" 
d="M1091 1302l-29 -215q-189 15 -356 15q-10 -76 -37 -319h306l-24 -148h-297q-37 -359 -46 -635h-276q20 138 79 635h-305l25 148h295q17 169 30 319q-134 0 -370 -16l31 216h974z" />
    <glyph glyph-name="tbar" unicode="&#x167;" horiz-adv-x="746" 
d="M690 941l-27 -199q-141 6 -231 6q-13 -84 -22 -154h209l-16 -132h-208q-5 -69 -5 -118q0 -100 22 -137t79 -37q88 0 187 62l-34 -182q-90 -71 -224 -71q-142 0 -202 69.5t-60 234.5q0 61 12 179h-116l15 132h117l22 154q-48 0 -137 -6l28 197q76 -6 139 -6q5 46 38 279
l227 29q-17 -95 -47 -308q80 0 234 8zM0 960z" />
    <glyph glyph-name="Utilde" unicode="&#x168;" horiz-adv-x="1300" 
d="M1231 1302q-18 -139 -78 -672q-70 -664 -586 -664q-221 0 -338 108t-117 400q0 64 8 147q33 315 54 681h279q-23 -157 -81 -652q-9 -86 -9 -165q0 -178 57.5 -246t173.5 -68q140 0 218 97.5t108 383.5q34 328 45 650h266zM1118 1612q-130 -185 -267 -185q-50 0 -113.5 24
t-110.5 24q-86 0 -177 -67l-77 75q130 186 267 186q50 0 113.5 -22t110.5 -22q86 0 178 62z" />
    <glyph glyph-name="utilde" unicode="&#x169;" horiz-adv-x="1086" 
d="M1016 970q-70 -554 -70 -736q0 -105 16 -226l-246 -28q-6 81 -6 198h-14q-113 -209 -342 -209q-258 0 -258 298q0 88 26.5 329.5t26.5 353.5l260 20q0 -48 -34 -287t-34 -337q0 -105 28.5 -147t97.5 -42q87 0 169 118.5t99 289.5q28 278 28 385zM987 1342
q-130 -195 -267 -195q-50 0 -113.5 24t-110.5 24q-86 0 -177 -107l-77 75q130 206 267 206q50 0 113.5 -22t110.5 -22q86 0 178 92z" />
    <glyph glyph-name="Umacron" unicode="&#x16a;" horiz-adv-x="1300" 
d="M1231 1302q-18 -139 -78 -672q-70 -664 -586 -664q-221 0 -338 108t-117 400q0 64 8 147q33 315 54 681h279q-23 -157 -81 -652q-9 -86 -9 -165q0 -178 57.5 -246t173.5 -68q140 0 218 97.5t108 383.5q34 328 45 650h266zM988 1621l-30 -174h-478l28 174h480z" />
    <glyph glyph-name="umacron" unicode="&#x16b;" horiz-adv-x="1086" 
d="M1016 970q-70 -554 -70 -736q0 -105 16 -226l-246 -28q-6 81 -6 198h-14q-113 -209 -342 -209q-258 0 -258 298q0 88 26.5 329.5t26.5 353.5l260 20q0 -48 -34 -287t-34 -337q0 -105 28.5 -147t97.5 -42q87 0 169 118.5t99 289.5q28 278 28 385zM856 1335l-31 -174h-460
l30 174h461z" />
    <glyph glyph-name="Ubreve" unicode="&#x16c;" horiz-adv-x="1300" 
d="M1231 1302q-18 -139 -78 -672q-70 -664 -586 -664q-221 0 -338 108t-117 400q0 64 8 147q33 315 54 681h279q-23 -157 -81 -652q-9 -86 -9 -165q0 -178 57.5 -246t173.5 -68q140 0 218 97.5t108 383.5q34 328 45 650h266zM1057 1630q-116 -251 -337 -251q-234 0 -287 251
l133 60q52 -147 170 -147q114 0 202 147z" />
    <glyph glyph-name="ubreve" unicode="&#x16d;" horiz-adv-x="1086" 
d="M1016 970q-70 -554 -70 -736q0 -105 16 -226l-246 -28q-6 81 -6 198h-14q-113 -209 -342 -209q-258 0 -258 298q0 88 26.5 329.5t26.5 353.5l260 20q0 -48 -34 -287t-34 -337q0 -105 28.5 -147t97.5 -42q87 0 169 118.5t99 289.5q28 278 28 385zM938 1398
q-120 -286 -341 -286q-233 0 -283 286l144 50q57 -172 156 -172q95 0 180 172z" />
    <glyph glyph-name="Uring" unicode="&#x16e;" horiz-adv-x="1300" 
d="M1231 1302q-18 -139 -78 -672q-70 -664 -586 -664q-221 0 -338 108t-117 400q0 64 8 147q33 315 54 681h279q-23 -157 -81 -652q-9 -86 -9 -165q0 -178 57.5 -246t173.5 -68q140 0 218 97.5t108 383.5q34 328 45 650h266zM975 1603q0 -115 -82 -186q-73 -64 -173 -64
q-90 0 -151 55q-69 60 -69 166q0 114 82 183q73 63 173 63q90 0 151 -53q69 -60 69 -164zM861 1594q0 60 -35 94q-32 30 -80 30q-52 0 -90 -35q-42 -39 -42 -103q0 -60 35 -94q32 -31 80 -31q52 0 90 35q42 40 42 104z" />
    <glyph glyph-name="uring" unicode="&#x16f;" horiz-adv-x="1086" 
d="M1016 970q-70 -554 -70 -736q0 -105 16 -226l-246 -28q-6 81 -6 198h-14q-113 -209 -342 -209q-258 0 -258 298q0 88 26.5 329.5t26.5 353.5l260 20q0 -48 -34 -287t-34 -337q0 -105 28.5 -147t97.5 -42q87 0 169 118.5t99 289.5q28 278 28 385zM850 1288
q0 -115 -82 -186q-73 -64 -173 -64q-90 0 -151 55q-69 60 -69 166q0 114 82 183q73 63 173 63q90 0 151 -53q69 -60 69 -164zM736 1279q0 60 -35 94q-32 30 -80 30q-52 0 -90 -35q-42 -39 -42 -103q0 -60 35 -94q32 -31 80 -31q52 0 90 35q42 40 42 104z" />
    <glyph glyph-name="Uhungarumlaut" unicode="&#x170;" horiz-adv-x="1300" 
d="M1231 1302q-18 -139 -78 -672q-70 -664 -586 -664q-221 0 -338 108t-117 400q0 64 8 147q33 315 54 681h279q-23 -157 -81 -652q-9 -86 -9 -165q0 -178 57.5 -246t173.5 -68q140 0 218 97.5t108 383.5q34 328 45 650h266zM823 1690q-2 -22 -109.5 -140t-108.5 -134h-136
q1 16 49.5 134.5t50.5 139.5h254zM1181 1690q-2 -22 -109.5 -140t-108.5 -134h-136q1 16 49.5 134.5t50.5 139.5h254z" />
    <glyph glyph-name="uhungarumlaut" unicode="&#x171;" horiz-adv-x="1086" 
d="M1016 970q-70 -554 -70 -736q0 -105 16 -226l-246 -28q-6 81 -6 198h-14q-113 -209 -342 -209q-258 0 -258 298q0 88 26.5 329.5t26.5 353.5l260 20q0 -48 -34 -287t-34 -337q0 -105 28.5 -147t97.5 -42q87 0 169 118.5t99 289.5q28 278 28 385zM685 1410
q-2 -22 -104.5 -165t-103.5 -159h-136q1 16 49.5 159.5t50.5 164.5h244zM1043 1410q-2 -22 -104.5 -165t-103.5 -159h-136q1 16 49.5 159.5t50.5 164.5h244z" />
    <glyph glyph-name="Uogonek" unicode="&#x172;" horiz-adv-x="1300" 
d="M1231 1302q-18 -139 -78 -672q-52 -492 -349 -620q-216 -89 -216 -237q0 -102 98 -102q27 0 76 13l10 -150q-66 -20 -133 -20q-129 0 -182.5 54.5t-53.5 148.5q0 152 181 235v14h-17q-218 0 -336.5 106t-118.5 399q0 67 8 150q33 315 54 681h279q-23 -157 -81 -652
q-9 -86 -9 -165q0 -178 57.5 -246t173.5 -68q140 0 218 97.5t108 383.5q34 328 45 650h266z" />
    <glyph glyph-name="uogonek" unicode="&#x173;" horiz-adv-x="1086" 
d="M1016 970q-70 -554 -70 -736q0 -105 16 -226q-219 -81 -219 -232q0 -107 100 -107q30 0 76 10l11 -149q-61 -18 -134 -18q-126 0 -182 59t-56 157q0 144 158 252q-6 81 -6 198h-14q-113 -209 -342 -209q-258 0 -258 298q0 88 26.5 329.5t26.5 353.5l260 20
q0 -48 -34 -287t-34 -337q0 -105 28.5 -147t97.5 -42q87 0 169 118.5t99 289.5q28 278 28 385z" />
    <glyph glyph-name="Wcircumflex" unicode="&#x174;" horiz-adv-x="1862" 
d="M1905 1302q0 -97 -265 -665.5t-272 -636.5h-252q0 112 -77.5 468.5t-83.5 493.5h-15q-28 -127 -182 -509t-161 -453h-257q0 146 -129 671.5t-129 630.5h298q0 -99 64 -495t64 -528h14q8 75 178.5 505.5t170.5 517.5h271q0 -106 67.5 -502.5t67.5 -520.5h15q6 62 169 481
t163 542h281zM1310 1416h-146q0 13 -140 128q-175 -115 -176 -128h-146q1 13 106 135.5t111 138.5h241q4 -16 77 -138.5t73 -135.5z" />
    <glyph glyph-name="wcircumflex" unicode="&#x175;" horiz-adv-x="1564" 
d="M1559 961q0 -74 -204.5 -485.5t-211.5 -475.5h-222q0 61 -51.5 319.5t-67.5 366.5h-15q-38 -111 -154 -372.5t-121 -313.5h-222q0 82 -100.5 475t-100.5 473l271 13q0 -94 44 -365.5t44 -348.5h14q8 65 136.5 355t128.5 348h224q0 -68 55.5 -350.5t55.5 -352.5h13
q5 48 120.5 332.5t115.5 368.5zM1140 1086h-146q0 13 -140 168q-175 -155 -176 -168h-146q1 13 106 160.5t111 163.5h241q4 -16 77 -163.5t73 -160.5z" />
    <glyph glyph-name="Ycircumflex" unicode="&#x176;" horiz-adv-x="1065" 
d="M1117 1302q0 -42 -171.5 -284t-249.5 -362.5t-88 -217.5q-23 -220 -24 -438h-280q58 381 58 467q0 143 -148 474.5t-148 360.5h298q0 -63 85 -312t85 -337h15q7 68 152.5 324t145.5 325h270zM928 1416h-146q0 13 -140 128q-175 -115 -176 -128h-146q1 13 106 135.5
t111 138.5h241q4 -16 77 -138.5t73 -135.5z" />
    <glyph glyph-name="ycircumflex" unicode="&#x177;" horiz-adv-x="965" 
d="M957 961q0 -141 -198.5 -512.5t-227.5 -454.5q-88 -248 -205 -342.5t-320 -94.5v193q126 0 217.5 80.5t91.5 203.5q0 136 -121.5 474t-121.5 442l288 11q0 -137 56.5 -384.5t56.5 -337.5h15q4 35 109 299.5t105 408.5zM838 1086h-146q0 13 -140 168q-175 -155 -176 -168
h-146q1 13 106 160.5t111 163.5h241q4 -16 77 -163.5t73 -160.5z" />
    <glyph glyph-name="Ydieresis" unicode="&#x178;" horiz-adv-x="1065" 
d="M1117 1302q0 -42 -171.5 -284t-249.5 -362.5t-88 -217.5q-23 -220 -24 -438h-280q58 381 58 467q0 143 -148 474.5t-148 360.5h298q0 -63 85 -312t85 -337h15q7 68 152.5 324t145.5 325h270zM951 1583q0 -66 -45 -112.5t-111 -46.5q-107 0 -107 110q0 66 46 111.5
t112 45.5q105 0 105 -108zM582 1583q0 -66 -45.5 -112.5t-111.5 -46.5q-105 0 -105 109q0 66 45.5 112t111.5 46q105 0 105 -108z" />
    <glyph glyph-name="Zacute" unicode="&#x179;" horiz-adv-x="1023" 
d="M994 1302l-35 -207q-122 -155 -356 -492.5t-236 -384.5l-1 -15q200 0 535 23l-30 -226h-849l35 205q122 147 368.5 493.5t249.5 391.5l1 16q-227 0 -524 -23l29 219h813zM929 1690q0 -12 -147.5 -135t-147.5 -139h-174q0 16 97 139.5t97 134.5h275z" />
    <glyph glyph-name="zacute" unicode="&#x17a;" horiz-adv-x="859" 
d="M834 950l-36 -186q-58 -55 -254.5 -295.5t-196.5 -277.5v-15q215 0 427 19l-26 -195h-718l34 186q54 46 261.5 292t207.5 282v15q-226 0 -415 -16l26 191h690zM854 1410q0 -12 -147.5 -160t-147.5 -164h-174q0 16 102 164.5t102 159.5h265z" />
    <glyph glyph-name="Zdotaccent" unicode="&#x17b;" horiz-adv-x="1023" 
d="M994 1302l-35 -207q-122 -155 -356 -492.5t-236 -384.5l-1 -15q200 0 535 23l-30 -226h-849l35 205q122 147 368.5 493.5t249.5 391.5l1 16q-227 0 -524 -23l29 219h813zM768 1570q0 -78 -54 -133.5t-133 -55.5q-61 0 -94 37.5t-33 93.5q0 79 54 133t133 54
q127 0 127 -129z" />
    <glyph glyph-name="zdotaccent" unicode="&#x17c;" horiz-adv-x="859" 
d="M834 950l-36 -186q-58 -55 -254.5 -295.5t-196.5 -277.5v-15q215 0 427 19l-26 -195h-718l34 186q54 46 261.5 292t207.5 282v15q-226 0 -415 -16l26 191h690zM682 1271q0 -78 -54 -133.5t-133 -55.5q-61 0 -94 37.5t-33 93.5q0 79 54 133t133 54q127 0 127 -129z" />
    <glyph glyph-name="Zcaron" unicode="&#x17d;" horiz-adv-x="1023" 
d="M994 1302l-35 -207q-122 -155 -356 -492.5t-236 -384.5l-1 -15q200 0 535 23l-30 -226h-849l35 205q122 147 368.5 493.5t249.5 391.5l1 16q-227 0 -524 -23l29 219h813zM902 1690q-1 -13 -106 -135.5t-111 -138.5h-241q-4 16 -77 138.5t-73 135.5h146q0 -13 140 -128
q175 115 176 128h146z" />
    <glyph glyph-name="zcaron" unicode="&#x17e;" horiz-adv-x="859" 
d="M834 950l-36 -186q-58 -55 -254.5 -295.5t-196.5 -277.5v-15q215 0 427 19l-26 -195h-718l34 186q54 46 261.5 292t207.5 282v15q-226 0 -415 -16l26 191h690zM830 1410q-1 -13 -106 -160.5t-111 -163.5h-241q-4 16 -77 163.5t-73 160.5h146q0 -13 140 -168
q175 155 176 168h146z" />
    <glyph glyph-name="longs" unicode="&#x17f;" horiz-adv-x="536" 
d="M697 1422l-42 -172q-53 8 -100 8q-79 0 -114 -63t-50 -262q-40 -505 -77 -918.5t-339 -471.5l-54 141q78 60 115.5 179t65 377t67.5 693q53 503 354 503q116 0 174 -14z" />
    <glyph glyph-name="florin" unicode="&#x192;" 
d="M974 1304l-37 -177q-52 9 -89 9q-84 0 -119 -51q-38 -55 -72 -238q86 0 222 5l-22 -140q-104 5 -220 5q-85 -522 -155 -760q-70 -242 -167 -336q-77 -75 -242 -107l-42 154q104 60 151 120q59 75 109 280q46 190 122 649q-58 0 -151 -5l18 140q73 -5 158 -5
q46 269 135.5 372.5t272.5 103.5q57 0 128 -19z" />
    <glyph glyph-name="Ohorn" unicode="&#x1a0;" horiz-adv-x="1542" 
d="M1278 741q0 -310 -199 -543q-198 -234 -499 -234q-229 0 -377 168q-148 167 -148 423q0 311 200 544t499 233q227 0 376 -168q41 -47 70.5 -99.5t47.5 -112.5q39 28 72.5 61t47.5 68q-17 9 -34 20.5t-30.5 27t-21.5 36t-8 46.5q0 38 13.5 75t37 66t55.5 46.5t70 17.5
q37 0 64 -12.5t44.5 -34t25.5 -49.5t8 -58q0 -59 -21.5 -114.5t-62.5 -108.5t-100.5 -105t-134.5 -104q2 -22 3.5 -44t1.5 -45zM1013 722q0 180 -88 286q-87 107 -219 107q-174 0 -279 -168t-105 -369q0 -179 87 -287q87 -107 219 -107q172 0 279 170q106 169 106 368z" />
    <glyph glyph-name="ohorn" unicode="&#x1a1;" horiz-adv-x="1333" 
d="M1363 916q0 -60 -22.5 -117t-65.5 -111.5t-105.5 -107.5t-141.5 -107q-21 -195 -152 -341q-155 -171 -399 -171q-171 0 -292 124q-122 125 -122 330q0 243 156 411t401 168q170 0 291 -121q102 -103 118 -260q36 27 66.5 58t43.5 64q-17 9 -34 20.5t-30.5 27t-21.5 36
t-8 46.5q0 38 13.5 75t37 66t55.5 46.5t70 17.5q37 0 64 -12.5t44.5 -34t25.5 -49.5t8 -58zM779 526q0 123 -54 203q-53 80 -145 80q-118 0 -192 -119q-73 -118 -73 -262q0 -125 54 -204t147 -79q121 0 192 117q71 119 71 264z" />
    <glyph glyph-name="Uhorn" unicode="&#x1af;" horiz-adv-x="1602" 
d="M1652 1262q0 -78 -38 -151t-104 -137.5t-154.5 -120.5t-189.5 -101q-3 -29 -6.5 -59.5t-6.5 -62.5q-72 -664 -586 -664q-221 0 -338 108t-117 400q0 32 2 68.5t6 78.5q16 158 29.5 327.5t24.5 353.5h279q-11 -79 -32 -241t-49 -411q-9 -86 -9 -165q0 -179 57 -246
q59 -68 174 -68q140 0 218 97t108 384q35 329 45 650h266q-7 -51 -19.5 -154t-29.5 -259q34 17 68.5 37t66.5 44t58.5 52t44.5 60q-17 9 -32.5 20.5t-27.5 27t-19 35.5t-7 46q0 38 13.5 75t37 66t55.5 46.5t70 17.5q37 0 64 -12.5t44.5 -34t25.5 -49.5t8 -58z" />
    <glyph glyph-name="uhorn" unicode="&#x1b0;" horiz-adv-x="1395" 
d="M1425 916q0 -77 -36.5 -148.5t-100 -135t-149.5 -119t-184 -100.5q-9 -114 -9 -179q0 -53 4 -109t12 -117l-246 -28q-6 81 -6 198h-14q-113 -209 -342 -209q-258 0 -258 298q0 45 6.5 126.5t19.5 202.5q27 241 27 354l260 20q0 -24 -8.5 -95.5t-25.5 -191.5t-25.5 -204
t-8.5 -133q0 -53 6.5 -89t21.5 -58t39 -32t59 -10q87 0 169 118t99 290q14 140 21 235.5t7 149.5l253 20q-16 -125 -28 -229t-21 -191q33 16 66 36t63 43t55 50t42 57q-17 9 -32.5 20.5t-27.5 27t-19 35.5t-7 46q0 38 13.5 75t37 66t55.5 46.5t70 17.5q37 0 64 -12.5
t44.5 -34t25.5 -49.5t8 -58z" />
    <glyph glyph-name="Aringacute" unicode="&#x1fa;" horiz-adv-x="1222" 
d="M1145 0h-304q0 109 -48 374h-438q-36 -85 -62 -154q-64 -164 -67 -220h-286q3 37 289 640.5t292 661.5h358q0 -113 133 -647t133 -655zM911 1518q0 -90 -61 -143.5t-139 -53.5q-71 0 -123 45.5t-52 128.5q0 90 61 142.5t140 52.5q72 0 123 -45t51 -127zM765 565
q-104 513 -104 558h-15q-4 -35 -227 -558h346zM1103 1900q-1 -12 -126.5 -90t-137.5 -94h-164q2 16 77 94.5t76 89.5h275zM812 1515q0 43 -24 66.5t-59 23.5q-38 0 -67 -27t-29 -74q0 -42 24.5 -65.5t58.5 -23.5q38 0 67 27t29 73z" />
    <glyph glyph-name="aringacute" unicode="&#x1fb;" horiz-adv-x="1031" 
d="M966 995q-80 -542 -80 -749q0 -105 17 -236l-246 -28q-6 83 -6 193h-15q-111 -203 -330 -203q-126 0 -190 94.5t-64 258.5q0 236 165 425.5t513 198.5l44 31zM710 791q-209 -2 -307 -122t-98 -324q0 -185 116 -185q90 0 165.5 131t95.5 250.5t28 249.5zM882 1269
q0 -115 -82 -186q-73 -64 -173 -64q-90 0 -151 55q-69 60 -69 166q0 114 82 183q73 63 173 63q90 0 151 -53q69 -60 69 -164zM768 1260q0 60 -35 94q-32 30 -80 30q-52 0 -90 -35q-42 -39 -42 -103q0 -60 35 -94q32 -31 80 -31q52 0 90 35q42 40 42 104zM1060 1789
q0 -12 -147.5 -135t-147.5 -139h-174q0 16 97 139.5t97 134.5h275z" />
    <glyph glyph-name="AEacute" unicode="&#x1fc;" horiz-adv-x="1598" 
d="M1556 1302l-30 -219q-294 16 -525 16q-7 -105 -26 -328q184 0 437 8l-22 -206q-234 10 -436 10q-21 -203 -32 -380q263 0 567 17l-31 -220h-816q15 92 50 374h-353q-34 -85 -76.5 -201.5t-48.5 -172.5h-274q4 38 289 638t292 664h1035zM761 1099h-125q-4 -39 -231 -534
h308q31 293 48 534zM1351 1690q0 -12 -147.5 -135t-147.5 -139h-174q0 16 97 139.5t97 134.5h275z" />
    <glyph glyph-name="aeacute" unicode="&#x1fd;" horiz-adv-x="1588" 
d="M1551 743q0 -298 -641 -310q0 -125 46 -194t173 -69q160 0 344 103l-31 -198q-149 -104 -378 -104q-295 0 -374 246h-14q-137 -245 -370 -245q-126 0 -190 94.5t-64 258.5q0 237 167 427t511 198l44 30l172 15l-12 -76h15q124 75 267 75q155 0 245 -65t90 -186zM710 791
q-208 -3 -306.5 -123.5t-98.5 -322.5q0 -185 116 -185q91 0 166.5 125.5t103.5 306.5q11 69 19 199zM1328 723q0 97 -149 97q-85 0 -161.5 -62.5t-99.5 -179.5q410 8 410 145zM1260 1410q0 -12 -147.5 -160t-147.5 -164h-174q0 16 102 164.5t102 159.5h265z" />
    <glyph glyph-name="Oslashacute" unicode="&#x1fe;" horiz-adv-x="1333" 
d="M1355 1322q-4 -42 -160 -225q91 -144 91 -361q0 -305 -196 -538.5t-499 -233.5q-190 0 -327 113q-138 -159 -142 -196l-137 42q4 39 188 249q-109 150 -109 387q0 308 195.5 540.5t499.5 232.5q207 0 348 -131q107 128 110 158zM937 1003q-87 112 -226 112
q-177 0 -279.5 -172.5t-102.5 -362.5q0 -107 35 -194q203 216 573 617zM1020 719q0 87 -21 154q-197 -209 -563 -603q83 -86 203 -86q177 0 279 172.5t102 362.5zM1126 1690q0 -12 -147.5 -135t-147.5 -139h-174q0 16 97 139.5t97 134.5h275z" />
    <glyph glyph-name="oslashacute" unicode="&#x1ff;" horiz-adv-x="1095" 
d="M1100 981q-4 -36 -129 -174q61 -102 61 -257q0 -244 -154 -416.5t-398 -172.5q-154 0 -262 84q-124 -131 -127 -159l-102 42q3 34 155 193q-79 108 -79 282q0 244 155 417.5t398 173.5q173 0 286 -106q89 100 92 130zM736 711q-56 98 -158 98q-125 0 -193.5 -121
t-68.5 -256q0 -67 17 -121zM780 497q0 69 -9 102q-134 -133 -390 -387q54 -67 137 -67q125 0 193.5 110.5t68.5 241.5zM985 1410q0 -12 -147.5 -160t-147.5 -164h-174q0 16 102 164.5t102 159.5h265z" />
    <glyph glyph-name="uni0218" unicode="&#x218;" horiz-adv-x="1035" 
d="M969 1290l-59 -222q-122 49 -271 49q-241 0 -241 -146q0 -57 52 -99q46 -38 179 -97q308 -137 308 -391q0 -420 -577 -420q-181 0 -333 46l71 223q147 -56 284 -56q130 0 192 20q110 35 110 136q0 66 -60 118q-54 47 -198 115q-276 131 -276 364q0 208 143 300.5
t367 92.5q186 0 309 -33zM536 -216q0 -152 -223 -308l-64 64q78 65 87 146q-56 38 -56 102q0 61 42 100.5t104 39.5q52 0 81 -38t29 -106z" />
    <glyph glyph-name="uni0219" unicode="&#x219;" horiz-adv-x="812" 
d="M759 966l-54 -198q-105 33 -229 33q-156 0 -156 -95q0 -63 147 -122q260 -105 260 -286q0 -325 -457 -325q-154 0 -265 30l53 197q114 -40 232 -40q213 0 213 98q0 70 -146 133q-122 53 -180 104q-81 73 -81 176q0 159 115.5 237t285.5 78q168 0 262 -20zM467 -216
q0 -152 -223 -308l-64 64q78 65 87 146q-56 38 -56 102q0 61 42 100.5t104 39.5q52 0 81 -38t29 -106z" />
    <glyph glyph-name="circumflex" unicode="&#x2c6;" horiz-adv-x="782" 
d="M701 1086h-146q0 13 -140 168q-175 -155 -176 -168h-146q1 13 106 160.5t111 163.5h241q4 -16 77 -163.5t73 -160.5z" />
    <glyph glyph-name="caron" unicode="&#x2c7;" horiz-adv-x="782" 
d="M720 1410q-1 -13 -106 -160.5t-111 -163.5h-241q-4 16 -77 163.5t-73 160.5h146q0 -13 140 -168q175 155 176 168h146z" />
    <glyph glyph-name="breve" unicode="&#x2d8;" horiz-adv-x="782" 
d="M782 1398q-120 -286 -341 -286q-233 0 -283 286l144 50q57 -172 156 -172q95 0 180 172z" />
    <glyph glyph-name="dotaccent" unicode="&#x2d9;" horiz-adv-x="526" 
d="M497 1271q0 -78 -54 -133.5t-133 -55.5q-61 0 -94 37.5t-33 93.5q0 79 54 133t133 54q127 0 127 -129z" />
    <glyph glyph-name="ring" unicode="&#x2da;" horiz-adv-x="610" 
d="M552 1288q0 -115 -82 -186q-73 -64 -173 -64q-90 0 -151 55q-69 60 -69 166q0 114 82 183q73 63 173 63q90 0 151 -53q69 -60 69 -164zM438 1279q0 60 -35 94q-32 30 -80 30q-52 0 -90 -35q-42 -39 -42 -103q0 -60 35 -94q32 -31 80 -31q52 0 90 35q42 40 42 104z" />
    <glyph glyph-name="ogonek" unicode="&#x2db;" horiz-adv-x="470" 
d="M430 10q-199 -81 -199 -232q0 -107 100 -107q30 0 76 10l11 -149q-61 -18 -134 -18q-126 0 -182 59t-56 157q0 144 149 280h235z" />
    <glyph glyph-name="tilde" unicode="&#x2dc;" horiz-adv-x="884" 
d="M824 1342q-130 -195 -267 -195q-50 0 -113.5 24t-110.5 24q-86 0 -177 -107l-77 75q130 206 267 206q50 0 113.5 -22t110.5 -22q86 0 178 92z" />
    <glyph glyph-name="hungarumlaut" unicode="&#x2dd;" horiz-adv-x="882" 
d="M446 1410q-2 -22 -104.5 -165t-103.5 -159h-136q1 16 49.5 159.5t50.5 164.5h244zM804 1410q-2 -22 -104.5 -165t-103.5 -159h-136q1 16 49.5 159.5t50.5 164.5h244z" />
    <glyph glyph-name="gravecomb" unicode="&#x300;" horiz-adv-x="0" 
d="M-336 1086h-174q0 16 -108.5 164t-110.5 160h255q0 -11 69 -159.5t69 -164.5z" />
    <glyph glyph-name="acutecomb" unicode="&#x301;" horiz-adv-x="0" 
d="M-100 1410q0 -12 -147.5 -160t-147.5 -164h-174q0 16 102 164.5t102 159.5h265z" />
    <glyph glyph-name="uni0302" unicode="&#x302;" horiz-adv-x="0" 
d="M-144 1086h-146q0 13 -140 168q-175 -155 -176 -168h-146q1 13 106 160.5t111 163.5h241q4 -16 77 -163.5t73 -160.5z" />
    <glyph glyph-name="tildecomb" unicode="&#x303;" horiz-adv-x="0" 
d="M-66 1342q-130 -195 -267 -195q-50 0 -113.5 24t-110.5 24q-86 0 -177 -107l-77 75q130 206 267 206q50 0 113.5 -22t110.5 -22q86 0 178 92z" />
    <glyph glyph-name="uni0304" unicode="&#x304;" horiz-adv-x="0" 
d="M-206 1335l-31 -174h-460l30 174h461z" />
    <glyph glyph-name="uni0306" unicode="&#x306;" horiz-adv-x="0" 
d="M-113 1398q-120 -286 -341 -286q-233 0 -283 286l144 50q57 -172 156 -172q95 0 180 172z" />
    <glyph glyph-name="uni0307" unicode="&#x307;" horiz-adv-x="0" 
d="M-255 1271q0 -78 -54 -133.5t-133 -55.5q-61 0 -94 37.5t-33 93.5q0 79 54 133t133 54q127 0 127 -129z" />
    <glyph glyph-name="uni0308" unicode="&#x308;" horiz-adv-x="0" 
d="M-125 1277q0 -66 -45 -112.5t-111 -46.5q-107 0 -107 110q0 66 46 111.5t112 45.5q105 0 105 -108zM-494 1277q0 -66 -45.5 -112.5t-111.5 -46.5q-105 0 -105 109q0 66 45.5 112t111.5 46q105 0 105 -108z" />
    <glyph glyph-name="hookabovecomb" unicode="&#x309;" horiz-adv-x="566" 
d="M191 1096l-22 143q69 17 105 42.5t36 59.5q0 38 -44 56.5t-111 18.5l37 137q81 -3 138 -17t93.5 -38t53 -56t16.5 -70q0 -77 -45.5 -121.5t-120.5 -65.5l-15 -84z" />
    <glyph glyph-name="uni030A" unicode="&#x30a;" horiz-adv-x="0" 
d="M-223 1287q0 -115 -82 -186q-73 -64 -173 -64q-90 0 -151 55q-69 60 -69 166q0 114 82 183q73 63 173 63q90 0 151 -53q69 -60 69 -164zM-337 1278q0 60 -35 94q-32 30 -80 30q-52 0 -90 -35q-42 -39 -42 -103q0 -60 35 -94q32 -31 80 -31q52 0 90 35q42 40 42 104z" />
    <glyph glyph-name="uni030B" unicode="&#x30b;" horiz-adv-x="0" 
d="M-403 1410q-2 -22 -104.5 -165t-103.5 -159h-136q1 16 49.5 159.5t50.5 164.5h244zM-45 1410q-2 -22 -104.5 -165t-103.5 -159h-136q1 16 49.5 159.5t50.5 164.5h244z" />
    <glyph glyph-name="uni030C" unicode="&#x30c;" horiz-adv-x="0" 
d="M-107 1410q-1 -13 -106 -160.5t-111 -163.5h-241q-4 16 -77 163.5t-73 160.5h146q0 -13 140 -168q175 155 176 168h146z" />
    <glyph glyph-name="uni0312" unicode="&#x312;" horiz-adv-x="0" 
d="M-338 1235q0 -62 -44 -107.5t-106 -45.5q-70 0 -101 46t-31 105q0 222 231 351l65 -65q-51 -56 -73 -159q59 -39 59 -125z" />
    <glyph glyph-name="uni0315" unicode="&#x315;" horiz-adv-x="166" 
d="M237 1197q0 -213 -232 -371l-65 65q66 81 83 189q-60 32 -60 92q0 67 48.5 111.5t112.5 44.5q56 0 84.5 -33.5t28.5 -97.5z" />
    <glyph glyph-name="dotbelowcomb" unicode="&#x323;" horiz-adv-x="564" 
d="M391 -245q0 -39 -14.5 -73.5t-39.5 -60t-59.5 -40.5t-73.5 -15q-61 0 -94 37t-33 94q0 39 14.5 73.5t39.5 59.5t59.5 39.5t73.5 14.5q127 0 127 -129z" />
    <glyph glyph-name="uni0326" unicode="&#x326;" horiz-adv-x="0" 
d="M-99 -216q0 -152 -223 -308l-64 64q78 65 87 146q-56 38 -56 102q0 61 42 100.5t104 39.5q52 0 81 -38t29 -106z" />
    <glyph glyph-name="uni0327" unicode="&#x327;" horiz-adv-x="0" 
d="M-168 -262q0 -232 -257 -232l-11 112q41 0 72 29t31 69q0 97 -109 119l61 217l81 -14l-26 -108q158 -55 158 -192z" />
    <glyph glyph-name="uni0328" unicode="&#x328;" horiz-adv-x="0" 
d="M-125 10q-199 -81 -199 -232q0 -107 100 -107q30 0 76 10l11 -149q-61 -18 -134 -18q-126 0 -182 59t-56 157q0 144 149 280h235z" />
    <glyph glyph-name="uni0344" unicode="&#x344;" horiz-adv-x="0" 
d="M154 1648q-1 -22 -146.5 -195t-146.5 -199h-150q2 33 83.5 203t82.5 191h277zM179 1272q0 -66 -45 -112.5t-111 -46.5q-106 0 -106 109q0 66 46 112t112 46q104 0 104 -108zM-326 1272q0 -66 -45.5 -112.5t-111.5 -46.5q-105 0 -105 109q0 66 45.5 112t111.5 46
q105 0 105 -108z" />
    <glyph glyph-name="uni0374" unicode="&#x374;" horiz-adv-x="473" 
d="M473 1410q-1 -22 -151.5 -160t-151.5 -164h-170q2 33 98.5 168t97.5 156h277z" />
    <glyph glyph-name="uni0375" unicode="&#x375;" horiz-adv-x="473" 
d="M473 -100q-2 -33 -98.5 -168t-97.5 -156h-277q1 22 151.5 160t151.5 164h170z" />
    <glyph glyph-name="uni037E" unicode="&#x37e;" horiz-adv-x="503" 
d="M448 818q0 -85 -57 -145t-143 -60q-65 0 -99.5 41t-34.5 101q0 85 57.5 143t142.5 58q134 0 134 -138zM399 178q0 -251 -359 -568l-81 67q146 151 164 327q-57 39 -57 123q0 87 56.5 146.5t134.5 59.5q75 0 108.5 -46t33.5 -109zM0 -10z" />
    <glyph glyph-name="tonos" unicode="&#x384;" horiz-adv-x="562" 
d="M584 1510q-1 -22 -141.5 -195t-141.5 -199h-170q2 33 88.5 203t87.5 191h277z" />
    <glyph glyph-name="dieresistonos" unicode="&#x385;" horiz-adv-x="836" 
d="M842 1648q-1 -22 -146.5 -195t-146.5 -199h-150q2 33 83.5 203t82.5 191h277zM867 1272q0 -66 -45 -112.5t-111 -46.5q-106 0 -106 109q0 66 46 112t112 46q104 0 104 -108zM362 1272q0 -66 -45.5 -112.5t-111.5 -46.5q-105 0 -105 109q0 66 45.5 112t111.5 46
q105 0 105 -108z" />
    <glyph glyph-name="Alphatonos" unicode="&#x386;" horiz-adv-x="1397" 
d="M1320 0h-304q0 109 -48 374h-438q-36 -85 -62 -154q-64 -164 -67 -220h-286q3 37 289 640.5t292 661.5h358q0 -113 133 -647t133 -655zM940 565q-104 513 -104 558h-15q-4 -35 -227 -558h346zM584 1510q-1 -22 -141.5 -195t-141.5 -199h-170q2 33 88.5 203t87.5 191h277z
" />
    <glyph glyph-name="anoteleia" unicode="&#x387;" horiz-adv-x="500" 
d="M443 824q0 -85 -57 -145t-143 -60q-65 0 -99.5 41t-34.5 101q0 85 57.5 143t142.5 58q134 0 134 -138z" />
    <glyph glyph-name="Epsilontonos" unicode="&#x388;" horiz-adv-x="1384" 
d="M1342 1302l-31 -219q-281 16 -513 16q-7 -107 -26 -328q198 0 425 11l-23 -209q-219 10 -422 10q-21 -203 -34 -380q260 0 558 17l-32 -220h-808q21 137 84 681q38 364 43 621h779zM584 1510q-1 -22 -141.5 -195t-141.5 -199h-170q2 33 88.5 203t87.5 191h277z" />
    <glyph glyph-name="Etatonos" unicode="&#x389;" horiz-adv-x="1663" 
d="M1581 1302q-19 -113 -79 -621q-40 -383 -49 -681h-278q21 156 70 574h-478q-23 -218 -41 -574h-279q22 151 84 681q37 355 43 621h279q-20 -131 -67 -520h484q24 227 31 520h280zM584 1510q-1 -22 -141.5 -195t-141.5 -199h-170q2 33 88.5 203t87.5 191h277z" />
    <glyph glyph-name="Iotatonos" unicode="&#x38a;" horiz-adv-x="923" 
d="M840 1302q-18 -112 -78 -621q-37 -348 -49 -681h-280q22 141 86 681q38 365 41 621h280zM584 1510q-1 -22 -141.5 -195t-141.5 -199h-170q2 33 88.5 203t87.5 191h277z" />
    <glyph glyph-name="Omicrontonos" unicode="&#x38c;" horiz-adv-x="1623" 
d="M1568 741q0 -309 -198.5 -543t-499.5 -234q-228 0 -376.5 168t-148.5 423q0 312 200 544.5t499 232.5q228 0 376 -167.5t148 -423.5zM1303 722q0 179 -87.5 286t-219.5 107q-174 0 -279 -168t-105 -369q0 -179 87 -286.5t219 -107.5q173 0 279 170t106 368zM584 1510
q-1 -22 -141.5 -195t-141.5 -199h-170q2 33 88.5 203t87.5 191h277z" />
    <glyph glyph-name="Upsilontonos" unicode="&#x38e;" horiz-adv-x="1488" 
d="M1540 1302q0 -42 -171.5 -284t-249.5 -362.5t-88 -217.5q-23 -220 -24 -438h-280q58 381 58 467q0 143 -148 474.5t-148 360.5h298q0 -63 85 -312t85 -337h15q7 68 152.5 324t145.5 325h270zM584 1510q-1 -22 -141.5 -195t-141.5 -199h-170q2 33 88.5 203t87.5 191h277z
" />
    <glyph glyph-name="Omegatonos" unicode="&#x38f;" horiz-adv-x="1658" 
d="M584 1510q-1 -22 -141.5 -195t-141.5 -199h-170q2 33 88.5 203t87.5 191h277zM1593 819q0 -173 -72 -293.5t-180 -217.5q-91 -82 -93 -100l-2 -16q148 0 318 29l-33 -221h-518q14 132 97 262q71 109 144 223.5t73 292.5q0 150 -84.5 242t-216.5 92q-183 0 -273.5 -129
t-90.5 -328q0 -128 86 -318q83 -182 75 -337h-519l14 221q167 -30 293 -30l2 16v4q0 23 -55 93q-70 88 -113 177t-43 218q0 283 189 459t478 176q234 0 379 -147.5t145 -367.5z" />
    <glyph glyph-name="iotadieresistonos" unicode="&#x390;" horiz-adv-x="537" 
d="M509 208l-35 -169q-91 -60 -206 -60q-95 0 -140 51t-45 204q0 233 86 715l231 23q-86 -436 -86 -671q0 -75 15 -102.5t65 -27.5q40 0 115 37zM681 1648q-1 -22 -146.5 -195t-146.5 -199h-150q2 33 83.5 203t82.5 191h277zM706 1272q0 -66 -45 -112.5t-111 -46.5
q-106 0 -106 109q0 66 46 112t112 46q104 0 104 -108zM201 1272q0 -66 -45.5 -112.5t-111.5 -46.5q-105 0 -105 109q0 66 45.5 112t111.5 46q105 0 105 -108z" />
    <glyph glyph-name="Alpha" unicode="&#x391;" horiz-adv-x="1222" 
d="M1145 0h-304q0 109 -48 374h-438q-36 -85 -62 -154q-64 -164 -67 -220h-286q3 37 289 640.5t292 661.5h358q0 -113 133 -647t133 -655zM765 565q-104 513 -104 558h-15q-4 -35 -227 -558h346z" />
    <glyph glyph-name="Beta" unicode="&#x392;" horiz-adv-x="1169" 
d="M1089 420q0 -426 -662 -426q-107 0 -343 6q20 137 83 681q38 364 43 621h164q43 0 152 3t167 3q180 0 286 -67.5t106 -199.5q0 -112 -69.5 -200t-178.5 -115l-1 -15q100 -17 176.5 -90t76.5 -201zM832 406q0 174 -313 174q-65 0 -123 -5q-22 -209 -33 -385q42 -8 106 -8
q195 0 279 54t84 170zM821 968q0 152 -196 152q-98 0 -182 -15q0 -41 -28 -347q45 -2 85 -2q321 0 321 212z" />
    <glyph glyph-name="Gamma" unicode="&#x393;" horiz-adv-x="975" 
d="M1005 1302l-30 -219q-290 16 -530 16q-2 -77 -27 -379q-26 -240 -63 -720h-271q21 137 85 681q36 340 47 621h789z" />
    <glyph glyph-name="uni0394" unicode="&#x394;" horiz-adv-x="1193" 
d="M1126 0h-1166q0 43 279.5 643t282.5 659h355q0 -109 124.5 -638t124.5 -664zM811 203q-13 96 -87 503q-62 342 -62 417h-14q-6 -58 -141 -387q-162 -394 -208 -533h512z" />
    <glyph glyph-name="Epsilon" unicode="&#x395;" horiz-adv-x="1031" 
d="M989 1302l-31 -219q-281 16 -513 16q-7 -107 -26 -328q198 0 425 11l-23 -209q-219 10 -422 10q-21 -203 -34 -380q260 0 558 17l-32 -220h-808q21 137 84 681q38 364 43 621h779z" />
    <glyph glyph-name="Zeta" unicode="&#x396;" horiz-adv-x="1023" 
d="M994 1302l-35 -207q-122 -155 -356 -492.5t-236 -384.5l-1 -15q200 0 535 23l-30 -226h-849l35 205q122 147 368.5 493.5t249.5 391.5l1 16q-227 0 -524 -23l29 219h813z" />
    <glyph glyph-name="Eta" unicode="&#x397;" horiz-adv-x="1299" 
d="M1217 1302q-19 -113 -79 -621q-40 -383 -49 -681h-278q21 156 70 574h-478q-23 -218 -41 -574h-279q22 151 84 681q37 355 43 621h279q-20 -131 -67 -520h484q24 227 31 520h280z" />
    <glyph glyph-name="Theta" unicode="&#x398;" horiz-adv-x="1333" 
d="M1278 741q0 -306 -197 -541.5t-501 -235.5q-228 0 -376.5 168t-148.5 423q0 308 198.5 542.5t500.5 234.5q228 0 376 -167.5t148 -423.5zM1013 722q0 179 -87.5 286t-219.5 107q-177 0 -280.5 -171.5t-103.5 -365.5q0 -179 87 -286.5t219 -107.5q176 0 280.5 172.5
t104.5 365.5zM860 779l-22 -216q-75 10 -177 10q-91 0 -182 -10l23 216q95 -10 184 -10q97 0 174 10z" />
    <glyph glyph-name="Iota" unicode="&#x399;" horiz-adv-x="574" 
d="M491 1302q-18 -112 -78 -621q-37 -348 -49 -681h-280q22 141 86 681q38 365 41 621h280z" />
    <glyph glyph-name="Kappa" unicode="&#x39a;" horiz-adv-x="1180" 
d="M1158 1302q0 -32 -202.5 -252.5t-293.5 -283.5l-2 -15q86 -47 260.5 -367t174.5 -384h-301q0 59 -138.5 332.5t-208.5 273.5h-42q-24 -228 -44 -606h-277q20 137 83 681q38 364 43 621h279q-19 -129 -65 -520h21q42 0 229 243.5t187 276.5h297z" />
    <glyph glyph-name="Lambda" unicode="&#x39b;" horiz-adv-x="1193" 
d="M1126 0h-305q0 143 -79.5 584t-79.5 539h-14q-6 -58 -207 -546q-195 -475 -195 -577h-286q0 42 281 641.5t281 660.5h355q0 -120 124.5 -646.5t124.5 -655.5z" />
    <glyph glyph-name="Mu" unicode="&#x39c;" horiz-adv-x="1658" 
d="M1533 1302q-33 -285 -33 -712q0 -281 15 -590h-285q0 415 60 1082h-16q-15 -63 -64 -204t-196 -476.5t-154 -401.5h-217q0 79 -75.5 416t-91 437t-27.5 229h-15q-13 -115 -82 -574t-69 -508h-258q0 27 129 619.5t141 682.5h364q0 -137 73.5 -495.5t73.5 -487.5h15
q10 97 173.5 495t172.5 488h366z" />
    <glyph glyph-name="Nu" unicode="&#x39d;" horiz-adv-x="1323" 
d="M1239 1302q-18 -110 -78 -621q-40 -376 -59 -681h-234q0 48 -225 460q-234 429 -259 569h-15q11 -76 11 -153q0 -117 -18 -285q-26 -246 -45 -591h-233q21 141 84 681q38 365 42 621h292q0 -66 202 -454q213 -408 236 -533h14q-12 58 -12 123q0 138 19 319q30 289 34 545
h244z" />
    <glyph glyph-name="Xi" unicode="&#x39e;" horiz-adv-x="1088" 
d="M958 234l-32 -234h-894l34 234q223 -18 451 -18q215 0 441 18zM1056 1302l-32 -231q-241 16 -434 16q-196 0 -424 -16l31 231h859zM886 787l-24 -224q-143 9 -307 9t-328 -9l24 224q177 -11 322 -11q144 0 313 11z" />
    <glyph glyph-name="Omicron" unicode="&#x39f;" horiz-adv-x="1333" 
d="M1278 741q0 -309 -198.5 -543t-499.5 -234q-228 0 -376.5 168t-148.5 423q0 312 200 544.5t499 232.5q228 0 376 -167.5t148 -423.5zM1013 722q0 179 -87.5 286t-219.5 107q-174 0 -279 -168t-105 -369q0 -179 87 -286.5t219 -107.5q173 0 279 170t106 368z" />
    <glyph glyph-name="Pi" unicode="&#x3a0;" horiz-adv-x="1303" 
d="M1219 1302q-19 -124 -76 -617q-37 -348 -55 -685h-275q19 128 80 660q23 216 62 433h-513q-6 -130 -28 -420q-43 -409 -56 -673h-274q22 160 82 685q35 328 49 617h1004z" />
    <glyph glyph-name="Rho" unicode="&#x3a1;" horiz-adv-x="1133" 
d="M1090 978q0 -239 -175 -361.5t-467 -122.5q-37 0 -56 2q-20 -188 -31 -496h-277q20 129 84 681q38 360 43 621h174q35 0 136 3t174 3q164 0 279.5 -87t115.5 -243zM838 935q0 185 -249 185q-67 0 -141 -15q-5 -85 -37 -428q23 -2 55 -2q372 0 372 260z" />
    <glyph glyph-name="Sigma" unicode="&#x3a3;" horiz-adv-x="1036" 
d="M1009 1302l-31 -219q-286 23 -489 23l1 -18q0 -42 265 -362q-419 -439 -419 -479l-1 -16q367 0 609 23l-35 -254h-956q8 77 522 683l1 15q-363 503 -363 604h896z" />
    <glyph glyph-name="Tau" unicode="&#x3a4;" horiz-adv-x="1061" 
d="M1091 1302l-29 -215q-189 15 -356 15q-12 -91 -47 -421q-41 -387 -51 -681h-276q21 145 84 681q24 227 40 421q-134 0 -370 -16l31 216h974z" />
    <glyph glyph-name="Upsilon" unicode="&#x3a5;" horiz-adv-x="1065" 
d="M1117 1302q0 -42 -171.5 -284t-249.5 -362.5t-88 -217.5q-23 -220 -24 -438h-280q58 381 58 467q0 143 -148 474.5t-148 360.5h298q0 -63 85 -312t85 -337h15q7 68 152.5 324t145.5 325h270z" />
    <glyph glyph-name="Phi" unicode="&#x3a6;" horiz-adv-x="1363" 
d="M1319 732q0 -244 -160.5 -412t-407.5 -214q-6 -89 -6 -146h-272q5 27 22 143q-208 28 -329.5 174t-121.5 341q0 244 160.5 411.5t408.5 211.5q4 61 3 101h271q-3 -18 -16 -98q208 -29 328 -172t120 -340zM602 1070q-155 -41 -233.5 -158.5t-78.5 -287.5q0 -272 228 -348
q13 96 49 405q19 180 35 389zM1076 742q0 255 -230 327q-12 -93 -45 -388q-20 -186 -38 -407q151 44 232 173t81 295z" />
    <glyph glyph-name="Chi" unicode="&#x3a7;" horiz-adv-x="1186" 
d="M1182 1302q0 -27 -190.5 -277.5t-240.5 -296.5l-1 -15q55 -67 198.5 -367t143.5 -346h-320q0 40 -88 260t-123 280h-16q-50 -63 -171 -282t-121 -258h-304q0 29 221 336t279 362l1 15q-43 59 -171.5 307t-128.5 282h306q0 -36 74 -219t102 -225h15q42 49 148.5 230.5
t106.5 213.5h280z" />
    <glyph glyph-name="Psi" unicode="&#x3a8;" horiz-adv-x="1436" 
d="M1428 1264q-14 -42 -34.5 -116.5t-32.5 -203.5q-25 -241 -163.5 -357t-376.5 -156q-24 -246 -29 -431h-274q13 84 55 427q-213 28 -325 119.5t-112 282.5q0 44 7.5 130.5t7.5 130.5q0 98 -11 174l211 31q31 -69 30.5 -190t-0.5 -150q0 -178 46 -248t168 -94
q45 429 55 689h274q-20 -127 -85 -689q133 20 195 109t99 282q40 209 94 291z" />
    <glyph glyph-name="uni03A9" unicode="&#x3a9;" horiz-adv-x="1351" 
d="M1286 819q0 -173 -72 -293.5t-180 -217.5q-91 -82 -93 -100l-2 -16q148 0 318 29l-33 -221h-518q14 132 97 262q71 109 144 223.5t73 292.5q0 150 -84.5 242t-216.5 92q-183 0 -273.5 -129t-90.5 -328q0 -128 86 -318q83 -182 75 -337h-519l14 221q167 -30 293 -30l2 16
v4q0 23 -55 93q-70 88 -113 177t-43 218q0 283 189 459t478 176q234 0 379 -147.5t145 -367.5z" />
    <glyph glyph-name="Iotadieresis" unicode="&#x3aa;" horiz-adv-x="574" 
d="M491 1302q-18 -112 -78 -621q-37 -348 -49 -681h-280q22 141 86 681q38 365 41 621h280zM686 1583q0 -66 -45 -112.5t-111 -46.5q-107 0 -107 110q0 66 46 111.5t112 45.5q105 0 105 -108zM317 1583q0 -66 -45.5 -112.5t-111.5 -46.5q-105 0 -105 109q0 66 45.5 112
t111.5 46q105 0 105 -108z" />
    <glyph glyph-name="Upsilondieresis" unicode="&#x3ab;" horiz-adv-x="1065" 
d="M1117 1302q0 -42 -171.5 -284t-249.5 -362.5t-88 -217.5q-23 -220 -24 -438h-280q58 381 58 467q0 143 -148 474.5t-148 360.5h298q0 -63 85 -312t85 -337h15q7 68 152.5 324t145.5 325h270zM922 1583q0 -66 -45 -112.5t-111 -46.5q-107 0 -107 110q0 66 46 111.5
t112 45.5q105 0 105 -108zM553 1583q0 -66 -45.5 -112.5t-111.5 -46.5q-105 0 -105 109q0 66 45.5 112t111.5 46q105 0 105 -108z" />
    <glyph glyph-name="alphatonos" unicode="&#x3ac;" horiz-adv-x="1170" 
d="M1111 221l-34 -177q-79 -64 -179 -64q-78 0 -121 46t-53 185h-12q-176 -246 -352 -246q-287 0 -287 402q0 251 117 434t338 183q113 0 171 -84t85 -297h13q42 100 72.5 215t30.5 152l208 -31q0 -42 -89 -234t-173 -333q12 -124 42.5 -163.5t83.5 -39.5q46 0 139 52z
M690 398q-50 400 -179 400q-103 0 -148 -124t-45 -278q0 -241 118 -241q107 0 254 243zM925 1510q-1 -22 -141.5 -195t-141.5 -199h-170q2 33 88.5 203t87.5 191h277z" />
    <glyph glyph-name="epsilontonos" unicode="&#x3ad;" horiz-adv-x="895" 
d="M862 956l-48 -182q-117 35 -257 35q-186 0 -186 -125q0 -107 221 -107q60 0 139 8l-38 -175q-63 9 -117 9q-260 0 -260 -150q0 -115 182 -115q127 0 326 88l-30 -185q-158 -84 -354 -84q-369 0 -369 247q0 105 60.5 172t166.5 85l2 15q-166 59 -166 202q0 151 125.5 219
t291.5 68q187 0 311 -25zM938 1510q-1 -22 -141.5 -195t-141.5 -199h-170q2 33 88.5 203t87.5 191h277z" />
    <glyph glyph-name="etatonos" unicode="&#x3ae;" horiz-adv-x="1088" 
d="M992 712q0 -86 -30.5 -272.5t-35.5 -230.5q-35 -333 -35 -639l-244 -36q0 239 36 582q4 39 32.5 223t28.5 282q0 158 -120 158q-99 0 -169 -109.5t-88 -252.5q-25 -197 -44 -422l-254 10q92 385 92 589q0 178 -74 308l225 71q19 -27 43 -81.5t28 -142.5h8
q123 232 335 232q266 0 266 -269zM1023 1510q-1 -22 -141.5 -195t-141.5 -199h-170q2 33 88.5 203t87.5 191h277z" />
    <glyph glyph-name="iotatonos" unicode="&#x3af;" horiz-adv-x="537" 
d="M509 208l-35 -169q-91 -60 -206 -60q-95 0 -140 51t-45 204q0 233 86 715l231 23q-86 -436 -86 -671q0 -75 15 -102.5t65 -27.5q40 0 115 37zM654 1510q-1 -22 -141.5 -195t-141.5 -199h-170q2 33 88.5 203t87.5 191h277z" />
    <glyph glyph-name="upsilondieresistonos" unicode="&#x3b0;" horiz-adv-x="1080" 
d="M1010 639q0 -257 -149.5 -464.5t-397.5 -207.5q-168 0 -258 76.5t-90 267.5q0 59 17.5 176t17.5 173q0 151 -71 271l262 41q62 -102 62 -233q0 -57 -17.5 -171.5t-17.5 -171.5q0 -133 36 -183t107 -50q137 0 195.5 166.5t58.5 388.5q0 125 -24 227l126 27
q143 -123 143 -333zM948 1648q-1 -22 -146.5 -195t-146.5 -199h-150q2 33 83.5 203t82.5 191h277zM973 1272q0 -66 -45 -112.5t-111 -46.5q-106 0 -106 109q0 66 46 112t112 46q104 0 104 -108zM468 1272q0 -66 -45.5 -112.5t-111.5 -46.5q-105 0 -105 109q0 66 45.5 112
t111.5 46q105 0 105 -108z" />
    <glyph glyph-name="alpha" unicode="&#x3b1;" horiz-adv-x="1170" 
d="M1111 221l-34 -177q-79 -64 -179 -64q-78 0 -121 46t-53 185h-12q-176 -246 -352 -246q-287 0 -287 402q0 251 117 434t338 183q113 0 171 -84t85 -297h13q42 100 72.5 215t30.5 152l208 -31q0 -42 -89 -234t-173 -333q12 -124 42.5 -163.5t83.5 -39.5q46 0 139 52z
M690 398q-50 400 -179 400q-103 0 -148 -124t-45 -278q0 -241 118 -241q107 0 254 243z" />
    <glyph glyph-name="beta" unicode="&#x3b2;" horiz-adv-x="1056" 
d="M1015 1185q0 -112 -76 -206q-66 -81 -165 -125l-1 -15q203 -100 203 -356q0 -220 -148 -363t-370 -143q-203 0 -294 120.5t-91 414.5q0 370 163 651t475 281q125 0 214.5 -67.5t89.5 -191.5zM733 497q0 183 -118 273q-80 -32 -285 -81q-14 -136 -14 -220q0 -168 42 -237
t139 -69q120 0 178 99.5t58 234.5zM783 1148q0 123 -133 123q-100 0 -182.5 -107t-118.5 -329q118 5 276 86.5t158 226.5z" />
    <glyph glyph-name="gamma" unicode="&#x3b3;" horiz-adv-x="993" 
d="M954 835q0 -118 -108 -319q-62 -115 -197 -317.5t-150 -248.5q0 -234 -54 -391l-217 -37q-9 59 -10 148q1 144 90 330q0 571 -274 876l238 95q82 -78 142.5 -277.5t60.5 -499.5h13q66 142 132 283q116 265 116 463l189 31q29 -56 29 -136z" />
    <glyph glyph-name="delta" unicode="&#x3b4;" horiz-adv-x="1073" 
d="M1069 1324l-67 -201q-236 150 -411 150q-101 0 -102 -76q0 -35 135 -147q176 -146 251 -238q135 -166 135 -333q0 -232 -148 -375t-385 -143q-187 0 -300.5 104.5t-113.5 283.5q0 217 157 374q104 103 242 157l1 15q-114 112 -141 148q-53 72 -53 152q0 254 345 254
q251 0 455 -125zM759 448q0 191 -184 341q-259 -108 -259 -415q0 -230 199 -230q118 0 181 91t63 213z" />
    <glyph glyph-name="epsilon" unicode="&#x3b5;" horiz-adv-x="895" 
d="M862 956l-48 -182q-117 35 -257 35q-186 0 -186 -125q0 -107 221 -107q60 0 139 8l-38 -175q-63 9 -117 9q-260 0 -260 -150q0 -115 182 -115q127 0 326 88l-30 -185q-158 -84 -354 -84q-369 0 -369 247q0 105 60.5 172t166.5 85l2 15q-166 59 -166 202q0 151 125.5 219
t291.5 68q187 0 311 -25z" />
    <glyph glyph-name="zeta" unicode="&#x3b6;" horiz-adv-x="825" 
d="M877 1264q-149 -71 -356.5 -305t-207.5 -545q0 -101 52 -148q41 -37 152 -63q264 -63 264 -247q0 -185 -168 -323l-96 38q45 113 45 187q0 100 -177 141q-322 75 -322 382q0 239 163 469q143 202 363 337l2 16q-139 -24 -325 -24l45 208q339 0 548 43z" />
    <glyph glyph-name="eta" unicode="&#x3b7;" horiz-adv-x="1088" 
d="M992 712q0 -86 -30.5 -272.5t-35.5 -230.5q-35 -333 -35 -639l-244 -36q0 239 36 582q4 39 32.5 223t28.5 282q0 158 -120 158q-99 0 -169 -109.5t-88 -252.5q-25 -197 -44 -422l-254 10q92 385 92 589q0 178 -74 308l225 71q19 -27 43 -81.5t28 -142.5h8
q123 232 335 232q266 0 266 -269z" />
    <glyph glyph-name="theta" unicode="&#x3b8;" horiz-adv-x="1133" 
d="M1070 848q0 -375 -153.5 -629t-453.5 -254q-184 0 -259.5 82.5t-94.5 261.5q-12 110 -63 220l196 46q25 -20 45 -49q47 -69 59 -172q14 -113 49 -160.5t114 -47.5q131 0 207 147t96 351q-112 -34 -274 -34q-187 0 -296 107.5t-109 278.5q0 210 129.5 321t346.5 111
q223 0 342 -172t119 -408zM829 859q0 195 -75 293.5t-170 98.5q-102 0 -157.5 -63t-55.5 -162q0 -115 58.5 -179t151.5 -64q146 0 246 24q2 33 2 52z" />
    <glyph glyph-name="iota" unicode="&#x3b9;" horiz-adv-x="537" 
d="M509 208l-35 -169q-91 -60 -206 -60q-95 0 -140 51t-45 204q0 233 86 715l231 23q-86 -436 -86 -671q0 -75 15 -102.5t65 -27.5q40 0 115 37z" />
    <glyph glyph-name="kappa" unicode="&#x3ba;" horiz-adv-x="1150" 
d="M1117 219l-25 -179q-88 -61 -217 -61q-98 0 -168 62t-70 201q0 126 84 263l-14 10q-9 -14 -231 -268q-204 -233 -208 -270l-223 41q1 14 72 106q83 110 139 228t56 261q0 179 -97 179q-51 0 -102 -35l25 179q53 45 172 45q87 0 147 -66.5t60 -204.5q0 -134 -81 -281
l14 -10q6 10 217 272q192 238 196 280l227 -41q-2 -23 -67 -109q-79 -105 -129 -210.5t-50 -246.5q0 -196 131 -196q59 0 142 51z" />
    <glyph glyph-name="lambda" unicode="&#x3bb;" horiz-adv-x="960" 
d="M948 67l-250 -103q-36 48 -63 129q-66 193 -79 565h-14q-1 -56 -146.5 -314.5t-155.5 -353.5l-259 20q9 84 277.5 461t288.5 429q0 177 -51 236.5t-151 59.5q-71 0 -136 -32l44 208q82 43 184 43q151 0 214 -90.5t63 -349.5q0 -689 234 -908z" />
    <glyph glyph-name="uni03BC" unicode="&#x3bc;" horiz-adv-x="1132" 
d="M1101 207l-34 -168q-89 -60 -207 -60q-98 0 -132 51t-34 152h-15q-104 -207 -271 -207q-78 0 -127 61t-58 143h-14q-11 -120 -11 -193q0 -227 97 -398l-228 -70q-46 68 -46 180q0 105 37.5 303.5t44.5 262.5q34 324 34 690l272 17q-60 -305 -60 -562q0 -244 132 -244
q79 0 141.5 106t82.5 264q18 148 28 413l265 23q-21 -113 -69 -490q-13 -124 -13 -184q0 -127 61 -127q49 0 124 37z" />
    <glyph glyph-name="nu" unicode="&#x3bd;" horiz-adv-x="959" 
d="M920 802q0 -177 -84.5 -325t-211.5 -295.5t-137 -182.5h-186q0 282 -89 543.5t-178 370.5l258 63q65 -70 123.5 -297t58.5 -462h12q206 305 206 723l184 31q44 -66 44 -169z" />
    <glyph glyph-name="xi" unicode="&#x3be;" horiz-adv-x="840" 
d="M872 1264q-433 -121 -433 -310q0 -63 41.5 -80.5t136.5 -17.5q65 0 158 9l-45 -222q-66 13 -134 13q-121 0 -203 -74.5t-82 -195.5q0 -82 54 -125q45 -35 156 -63q265 -66 265 -247q0 -101 -56.5 -191t-112.5 -127l-96 38q45 94 45 181q0 103 -177 147q-146 37 -220 95
q-106 85 -106 237q0 130 85.5 236t221.5 137l2 16q-166 63 -166 187q0 103 88 177t215 109l1 15q-166 -24 -306 -24l44 208q370 0 606 43z" />
    <glyph glyph-name="omicron" unicode="&#x3bf;" horiz-adv-x="1095" 
d="M1032 548q0 -244 -155.5 -415.5t-399.5 -171.5q-170 0 -292 124.5t-122 329.5q0 243 156 411t401 168q171 0 291.5 -120.5t120.5 -325.5zM779 526q0 124 -53.5 203.5t-145.5 79.5q-118 0 -191.5 -119t-73.5 -262q0 -124 54 -203.5t147 -79.5q121 0 192 117.5t71 263.5z
" />
    <glyph glyph-name="pi" unicode="&#x3c0;" horiz-adv-x="1225" 
d="M1199 961l-29 -214q-118 7 -229 7q-43 -222 -43 -410q0 -174 87 -174q59 0 129 38l-34 -169q-75 -60 -186 -60q-233 0 -233 274q0 224 92 487l2 14h-231q-93 -589 -183 -764l-252 20q53 95 97 203q105 260 150 541h-84q-76 0 -196 -44l24 115q105 125 331 125
q491 0 788 11z" />
    <glyph glyph-name="rho" unicode="&#x3c1;" horiz-adv-x="1034" 
d="M971 552q0 -220 -128.5 -401t-339.5 -181q-175 0 -226 171h-12q-6 -101 -6 -235q0 -183 28 -340l-237 -43q-36 56 -36 230q0 789 136.5 1015t429.5 226q192 0 291.5 -126.5t99.5 -315.5zM720 532q0 275 -188 275q-210 0 -247 -425q59 -226 205 -226q117 0 173.5 120
t56.5 256z" />
    <glyph glyph-name="sigma1" unicode="&#x3c2;" horiz-adv-x="842" 
d="M821 964l-54 -206q-79 32 -186 32q-136 0 -209.5 -95.5t-73.5 -235.5q0 -169 180 -251q138 -63 193 -124.5t55 -146.5q0 -92 -50.5 -178.5t-131.5 -125.5l-85 38q48 96 48 171q0 86 -161 162q-283 133 -283 427q0 251 147.5 399.5t402.5 148.5q123 0 208 -15z" />
    <glyph glyph-name="sigma" unicode="&#x3c3;" horiz-adv-x="1095" 
d="M1090 982l-31 -166q-97 -55 -215 -55l-2 -20q118 -102 118 -297q0 -209 -146 -346t-367 -137q-173 0 -278.5 115.5t-105.5 326.5q0 242 146 397t392 155q335 0 489 27zM732 502q0 155 -75 264q-42 9 -80 9q-137 0 -200 -107t-63 -252q0 -268 178 -268q121 0 180.5 110.5
t59.5 243.5z" />
    <glyph glyph-name="tau" unicode="&#x3c4;" horiz-adv-x="985" 
d="M959 961l-30 -211q-132 4 -348 4q-42 -281 -42 -400q0 -184 91 -184q84 0 175 38l-35 -169q-94 -60 -249 -60q-106 0 -162.5 52.5t-56.5 209.5q0 259 90 499l2 14h-135q-102 0 -203 -44l21 115q91 125 302 125q346 0 580 11z" />
    <glyph glyph-name="upsilon" unicode="&#x3c5;" horiz-adv-x="1080" 
d="M1010 639q0 -257 -149.5 -464.5t-397.5 -207.5q-168 0 -258 76.5t-90 267.5q0 59 17.5 176t17.5 173q0 151 -71 271l262 41q62 -102 62 -233q0 -57 -17.5 -171.5t-17.5 -171.5q0 -133 36 -183t107 -50q137 0 195.5 166.5t58.5 388.5q0 125 -24 227l126 27
q143 -123 143 -333z" />
    <glyph glyph-name="phi" unicode="&#x3c6;" horiz-adv-x="1480" 
d="M1417 639q0 -259 -182.5 -446.5t-444.5 -221.5q-20 -322 -102 -461l-185 9q18 66 39 206.5t24 245.5q-226 14 -364.5 124.5t-138.5 320.5q0 229 132.5 382t358.5 201l40 -147q-280 -97 -280 -423q0 -133 63.5 -199t200.5 -82q4 111 22 353q52 493 435 493
q191 0 286.5 -98t95.5 -257zM1165 619q0 190 -149 190q-87 0 -135 -64t-67 -242q-13 -126 -19 -355q172 33 271 162.5t99 308.5z" />
    <glyph glyph-name="chi" unicode="&#x3c7;" horiz-adv-x="1004" 
d="M992 950q-18 -176 -410 -688q102 -312 156.5 -404.5t110.5 -92.5q47 0 103 28l-44 -229q-69 -47 -167 -47q-84 0 -150.5 128.5t-138.5 447.5h-16q-64 -121 -156.5 -297t-102.5 -273l-247 20q17 165 448 773q-85 283 -128.5 350.5t-120.5 67.5q-30 0 -74 -17l44 227
q50 33 127 33q99 0 156 -102t122 -404h12q225 383 234 500z" />
    <glyph glyph-name="psi" unicode="&#x3c8;" horiz-adv-x="1406" 
d="M1335 621q0 -262 -155.5 -429t-431.5 -200q-25 -252 -38 -428l-234 -41q12 90 56 465q-234 14 -341 111t-107 291q0 51 20.5 180t20.5 204q0 81 -22 155l203 41q53 -101 53 -264q0 -46 -15.5 -136t-15.5 -136q0 -130 49 -194.5t175 -81.5l42 373q56 529 100 877l181 15
q-36 -483 -75 -892q-12 -127 -36 -371q335 61 335 576q0 104 -23 210l149 30q110 -135 110 -355z" />
    <glyph glyph-name="omega" unicode="&#x3c9;" horiz-adv-x="1464" 
d="M1401 511q0 -236 -121 -390t-345 -154q-118 0 -172 53.5t-79 155.5h-20q-37 -81 -112 -145t-174 -64q-315 0 -315 382q0 188 84.5 350.5t226.5 276.5l135 -72q-185 -216 -185 -490q0 -251 141 -251q97 0 167 139l2 20q-9 88 -9 163q0 91 22 198.5t61 153.5l127 10
q30 -86 30 -206q0 -202 -57 -319l-2 -20q31 -139 129 -139q101 0 160.5 108.5t59.5 266.5q0 124 -32.5 207.5t-75.5 138.5l140 82q214 -191 214 -455z" />
    <glyph glyph-name="iotadieresis" unicode="&#x3ca;" horiz-adv-x="537" 
d="M630 1277q0 -66 -45 -112.5t-111 -46.5q-107 0 -107 110q0 66 46 111.5t112 45.5q105 0 105 -108zM291 1277q0 -66 -45.5 -112.5t-111.5 -46.5q-105 0 -105 109q0 66 45.5 112t111.5 46q105 0 105 -108zM509 208l-35 -169q-91 -60 -206 -60q-95 0 -140 51t-45 204
q0 233 86 715l231 23q-86 -436 -86 -671q0 -75 15 -102.5t65 -27.5q40 0 115 37z" />
    <glyph glyph-name="upsilondieresis" unicode="&#x3cb;" horiz-adv-x="1080" 
d="M1010 639q0 -257 -149.5 -464.5t-397.5 -207.5q-168 0 -258 76.5t-90 267.5q0 59 17.5 176t17.5 173q0 151 -71 271l262 41q62 -102 62 -233q0 -57 -17.5 -171.5t-17.5 -171.5q0 -133 36 -183t107 -50q137 0 195.5 166.5t58.5 388.5q0 125 -24 227l126 27
q143 -123 143 -333zM916 1277q0 -66 -45 -112.5t-111 -46.5q-107 0 -107 110q0 66 46 111.5t112 45.5q105 0 105 -108zM547 1277q0 -66 -45.5 -112.5t-111.5 -46.5q-105 0 -105 109q0 66 45.5 112t111.5 46q105 0 105 -108z" />
    <glyph glyph-name="omicrontonos" unicode="&#x3cc;" horiz-adv-x="1095" 
d="M1032 548q0 -244 -155.5 -415.5t-399.5 -171.5q-170 0 -292 124.5t-122 329.5q0 243 156 411t401 168q171 0 291.5 -120.5t120.5 -325.5zM779 526q0 124 -53.5 203.5t-145.5 79.5q-118 0 -191.5 -119t-73.5 -262q0 -124 54 -203.5t147 -79.5q121 0 192 117.5t71 263.5z
M994 1510q-1 -22 -141.5 -195t-141.5 -199h-170q2 33 88.5 203t87.5 191h277z" />
    <glyph glyph-name="upsilontonos" unicode="&#x3cd;" horiz-adv-x="1080" 
d="M1010 639q0 -257 -149.5 -464.5t-397.5 -207.5q-168 0 -258 76.5t-90 267.5q0 59 17.5 176t17.5 173q0 151 -71 271l262 41q62 -102 62 -233q0 -57 -17.5 -171.5t-17.5 -171.5q0 -133 36 -183t107 -50q137 0 195.5 166.5t58.5 388.5q0 125 -24 227l126 27
q143 -123 143 -333zM937 1510q-1 -22 -141.5 -195t-141.5 -199h-170q2 33 88.5 203t87.5 191h277z" />
    <glyph glyph-name="omegatonos" unicode="&#x3ce;" horiz-adv-x="1464" 
d="M1401 511q0 -236 -121 -390t-345 -154q-118 0 -172 53.5t-79 155.5h-20q-37 -81 -112 -145t-174 -64q-315 0 -315 382q0 188 84.5 350.5t226.5 276.5l135 -72q-185 -216 -185 -490q0 -251 141 -251q97 0 167 139l2 20q-9 88 -9 163q0 91 22 198.5t61 153.5l127 10
q30 -86 30 -206q0 -202 -57 -319l-2 -20q31 -139 129 -139q101 0 160.5 108.5t59.5 266.5q0 124 -32.5 207.5t-75.5 138.5l140 82q214 -191 214 -455zM1159 1510q-1 -22 -141.5 -195t-141.5 -199h-170q2 33 88.5 203t87.5 191h277z" />
    <glyph glyph-name="uni03DE" unicode="&#x3de;" horiz-adv-x="1137" 
d="M1070 674q-52 -78 -108 -163.5t-112 -172.5t-111 -172.5t-105 -165.5h-288q106 147 204 287t196 287h-631l-48 103q101 148 207 306t206 319h287q-52 -69 -99 -132.5t-92 -126t-89 -126.5t-90 -135h627z" />
    <glyph glyph-name="uni03DF" unicode="&#x3df;" horiz-adv-x="970" 
d="M890 349q-110 -204 -215 -416.5t-202 -416.5l-250 51q51 89 98.5 173t93 167.5t90.5 167.5t91 173h-517l-32 85q85 151 169.5 315t168.5 327l242 -45q-38 -65 -73.5 -126t-70 -121.5t-68 -122t-68.5 -127.5h510z" />
    <glyph glyph-name="uni03E0" unicode="&#x3e0;" horiz-adv-x="1124" 
d="M285 838l350 207q-51 40 -114 55t-131 15q-69 0 -139 -13t-139 -42l8 229q39 12 76.5 20t77 13t82.5 7.5t92 2.5q129 0 241 -40t195 -118.5t131 -195.5t48 -272q0 -102 -21.5 -195.5t-61.5 -180.5t-97.5 -169t-129.5 -161h-300q71 72 129 141.5t101.5 141t72 148
t41.5 163.5l-294 -187l-80 156l374 219q-5 41 -16 75.5t-28 63.5l-388 -240z" />
    <glyph glyph-name="uni03E1" unicode="&#x3e1;" horiz-adv-x="1124" 
d="M256 784l499 293q-57 92 -161 135t-240 43q-69 0 -132 -13.5t-133 -44.5l8 202q74 17 154.5 27t177.5 10q150 0 269 -40.5t201 -123t125.5 -206.5t43.5 -291q0 -172 -36.5 -337.5t-102.5 -323t-158.5 -307t-204.5 -290.5l-254 51q102 124 184 243t144.5 240t104 247.5
t61.5 266.5l-331 -212l-81 156l427 252q0 44 -3.5 83.5t-10.5 74.5l-471 -292z" />
    <glyph glyph-name="uni0400" unicode="&#x400;" horiz-adv-x="1031" 
d="M989 1302l-31 -219q-281 16 -513 16q-7 -107 -26 -328q198 0 425 11l-23 -209q-219 10 -422 10q-21 -203 -34 -380q260 0 558 17l-32 -220h-808q21 137 84 681q38 364 43 621h779zM777 1416h-174q0 16 -108.5 139t-110.5 135h265q0 -11 64 -134.5t64 -139.5z" />
    <glyph glyph-name="uni0401" unicode="&#x401;" horiz-adv-x="1031" 
d="M989 1302l-31 -219q-281 16 -513 16q-7 -107 -26 -328q198 0 425 11l-23 -209q-219 10 -422 10q-21 -203 -34 -380q260 0 558 17l-32 -220h-808q21 137 84 681q38 364 43 621h779zM971 1583q0 -66 -45 -112.5t-111 -46.5q-107 0 -107 110q0 66 46 111.5t112 45.5
q105 0 105 -108zM602 1583q0 -66 -45.5 -112.5t-111.5 -46.5q-105 0 -105 109q0 66 45.5 112t111.5 46q105 0 105 -108z" />
    <glyph glyph-name="uni0402" unicode="&#x402;" horiz-adv-x="1284" 
d="M1194 450q0 -228 -150 -347t-386 -119v188q282 0 282 247q0 168 -256 168q-41 0 -79 -10q-22 -209 -47 -577h-270q22 147 84 681q26 245 39 421q-134 0 -325 -16l30 216h945l-29 -215q-191 15 -369 15q-13 -95 -37 -326q45 9 100 9q468 0 468 -335z" />
    <glyph glyph-name="uni0403" unicode="&#x403;" horiz-adv-x="980" 
d="M1010 1302l-30 -223q-304 15 -541 15q-5 -112 -36 -476q-44 -416 -50 -618h-269q18 122 79 648q46 437 47 654h800zM995 1690q0 -12 -147.5 -135t-147.5 -139h-174q0 16 97 139.5t97 134.5h275z" />
    <glyph glyph-name="uni0404" unicode="&#x404;" horiz-adv-x="1091" 
d="M1069 1292l-55 -223q-150 40 -291 40q-310 0 -388 -334q213 0 506 7l-22 -209q-281 9 -501 9q-2 -35 -1 -71q6 -165 83 -245t249 -80q153 0 327 48l-40 -227q-179 -34 -334 -34q-287 0 -417 155.5t-130 405.5q0 349 181 567.5t533 218.5q148 0 300 -28z" />
    <glyph glyph-name="uni0405" unicode="&#x405;" horiz-adv-x="1035" 
d="M969 1290l-59 -222q-122 49 -271 49q-241 0 -241 -146q0 -57 52 -99q46 -38 179 -97q308 -137 308 -391q0 -420 -577 -420q-181 0 -333 46l71 223q147 -56 284 -56q130 0 192 20q110 35 110 136q0 66 -60 118q-54 47 -198 115q-276 131 -276 364q0 208 143 300.5
t367 92.5q186 0 309 -33z" />
    <glyph glyph-name="uni0406" unicode="&#x406;" horiz-adv-x="574" 
d="M491 1302q-18 -112 -78 -621q-37 -348 -49 -681h-280q22 141 86 681q38 365 41 621h280z" />
    <glyph glyph-name="uni0407" unicode="&#x407;" horiz-adv-x="574" 
d="M491 1302q-18 -112 -78 -621q-37 -348 -49 -681h-280q22 141 86 681q38 365 41 621h280zM704 1583q0 -66 -45 -112.5t-111 -46.5q-107 0 -107 110q0 66 46 111.5t112 45.5q105 0 105 -108zM335 1583q0 -66 -45.5 -112.5t-111.5 -46.5q-105 0 -105 109q0 66 45.5 112
t111.5 46q105 0 105 -108z" />
    <glyph glyph-name="uni0408" unicode="&#x408;" horiz-adv-x="817" 
d="M758 1302q-20 -132 -90 -736q-35 -333 -179 -473q-123 -120 -355 -120q-84 0 -164 21l39 215q60 -30 124 -30q125 0 187 57q90 82 114 310q48 457 55 756h269z" />
    <glyph glyph-name="uni0409" unicode="&#x409;" horiz-adv-x="1687" 
d="M1362 420q0 167 -255 167q-41 0 -79 -10q-22 -209 -34 -392q32 -8 63 -8q305 0 305 243zM1616 435q0 -441 -606 -441q-160 0 -294 6q19 129 80 668q22 209 58 436h-139q-22 -77 -54 -165t-71 -180.5t-84 -184.5t-95.5 -177.5t-104.5 -159.5t-110.5 -129.5t-114 -88.5
t-112.5 -36l17 250q36 7 85 58t104.5 133.5t112.5 188.5t110 222.5t97.5 236.5t73.5 230h549q-17 -99 -69 -526q45 9 108 9q193 0 326 -85t133 -265z" />
    <glyph glyph-name="uni040A" unicode="&#x40a;" horiz-adv-x="1709" 
d="M1638 440q0 -242 -190 -355q-154 -91 -417 -91q-160 0 -297 6q22 156 71 574h-402q-23 -218 -41 -574h-278q25 151 84 681q40 355 42 621h279q-20 -131 -67 -520h405q22 211 33 520h279q-17 -102 -69 -526q45 9 104 9q199 0 331.5 -83t132.5 -262zM1384 420
q0 167 -255 167q-41 0 -80 -10q-22 -209 -34 -392q32 -8 63 -8q306 0 306 243z" />
    <glyph glyph-name="uni040B" unicode="&#x40b;" horiz-adv-x="1286" 
d="M1157 0h-268q28 181 42 283.5t14 173.5q0 130 -174 130q-107 0 -165 -20q-21 -199 -41 -567h-276q47 322 85 681q25 245 39 421q-134 0 -326 -16l31 216h945l-30 -215q-190 15 -367 15q-16 -112 -39 -336q65 19 205 19q370 0 371 -265q-1 -85 -14.5 -179t-31.5 -341z" />
    <glyph glyph-name="uni040C" unicode="&#x40c;" horiz-adv-x="1180" 
d="M1156 1302q-15 -31 -48 -109q-88 -234 -171 -341t-210 -161l-1 -11q120 -42 180 -149t129 -421q9 -42 30 -110h-293q-6 15 -18 68q-44 307 -104.5 402.5t-186.5 95.5q-35 0 -63 -4q-27 -258 -36 -511l-2 -51h-278q21 137 84 681q38 364 43 621h278q-20 -139 -67 -539
q38 -2 56 -2q251 0 383 479q10 35 29 62h266zM1046 1690q0 -12 -147.5 -135t-147.5 -139h-174q0 16 97 139.5t97 134.5h275z" />
    <glyph glyph-name="uni040D" unicode="&#x40d;" horiz-adv-x="1340" 
d="M1257 1302q-23 -149 -86 -684q-37 -353 -42 -618h-278q14 70 66 499q14 135 56 386h-15q-52 -117 -369 -466q-288 -317 -299 -419h-206q20 119 80 618q38 359 46 684h278q-19 -116 -71 -549q-14 -132 -53 -335h15q54 114 373 463q287 313 298 421h207zM876 1416h-174
q0 16 -108.5 139t-110.5 135h265q0 -11 64 -134.5t64 -139.5z" />
    <glyph glyph-name="uni040E" unicode="&#x40e;" horiz-adv-x="1071" 
d="M1137 1302q-3 -55 -163 -394t-296 -556.5t-269.5 -304.5t-357.5 -87l4 209q167 5 251.5 48t146.5 151q0 76 -176 494.5t-177 439.5h300q1 -27 103 -332t102 -360h9q20 23 138 314t123 378h262zM1141 1657q-197 -301 -473 -301q-315 0 -361 280l234 58q38 -194 189 -194
q141 0 304 220z" />
    <glyph glyph-name="uni040F" unicode="&#x40f;" horiz-adv-x="1266" 
d="M1182 1302q-21 -143 -81 -658q-38 -363 -46 -644h-368q-26 -140 -67 -415h-192q13 127 21 415h-365q20 138 79 644q39 375 48 658h276q-18 -117 -79 -640l-48 -458h451l48 449q43 409 53 649h270z" />
    <glyph glyph-name="uni0410" unicode="&#x410;" horiz-adv-x="1216" 
d="M1145 0h-304q0 109 -48 374h-438q-36 -85 -62 -154q-64 -164 -67 -220h-286q3 37 289 640.5t292 661.5h358q0 -113 133 -647t133 -655zM765 565q-104 513 -104 558h-15q-4 -35 -227 -558h346z" />
    <glyph glyph-name="uni0411" unicode="&#x411;" horiz-adv-x="1178" 
d="M1088 1302l-30 -219q-353 16 -619 16q-1 -67 -23 -326q78 4 145 4q221 0 369.5 -84.5t148.5 -269.5q0 -429 -662 -429q-107 0 -333 6q21 139 84 681q42 400 42 621h878zM821 406q0 174 -312 174q-65 0 -113 -5q-22 -209 -33 -385q32 -8 96 -8q199 0 280.5 55t81.5 169z
" />
    <glyph glyph-name="uni0412" unicode="&#x412;" horiz-adv-x="1169" 
d="M1089 420q0 -426 -662 -426q-107 0 -343 6q20 137 83 681q38 364 43 621h164q43 0 152 3t167 3q180 0 286 -67.5t106 -199.5q0 -112 -69.5 -200t-178.5 -115l-1 -15q100 -17 176.5 -90t76.5 -201zM832 406q0 174 -313 174q-65 0 -123 -5q-22 -209 -33 -385q42 -8 106 -8
q195 0 279 54t84 170zM821 968q0 152 -196 152q-98 0 -182 -15q0 -41 -28 -347q45 -2 85 -2q321 0 321 212z" />
    <glyph glyph-name="uni0413" unicode="&#x413;" horiz-adv-x="980" 
d="M1010 1302l-30 -223q-304 15 -541 15q-5 -112 -36 -476q-44 -416 -50 -618h-269q18 122 79 648q46 437 47 654h800z" />
    <glyph glyph-name="uni0414" unicode="&#x414;" horiz-adv-x="1314" 
d="M1248 204q-5 -50 -56.5 -282t-62.5 -337h-189q13 127 42 423q-156 10 -403 10q-208 0 -373 -10q-41 -146 -96 -423h-182q10 97 29.5 311.5t29.5 307.5h96q232 563 531 1098h550q-17 -132 -69 -592q-29 -276 -29 -506h182zM888 1104h-158q-290 -535 -413 -900h491
q8 126 39 464q28 264 41 436z" />
    <glyph glyph-name="uni0415" unicode="&#x415;" horiz-adv-x="1031" 
d="M989 1302l-31 -219q-281 16 -513 16q-7 -107 -26 -328q198 0 425 11l-23 -209q-219 10 -422 10q-21 -203 -34 -380q260 0 558 17l-32 -220h-808q21 137 84 681q38 364 43 621h779z" />
    <glyph glyph-name="uni0416" unicode="&#x416;" horiz-adv-x="1670" 
d="M1646 1302q-16 -31 -49 -109q-88 -234 -170.5 -341t-209.5 -161l-1 -11q119 -42 179 -150t129 -420q9 -42 30 -110h-291q-6 15 -18 68q-42 294 -101.5 396t-177.5 102q-10 0 -23 -4q-27 -258 -36 -511l-2 -51h-267q18 125 69 562q-18 4 -28 4q-119 0 -196.5 -97.5
t-184.5 -400.5q-12 -34 -33 -68h-287q17 32 53 110q140 326 219 426.5t210 143.5l1 11q-118 55 -176.5 157t-98.5 345q-7 44 -26 109h259q7 -12 16 -62q32 -479 273 -479q8 0 20 2q27 261 36 539h268q-20 -139 -67 -539q9 -2 17 -2q238 0 371 479q10 35 29 62h264z" />
    <glyph glyph-name="uni0417" unicode="&#x417;" horiz-adv-x="1084" 
d="M1013 1043q0 -113 -73 -201.5t-185 -120.5l-2 -15q102 -18 173 -94t71 -202q0 -220 -165 -333t-443 -113q-208 0 -370 62l50 224q161 -79 342 -79q328 0 328 216q0 179 -349 179q-71 0 -164 -4l47 207q87 -5 167 -5q310 0 310 208q0 70 -58 109t-153 39q-198 0 -351 -58
l49 210q163 52 395 52q173 0 277 -74t104 -207z" />
    <glyph glyph-name="uni0418" unicode="&#x418;" horiz-adv-x="1340" 
d="M1257 1302q-23 -149 -86 -684q-37 -353 -42 -618h-278q14 70 66 499q14 135 56 386h-15q-52 -117 -369 -466q-288 -317 -299 -419h-206q20 119 80 618q38 359 46 684h278q-19 -116 -71 -549q-14 -132 -53 -335h15q54 114 373 463q287 313 298 421h207z" />
    <glyph glyph-name="uni0419" unicode="&#x419;" horiz-adv-x="1340" 
d="M1257 1302q-23 -149 -86 -684q-37 -353 -42 -618h-278q14 70 66 499q14 135 56 386h-15q-52 -117 -369 -466q-288 -317 -299 -419h-206q20 119 80 618q38 359 46 684h278q-19 -116 -71 -549q-14 -132 -53 -335h15q54 114 373 463q287 313 298 421h207zM1255 1657
q-197 -301 -473 -301q-315 0 -361 280l234 58q38 -194 189 -194q141 0 304 220z" />
    <glyph glyph-name="uni041A" unicode="&#x41a;" horiz-adv-x="1180" 
d="M1156 1302q-15 -31 -48 -109q-88 -234 -171 -341t-210 -161l-1 -11q120 -42 180 -149t129 -421q9 -42 30 -110h-293q-6 15 -18 68q-44 307 -104.5 402.5t-186.5 95.5q-35 0 -63 -4q-27 -258 -36 -511l-2 -51h-278q21 137 84 681q38 364 43 621h278q-20 -139 -67 -539
q38 -2 56 -2q251 0 383 479q10 35 29 62h266z" />
    <glyph glyph-name="uni041B" unicode="&#x41b;" horiz-adv-x="1218" 
d="M1135 1302q-29 -265 -65 -607q-40 -380 -52 -695h-276q42 288 82 668q28 264 40 436h-149q-22 -77 -54 -165t-71 -180.5t-84 -184.5t-95.5 -177.5t-104.5 -159.5t-110.5 -129.5t-114 -88.5t-112.5 -36l17 250q36 7 85 58t104.5 133.5t112.5 188.5t110 222.5t97.5 236.5
t73.5 230h566z" />
    <glyph glyph-name="uni041C" unicode="&#x41c;" horiz-adv-x="1658" 
d="M1533 1302q-33 -285 -33 -712q0 -281 15 -590h-285q0 415 60 1082h-16q-15 -63 -64 -204t-196 -476.5t-154 -401.5h-217q0 79 -75.5 416t-91 437t-27.5 229h-15q-13 -115 -82 -574t-69 -508h-258q0 27 129 619.5t141 682.5h364q0 -137 73.5 -495.5t73.5 -487.5h15
q10 97 173.5 495t172.5 488h366z" />
    <glyph glyph-name="uni041D" unicode="&#x41d;" horiz-adv-x="1299" 
d="M1217 1302q-19 -113 -79 -621q-40 -383 -49 -681h-278q21 156 70 574h-478q-23 -218 -41 -574h-279q22 151 84 681q37 355 43 621h279q-20 -131 -67 -520h484q24 227 31 520h280z" />
    <glyph glyph-name="uni041E" unicode="&#x41e;" horiz-adv-x="1333" 
d="M1278 741q0 -309 -198.5 -543t-499.5 -234q-228 0 -376.5 168t-148.5 423q0 312 200 544.5t499 232.5q228 0 376 -167.5t148 -423.5zM1013 722q0 179 -87.5 286t-219.5 107q-174 0 -279 -168t-105 -369q0 -179 87 -286.5t219 -107.5q173 0 279 170t106 368z" />
    <glyph glyph-name="uni041F" unicode="&#x41f;" horiz-adv-x="1251" 
d="M1168 1302q-19 -124 -76 -617q-39 -375 -51 -685h-275q18 128 79 660q23 216 51 433h-458q-6 -130 -28 -420q-43 -408 -51 -673h-275q22 151 83 670q36 339 38 632h963z" />
    <glyph glyph-name="uni0420" unicode="&#x420;" horiz-adv-x="1133" 
d="M1090 978q0 -239 -175 -361.5t-467 -122.5q-37 0 -56 2q-20 -188 -31 -496h-277q20 129 84 681q38 360 43 621h174q35 0 136 3t174 3q164 0 279.5 -87t115.5 -243zM838 935q0 185 -249 185q-67 0 -141 -15q-5 -85 -37 -428q23 -2 55 -2q372 0 372 260z" />
    <glyph glyph-name="uni0421" unicode="&#x421;" horiz-adv-x="1049" 
d="M1027 1292l-57 -231q-108 38 -211 38q-201 0 -315.5 -148t-114.5 -353q0 -170 96.5 -287t280.5 -117q118 0 263 43l-41 -230q-159 -34 -270 -34q-302 0 -452.5 174.5t-150.5 419.5q0 318 216 535.5t539 217.5q116 0 217 -28z" />
    <glyph glyph-name="uni0422" unicode="&#x422;" horiz-adv-x="1061" 
d="M1091 1302l-29 -215q-189 15 -356 15q-12 -91 -47 -421q-41 -387 -51 -681h-276q21 145 84 681q24 227 40 421q-134 0 -370 -16l31 216h974z" />
    <glyph glyph-name="uni0423" unicode="&#x423;" horiz-adv-x="1071" 
d="M1137 1302q-3 -55 -163 -394t-296 -556.5t-269.5 -304.5t-357.5 -87l4 209q167 5 251.5 48t146.5 151q0 76 -176 494.5t-177 439.5h300q1 -27 103 -332t102 -360h9q20 23 138 314t123 378h262z" />
    <glyph glyph-name="uni0424" unicode="&#x424;" horiz-adv-x="1361" 
d="M1317 760q0 -242 -155.5 -381.5t-419.5 -169.5q-9 -118 -9 -209h-245q6 43 28 209q-243 21 -357.5 138t-114.5 292q0 242 154.5 380t419.5 168q8 103 5 166h245q-5 -29 -24 -166q244 -21 358.5 -137t114.5 -290zM1086 759q0 226 -263 267q-10 -84 -35 -309
q-15 -141 -33 -347q331 44 331 389zM606 1026q-332 -44 -332 -389q0 -226 263 -267q10 84 35 310q15 141 34 346z" />
    <glyph glyph-name="uni0425" unicode="&#x425;" horiz-adv-x="1186" 
d="M1182 1302q0 -27 -190.5 -277.5t-240.5 -296.5l-1 -15q55 -67 198.5 -367t143.5 -346h-320q0 40 -88 260t-123 280h-16q-50 -63 -171 -282t-121 -258h-304q0 29 221 336t279 362l1 15q-43 59 -171.5 307t-128.5 282h306q0 -36 74 -219t102 -225h15q42 49 148.5 230.5
t106.5 213.5h280z" />
    <glyph glyph-name="uni0426" unicode="&#x426;" horiz-adv-x="1269" 
d="M1203 204q-5 -49 -51.5 -281t-57.5 -338h-196q13 127 41 415h-855q20 138 79 644q39 375 48 658h276q-18 -117 -78 -640l-48 -458h411l47 449q40 379 48 649h276q-21 -143 -81 -658q-17 -157 -34 -440h175z" />
    <glyph glyph-name="uni0427" unicode="&#x427;" horiz-adv-x="1195" 
d="M1111 1302q-18 -112 -78 -621q-40 -377 -48 -681h-280q18 105 72 552q-105 -27 -252 -27q-230 0 -322 79.5t-92 288.5q0 68 13.5 204.5t13.5 204.5h267q-42 -208 -42 -338q0 -144 53 -194t186 -50q120 0 195 25q35 333 35 557h279z" />
    <glyph glyph-name="uni0428" unicode="&#x428;" horiz-adv-x="1764" 
d="M1681 1302q-21 -143 -81 -658q-38 -363 -46 -644h-1470q20 138 79 644q39 375 47 658h274q-18 -117 -78 -640l-49 -458h356l48 449q41 387 48 649h274q-18 -117 -78 -640l-46 -458h354l47 449q41 387 47 649h274z" />
    <glyph glyph-name="uni0429" unicode="&#x429;" horiz-adv-x="1813" 
d="M1747 204q-6 -54 -52.5 -284t-57.5 -335h-195q13 127 40 415h-1398q20 138 79 644q39 375 48 658h274q-18 -117 -78 -640l-48 -458h356l47 449q41 387 47 649h274q-18 -117 -78 -640l-48 -458h356l47 449q41 387 47 649h274q-21 -143 -81 -658q-17 -157 -34 -440h181z
" />
    <glyph glyph-name="uni042A" unicode="&#x42a;" horiz-adv-x="1361" 
d="M1290 461q0 -237 -172.5 -352t-460.5 -115q-113 0 -323 6q21 139 84 681q27 252 59 419q-150 0 -386 -12l27 214h625q-14 -65 -66 -480q69 5 121 5q211 0 351.5 -90t140.5 -276zM1031 444q0 187 -276 187q-45 0 -99 -5q-22 -209 -40 -436q51 -8 84 -8q154 0 242.5 67
t88.5 195z" />
    <glyph glyph-name="uni042B" unicode="&#x42b;" horiz-adv-x="1574" 
d="M1030 455q0 -235 -169.5 -348t-462.5 -113q-107 0 -314 6q21 139 84 681q42 400 42 621h279q-12 -65 -63 -480q62 5 113 5q208 0 349.5 -92.5t141.5 -279.5zM1490 1302q-18 -112 -78 -621q-36 -347 -49 -681h-278q21 141 84 681q38 365 42 621h279zM771 439
q0 103 -81.5 147.5t-193.5 44.5q-48 0 -91 -5q-22 -209 -39 -436q39 -8 74 -8q147 0 239 63.5t92 193.5z" />
    <glyph glyph-name="uni042C" unicode="&#x42c;" horiz-adv-x="1142" 
d="M1071 456q0 -232 -171 -347t-472 -115q-101 0 -344 6q20 139 83 681q41 395 43 621h279q-12 -65 -63 -480q88 5 143 5q215 0 358.5 -90.5t143.5 -280.5zM811 439q0 192 -286 192q-56 0 -120 -5q-22 -209 -37 -436q56 -8 102 -8q341 0 341 257z" />
    <glyph glyph-name="uni042D" unicode="&#x42d;" horiz-adv-x="1098" 
d="M1043 767q0 -351 -183 -572.5t-536 -221.5q-148 0 -324 28l50 227q159 -43 316 -43q351 0 408 394q-223 0 -507 -6l22 208q288 -9 506 -9q-6 336 -351 336q-142 0 -312 -48l45 226q158 34 314 34q290 0 421 -151t131 -402z" />
    <glyph glyph-name="uni042E" unicode="&#x42e;" horiz-adv-x="1794" 
d="M1739 750q0 -321 -184.5 -553.5t-491.5 -232.5q-245 0 -370 157.5t-125 445.5q0 11 2 22h-168q-33 -329 -39 -589h-279q21 141 84 681q38 365 43 621h278q-15 -95 -67 -525h181q69 263 235 409t400 146q231 0 366 -164t135 -418zM1478 733q0 176 -78.5 280t-209.5 104
q-171 0 -270 -170t-99 -387q0 -176 78.5 -277.5t211.5 -101.5q169 0 268 171t99 381z" />
    <glyph glyph-name="uni042F" unicode="&#x42f;" horiz-adv-x="1201" 
d="M1118 1302q-19 -115 -79 -622q-40 -378 -48 -680h-274q16 105 64 522q-48 3 -116 3q-118 0 -191 -85t-184 -380q-14 -36 -31 -60h-279q18 32 64 131q112 261 183.5 351t172.5 118l1 16q-248 76 -248 309q0 193 122 288t402 95q72 0 162.5 -3t113.5 -3h165zM833 1105
q-109 14 -192 14q-245 0 -245 -208q0 -199 297 -199q60 0 108 3q22 210 32 390z" />
    <glyph glyph-name="uni0430" unicode="&#x430;" horiz-adv-x="1031" 
d="M966 995q-80 -542 -80 -749q0 -105 17 -236l-246 -28q-6 83 -6 193h-15q-111 -203 -330 -203q-126 0 -190 94.5t-64 258.5q0 236 165 425.5t513 198.5l44 31zM710 791q-209 -2 -307 -122t-98 -324q0 -185 116 -185q90 0 165.5 131t95.5 250.5t28 249.5z" />
    <glyph glyph-name="uni0431" unicode="&#x431;" horiz-adv-x="1099" 
d="M1055 1421l-34 -230q-63 -8 -259 -33q-265 -37 -341 -102q-91 -77 -140 -343h8q133 224 400 224q160 0 254 -101.5t94 -289.5q0 -258 -164 -421.5t-417 -163.5q-383 0 -383 437q0 318 93 573q88 241 211 304q145 75 404 107q130 15 274 39zM794 507q0 104 -50.5 171
t-140.5 67q-133 0 -221 -110t-88 -239q0 -100 47.5 -176t147.5 -76q149 0 227 109t78 254z" />
    <glyph glyph-name="uni0432" unicode="&#x432;" horiz-adv-x="996" 
d="M930 768q0 -101 -57 -163.5t-131 -84.5l-1 -15q173 -50 173 -200q0 -173 -146.5 -253.5t-341.5 -80.5q-363 0 -363 307q0 716 530 716q337 0 337 -226zM684 310q0 126 -230 126q-77 0 -158 -18q-9 -48 -9 -94q0 -178 189 -178q88 0 148 39.5t60 124.5zM707 728
q0 108 -146 108q-207 0 -249 -268q237 4 316 42.5t79 117.5z" />
    <glyph glyph-name="uni0433" unicode="&#x433;" horiz-adv-x="787" 
d="M751 759q0 -104 -92 -189q-70 -64 -230 -145q-94 -48 -127.5 -83.5t-33.5 -92.5q0 -90 146 -90q132 0 298 88l-33 -197q-120 -79 -286 -79q-357 0 -357 242q0 123 92 211q65 63 227 145q99 49 129 76q37 32 37 81q0 76 -145 76q-132 0 -256 -66l33 200q108 51 251 51
q347 0 347 -228z" />
    <glyph glyph-name="uni0434" unicode="&#x434;" horiz-adv-x="1103" 
d="M1030 758q0 -353 -151.5 -575t-416.5 -222q-186 0 -292.5 113.5t-106.5 304.5q0 231 131 395t349 164q154 0 241 -74h10q-16 360 -385 360q-77 0 -145 -26l23 189q74 30 162 30q274 0 427.5 -163t153.5 -496zM792 699q-94 64 -231 64q-124 0 -188 -103t-64 -259
q0 -256 182 -256q144 0 222.5 160.5t78.5 393.5z" />
    <glyph glyph-name="uni0435" unicode="&#x435;" horiz-adv-x="986" 
d="M949 743q0 -298 -641 -310q0 -132 49 -197.5t171 -65.5q160 0 343 103l-31 -198q-149 -104 -378 -104q-204 0 -301.5 122.5t-97.5 324.5q0 261 163.5 418.5t387.5 157.5q155 0 243 -64q92 -66 92 -187zM726 723q0 97 -149 97q-85 0 -161 -62.5t-99 -179.5q409 8 409 145z
" />
    <glyph glyph-name="uni0436" unicode="&#x436;" horiz-adv-x="1673" 
d="M1651 965l-41 -197q-40 18 -75 18q-89 0 -144.5 -94.5t-55.5 -255.5q0 -262 124 -262q69 0 143 48l-25 -188q-75 -53 -186 -53q-263 0 -263 302q0 148 54 247l-10 9q-74 -96 -162.5 -219.5t-99.5 -191.5q-6 -37 -6 -128l-242 -13q0 22 34 215q39 214 51 328h-15
q-34 -93 -311 -392q-78 -157 -294 -157q-66 0 -105 18l41 198q40 -18 75 -18q89 0 144.5 94t55.5 255q0 262 -124 262q-62 0 -143 -48l25 188q75 53 186 53q130 0 197.5 -82t67.5 -225q0 -148 -56 -256l8 -9q74 95 162 219t99 192q6 37 6 128l242 13q0 -21 -34 -215
q-39 -214 -51 -328h15q43 116 314 407q88 156 294 156q66 0 105 -18z" />
    <glyph glyph-name="uni0437" unicode="&#x437;" horiz-adv-x="883" 
d="M820 766q0 -169 -182 -234l-1 -15q160 -46 160 -218q0 -181 -141.5 -253.5t-342.5 -72.5q-170 0 -287 60l41 182q123 -67 264 -67q232 0 232 145q0 112 -229 112q-102 0 -163 -8l36 174q60 -6 139 -6q238 0 238 140q0 96 -172 96q-137 0 -277 -67l39 186q110 63 311 63
q140 0 237.5 -56t97.5 -161z" />
    <glyph glyph-name="uni0438" unicode="&#x438;" horiz-adv-x="1086" 
d="M1016 970q-70 -554 -70 -736q0 -105 16 -226l-246 -28q-6 81 -6 198h-14q-113 -209 -342 -209q-258 0 -258 298q0 88 26.5 329.5t26.5 353.5l260 20q0 -48 -34 -287t-34 -337q0 -105 28.5 -147t97.5 -42q87 0 169 118.5t99 289.5q28 278 28 385z" />
    <glyph glyph-name="uni0439" unicode="&#x439;" horiz-adv-x="1086" 
d="M1016 970q-70 -554 -70 -736q0 -105 16 -226l-246 -28q-6 81 -6 198h-14q-113 -209 -342 -209q-258 0 -258 298q0 88 26.5 329.5t26.5 353.5l260 20q0 -48 -34 -287t-34 -337q0 -105 28.5 -147t97.5 -42q87 0 169 118.5t99 289.5q28 278 28 385zM1061 1390
q-197 -301 -473 -301q-315 0 -361 280l234 58q38 -194 189 -194q141 0 304 220z" />
    <glyph glyph-name="uni043A" unicode="&#x43a;" horiz-adv-x="1017" 
d="M1010 949q0 -36 -123 -179t-201 -204l-1 -13q100 -118 181 -306t81 -247l-273 -10q0 43 -50.5 176t-120.5 234q-37 -45 -100 -146.5t-82 -253.5l-255 -10q16 95 62 467q21 200 21 368q0 71 -3 117l268 28q0 -22 -22 -182q-29 -213 -48 -393h15q28 63 199 288t171 277z
" />
    <glyph glyph-name="uni043B" unicode="&#x43b;" horiz-adv-x="1022" 
d="M946 970q-15 -85 -64 -495q-29 -277 -37 -475l-252 -10q0 45 23.5 189t38.5 286q17 157 25 307h-20q-58 0 -93 -34t-213 -383.5t-388 -374.5l16 233q106 64 240.5 318t200 336.5t242.5 82.5h107z" />
    <glyph glyph-name="uni043C" unicode="&#x43c;" horiz-adv-x="1379" 
d="M1292 960q-52 -490 -52 -960l-246 -10q0 94 23.5 370.5t40.5 402.5l-17 -1q-18 -56 -173.5 -380.5t-160.5 -371.5l-215 -20q0 199 -29.5 484.5t-29.5 287.5h-17q-12 -162 -135 -462t-315 -320l16 233q131 89 228 365.5t97 361.5l299 20q0 -38 31 -301.5t31 -417.5h10
q8 75 136.5 340t138.5 359z" />
    <glyph glyph-name="uni043D" unicode="&#x43d;" horiz-adv-x="1085" 
d="M1006 970q0 -46 -54 -495q-29 -277 -36 -475l-251 -10q0 33 23.5 174.5t35.5 289.5h-10q-9 -50 -63 -50q-28 0 -109 5t-102 5q-67 0 -84 -57q-19 -61 -38 -357l-251 -10q16 98 63 485q20 190 20 305q0 116 -3 164l261 26q0 -46 -17 -180t-26 -241h10q10 50 69 50
q22 0 103.5 -5t107.5 -5q76 0 90 86q3 11 6 149q0 71 -8 120z" />
    <glyph glyph-name="uni043E" unicode="&#x43e;" horiz-adv-x="1095" 
d="M1032 548q0 -244 -155.5 -415.5t-399.5 -171.5q-170 0 -292 124.5t-122 329.5q0 243 156 411t401 168q171 0 291.5 -120.5t120.5 -325.5zM779 526q0 124 -53.5 203.5t-145.5 79.5q-118 0 -191.5 -119t-73.5 -262q0 -124 54 -203.5t147 -79.5q121 0 192 117.5t71 263.5z
" />
    <glyph glyph-name="uni043F" unicode="&#x43f;" horiz-adv-x="1093" 
d="M997 684q0 -88 -27 -330t-27 -354l-258 -10q0 48 33 285.5t33 335.5q0 104 -30 144t-100 40q-87 0 -169 -119t-99 -290q-22 -215 -33 -386l-251 -10q70 518 70 700q0 105 -16 256l248 25q7 -85 7 -198h14q117 209 346 209q259 0 259 -298z" />
    <glyph glyph-name="uni0440" unicode="&#x440;" horiz-adv-x="1107" 
d="M1041 595q0 -259 -138.5 -441.5t-366.5 -182.5q-144 0 -209 68h-12q-26 -245 -43 -491l-260 -5q126 922 126 1177q0 95 -16 223l246 28q9 -77 9 -198h12q118 209 346 209q148 0 227 -105.5t79 -281.5zM789 543q0 252 -163 252q-97 0 -181 -129.5t-100 -279.5l-20 -186
q73 -45 161 -45q152 0 227.5 115.5t75.5 272.5z" />
    <glyph glyph-name="uni0441" unicode="&#x441;" horiz-adv-x="866" 
d="M840 960l-53 -203q-84 28 -192 28q-131 0 -205 -101.5t-74 -234.5q0 -279 212 -279q121 0 266 88l-32 -198q-122 -89 -296 -89q-206 0 -304.5 129.5t-98.5 320.5q0 231 158 394.5t414 163.5q117 0 205 -19z" />
    <glyph glyph-name="uni0442" unicode="&#x442;" horiz-adv-x="1607" 
d="M1511 690q0 -96 -26 -336t-26 -354l-258 -10q0 34 33 276.5t33 323.5q0 122 -22.5 163t-72.5 41q-85 0 -162 -125.5t-93 -282.5q-27 -263 -26 -386l-258 -10q0 35 35 280t35 320q0 123 -23 163.5t-72 40.5q-84 0 -161.5 -125.5t-93.5 -282.5q-28 -278 -33 -386l-251 -10
q72 517 72 700q0 105 -18 256l248 25q7 -77 7 -198h14q120 209 331 209q216 0 222 -209h12q122 209 330 209q127 0 175.5 -70.5t48.5 -221.5z" />
    <glyph glyph-name="uni0443" unicode="&#x443;" horiz-adv-x="965" 
d="M957 961q0 -141 -198.5 -512.5t-227.5 -454.5q-88 -248 -205 -342.5t-320 -94.5v193q126 0 217.5 80.5t91.5 203.5q0 136 -121.5 474t-121.5 442l288 11q0 -137 56.5 -384.5t56.5 -337.5h15q4 35 109 299.5t105 408.5z" />
    <glyph glyph-name="uni0444" unicode="&#x444;" horiz-adv-x="1424" 
d="M1366 613q0 -275 -166.5 -440.5t-415.5 -181.5q-3 -15 -7 -49q-24 -184 -98 -282.5t-223 -119.5l-59 141q82 53 125 137.5t56 271.5h-14q-69 -99 -218 -99q-136 0 -212 101.5t-76 276.5q0 285 166.5 445.5t416.5 176.5q2 15 8 49q46 325 324 363l59 -141
q-91 -38 -131.5 -109.5t-53.5 -260.5h14q68 99 217 99q136 0 212 -101.5t76 -276.5zM1130 604q0 207 -131 207q-69 0 -116 -51t-55 -137q-8 -91 -37 -466q162 10 250.5 132t88.5 315zM633 825q-162 -10 -250.5 -132t-88.5 -315q0 -207 131 -207q69 0 116 51t55 137
q8 91 37 466z" />
    <glyph glyph-name="uni0445" unicode="&#x445;" horiz-adv-x="1025" 
d="M995 961q0 -31 -146.5 -206.5t-200.5 -224.5l-1 -15q50 -65 168.5 -274.5t118.5 -240.5l-293 -10q0 32 -64.5 180t-101.5 213h-12q-35 -43 -112.5 -199t-77.5 -184l-278 -10q0 34 156.5 240.5t224.5 271.5l1 15q-43 54 -145.5 231t-102.5 202l291 11q0 -26 50.5 -158.5
t78.5 -179.5h13q33 39 99 169.5t66 157.5z" />
    <glyph glyph-name="uni0446" unicode="&#x446;" horiz-adv-x="1108" 
d="M1063 198q-31 -108 -70 -276t-45 -322l-245 -20q14 181 138 415l1 15q-30 -10 -56 -10q-58 0 -83.5 38.5t-25.5 139.5h-14q-106 -209 -329 -209q-137 0 -192 81q-46 68 -46 217q0 88 26.5 329.5t26.5 353.5l258 20q0 -39 -35 -282t-35 -342q0 -106 24 -147.5t91 -41.5
q83 0 158.5 121t93.5 287q26 245 26 385l256 20q-72 -479 -72 -663q0 -67 13.5 -91.5t49.5 -24.5q44 0 86 7z" />
    <glyph glyph-name="uni0447" unicode="&#x447;" horiz-adv-x="962" 
d="M892 970q-15 -85 -63 -495q-30 -277 -38 -475l-253 -10q0 3 22 138q26 168 46 352l-14 -1q-114 -171 -309 -171q-217 0 -217 266q0 106 20 371l250 26q0 -24 -19.5 -144.5t-19.5 -177.5q0 -87 20.5 -119t69.5 -32q97 0 168 101.5t80 213.5q4 58 2 128z" />
    <glyph glyph-name="uni0448" unicode="&#x448;" horiz-adv-x="1607" 
d="M1537 970q-71 -526 -71 -709q0 -105 12 -253l-242 -28q-7 77 -7 198h-14q-120 -209 -331 -209q-216 0 -222 209h-12q-122 -209 -330 -209q-127 0 -175.5 70.5t-48.5 221.5q0 96 26 336t26 349l258 24q0 -43 -35.5 -285.5t-35.5 -323.5q0 -122 22.5 -163t77.5 -41
q85 0 162 125.5t93 282.5q27 263 26 385l258 20q0 -44 -37.5 -289t-37.5 -320q0 -123 23 -163.5t77 -40.5q84 0 161.5 125.5t93.5 282.5q28 278 28 385z" />
    <glyph glyph-name="uni0449" unicode="&#x449;" horiz-adv-x="1660" 
d="M1615 203q-31 -109 -54 -209q-55 -240 -61 -394l-245 -20q14 181 138 415l1 15q-30 -10 -56 -10q-109 0 -109 178h-14q-120 -209 -331 -209q-215 0 -222 209h-12q-122 -209 -330 -209q-127 0 -175.5 70.5t-48.5 221.5q0 96 26 336t26 349l258 24q0 -43 -35.5 -285.5
t-35.5 -323.5q0 -122 22.5 -163t77.5 -41q85 0 162 125.5t93 282.5q23 228 23 385l261 20q0 -44 -37.5 -289t-37.5 -320q0 -123 23 -163.5t77 -40.5q84 0 161.5 126t93.5 282q28 278 28 385l255 20q-71 -478 -71 -663q0 -68 13 -92t50 -24q44 0 86 12z" />
    <glyph glyph-name="uni044A" unicode="&#x44a;" horiz-adv-x="1103" 
d="M1063 348q0 -189 -139 -282t-324 -93q-146 0 -238.5 62.5t-92.5 192.5q0 129 49 277.5t116 253.5v15q-261 -22 -412 -22l26 196q261 0 658 22q0 -67 -63 -209.5t-72 -170.5h15q66 40 138 40q339 0 339 -282zM836 323q0 151 -203 151q-54 0 -101 -21q-28 -79 -28 -166
q0 -138 146 -138q72 0 129 47t57 127z" />
    <glyph glyph-name="uni044B" unicode="&#x44b;" horiz-adv-x="1358" 
d="M890 348q0 -176 -131.5 -275.5t-328.5 -99.5q-149 0 -241.5 62.5t-92.5 192.5q0 98 22.5 348t22.5 369l267 26q-15 -80 -53 -381h15q74 41 159 41q361 0 361 -283zM1277 970q0 -27 -23.5 -205.5t-35.5 -289.5q-22 -208 -37 -475l-249 -10q20 130 63 485q20 190 20 306
t-4 160zM663 323q0 151 -213 151q-54 0 -106 -21q-13 -76 -13 -166q0 -138 139 -138q79 0 136 47t57 127z" />
    <glyph glyph-name="uni044C" unicode="&#x44c;" horiz-adv-x="971" 
d="M931 348q0 -187 -145 -281t-359 -94q-146 0 -238.5 62.5t-92.5 192.5q0 98 22.5 348t22.5 369l267 26q-15 -80 -53 -381h15q107 41 200 41q361 0 361 -283zM704 323q0 151 -223 151q-67 0 -137 -21q-13 -76 -13 -166q0 -138 159 -138q92 0 153 45.5t61 128.5z" />
    <glyph glyph-name="uni044D" unicode="&#x44d;" horiz-adv-x="927" 
d="M864 557q0 -276 -141.5 -431t-409.5 -155q-160 0 -288 47l49 203q122 -66 276 -66q230 0 275 247q-188 0 -403 -13l27 197q212 -13 394 -13q-18 222 -236 222q-146 0 -289 -86l36 201q129 74 311 74q399 0 399 -427z" />
    <glyph glyph-name="uni044E" unicode="&#x44e;" horiz-adv-x="1501" 
d="M1438 549q0 -245 -146 -416.5t-390 -171.5q-186 0 -281 118t-101 320h-168q-23 -235 -29 -399l-248 -13q15 101 62 488q20 185 20 302t-3 164l265 29q0 -76 -47 -381h176q58 194 194.5 299.5t302.5 105.5q167 0 280 -120.5t113 -324.5zM1193 533q0 122 -49 199t-139 77
q-115 0 -183.5 -117t-68.5 -271q0 -123 49 -199.5t139 -76.5q120 0 186 120t66 268z" />
    <glyph glyph-name="uni044F" unicode="&#x44f;" horiz-adv-x="999" 
d="M914 767q0 -109 -34 -352.5t-34 -414.5l-252 -10q0 55 22.5 203.5t29.5 212.5q-59 -20 -171 -20q-252 -403 -509 -413l16 240q143 28 316 206l3 15q-198 75 -198 267q0 149 129 221.5t357 72.5q325 0 325 -228zM681 702q0 59 -34.5 91t-116.5 32q-101 0 -152.5 -34
t-51.5 -114q0 -139 186 -139q79 0 156 16q13 62 13 148z" />
    <glyph glyph-name="uni0450" unicode="&#x450;" horiz-adv-x="986" 
d="M949 743q0 -298 -641 -310q0 -132 49 -197.5t171 -65.5q160 0 343 103l-31 -198q-149 -104 -378 -104q-204 0 -301.5 122.5t-97.5 324.5q0 261 163.5 418.5t387.5 157.5q155 0 243 -64q92 -66 92 -187zM726 723q0 97 -149 97q-85 0 -161 -62.5t-99 -179.5q409 8 409 145z
M716 1086h-174q0 16 -108.5 164t-110.5 160h255q0 -11 69 -159.5t69 -164.5z" />
    <glyph glyph-name="uni0451" unicode="&#x451;" horiz-adv-x="986" 
d="M949 743q0 -298 -641 -310q0 -132 49 -197.5t171 -65.5q160 0 343 103l-31 -198q-149 -104 -378 -104q-204 0 -301.5 122.5t-97.5 324.5q0 261 163.5 418.5t387.5 157.5q155 0 243 -64q92 -66 92 -187zM726 723q0 97 -149 97q-85 0 -161 -62.5t-99 -179.5q409 8 409 145z
M935 1277q0 -66 -45 -112.5t-111 -46.5q-107 0 -107 110q0 66 46 111.5t112 45.5q105 0 105 -108zM566 1277q0 -66 -45.5 -112.5t-111.5 -46.5q-105 0 -105 109q0 66 45.5 112t111.5 46q105 0 105 -108z" />
    <glyph glyph-name="uni0452" unicode="&#x452;" horiz-adv-x="1072" 
d="M976 516q0 -352 -142 -615q-152 -281 -421 -362l-30 164q155 55 256 302q87 215 87 430q0 272 -136 272q-89 0 -164 -122.5t-90 -270.5q-21 -180 -25 -314l-253 -10q25 144 93 753q21 200 22 356h-121l26 139h102q4 63 7 168l271 16q-5 -59 -31 -184h307l-26 -139h-301
q-21 -166 -44 -388h14q112 184 326 184q135 0 204 -104t69 -275z" />
    <glyph glyph-name="uni0453" unicode="&#x453;" horiz-adv-x="787" 
d="M751 759q0 -104 -92 -189q-70 -64 -230 -145q-94 -48 -127.5 -83.5t-33.5 -92.5q0 -90 146 -90q132 0 298 88l-33 -197q-120 -79 -286 -79q-357 0 -357 242q0 123 92 211q65 63 227 145q99 49 129 76q37 32 37 81q0 76 -145 76q-132 0 -256 -66l33 200q108 51 251 51
q347 0 347 -228zM842 1410q0 -12 -147.5 -160t-147.5 -164h-174q0 16 102 164.5t102 159.5h265z" />
    <glyph glyph-name="uni0454" unicode="&#x454;" horiz-adv-x="899" 
d="M869 952l-50 -197q-96 41 -247 41q-200 0 -263 -221q188 3 426 12l-26 -192q-108 5 -417 14q4 -129 58 -186t190 -57q128 0 283 78l-36 -190q-124 -83 -306 -83q-418 0 -418 411q0 276 136.5 439t414.5 163q158 0 255 -32z" />
    <glyph glyph-name="uni0455" unicode="&#x455;" horiz-adv-x="812" 
d="M759 966l-54 -198q-105 33 -229 33q-156 0 -156 -95q0 -63 147 -122q260 -105 260 -286q0 -325 -457 -325q-154 0 -265 30l53 197q114 -40 232 -40q213 0 213 98q0 70 -146 133q-122 53 -180 104q-81 73 -81 176q0 159 115.5 237t285.5 78q168 0 262 -20z" />
    <glyph glyph-name="uni0456" unicode="&#x456;" horiz-adv-x="488" 
d="M420 970q1 -27 -23 -205.5t-36 -289.5q-22 -208 -37 -475l-255 -10q20 130 63 485q20 190 20 355q0 67 -4 111zM497 1271q0 -78 -54 -133.5t-133 -55.5q-61 0 -94 37.5t-33 93.5q0 79 54 133t133 54q127 0 127 -129z" />
    <glyph glyph-name="uni0457" unicode="&#x457;" horiz-adv-x="488" 
d="M420 970q1 -27 -23 -205.5t-36 -289.5q-22 -208 -37 -475l-255 -10q20 130 63 485q20 190 20 306t-4 160zM616 1277q0 -66 -45 -112.5t-111 -46.5q-107 0 -107 110q0 66 46 111.5t112 45.5q105 0 105 -108zM287 1277q0 -66 -45.5 -112.5t-111.5 -46.5q-105 0 -105 109
q0 66 45.5 112t111.5 46q105 0 105 -108z" />
    <glyph glyph-name="uni0458" unicode="&#x458;" horiz-adv-x="488" 
d="M424 971q0 -25 -33 -285t-50 -464t-22 -250q-39 -369 -327 -428l-53 140q73 57 108.5 167t71.5 454.5t36 553.5q0 54 -3 84zM497 1271q0 -78 -54.5 -133.5t-133.5 -55.5q-61 0 -94 37.5t-33 93.5q0 79 55 133t134 54q126 0 126 -129z" />
    <glyph glyph-name="uni0459" unicode="&#x459;" horiz-adv-x="1451" 
d="M1184 323q0 151 -213 151q-54 0 -101 -21q-13 -76 -13 -166q0 -138 139 -138q84 0 136 45.5t52 128.5zM1411 348q0 -182 -132 -278.5t-321 -96.5q-145 0 -235.5 62.5t-90.5 192.5q0 196 52 544h-24q-58 0 -93 -34t-213 -383.5t-388 -374.5l16 233q106 64 240.5 318
t200 336.5t242.5 82.5h95l174 20q-16 -88 -53 -380h15q69 41 154 41q361 0 361 -283z" />
    <glyph glyph-name="uni045A" unicode="&#x45a;" horiz-adv-x="1486" 
d="M1446 348q0 -186 -134.5 -280.5t-323.5 -94.5q-326 0 -326 255q0 81 18 226h-10q-8 -50 -68 -50q-22 0 -83.5 5t-79.5 5q-67 0 -85 -59t-37 -355l-252 -10q16 98 63 485q20 190 20 305t-3 161l268 29q0 -39 -19 -171.5t-30 -249.5h10q12 50 74 50q19 0 80 -5t83 -5
q76 0 90 86q3 11 3 149q0 71 -5 117l270 30q0 -40 -19.5 -147.5t-33.5 -233.5h15q69 41 154 41q361 0 361 -283zM1219 323q0 151 -213 151q-54 0 -101 -21q-13 -76 -13 -166q0 -138 139 -138q84 0 136 45.5t52 128.5z" />
    <glyph glyph-name="uni045B" unicode="&#x45b;" horiz-adv-x="1051" 
d="M955 603q0 -101 -31.5 -308.5t-31.5 -294.5l-258 -10q0 38 36 233.5t36 269.5q0 125 -26 169.5t-100 44.5q-81 0 -152 -118t-87 -275l-30 -314l-253 -10q20 144 88 753q21 200 29 356h-123l26 139h102q4 63 7 168l271 16q-9 -59 -31 -184h307l-26 -139h-301l-39 -388h14
q102 184 311 184q262 0 262 -292z" />
    <glyph glyph-name="uni045C" unicode="&#x45c;" horiz-adv-x="1017" 
d="M1010 949q0 -36 -123 -179t-201 -204l-1 -13q100 -118 181 -306t81 -247l-273 -10q0 43 -50.5 176t-120.5 234q-37 -45 -100 -146.5t-82 -253.5l-255 -10q16 95 62 467q21 200 21 368q0 71 -3 117l268 28q0 -22 -22 -182q-29 -213 -48 -393h15q28 63 199 288t171 277z
M953 1410q0 -12 -147.5 -160t-147.5 -164h-174q0 16 102 164.5t102 159.5h265z" />
    <glyph glyph-name="uni045D" unicode="&#x45d;" horiz-adv-x="1086" 
d="M1016 970q-70 -554 -70 -736q0 -105 16 -226l-246 -28q-6 81 -6 198h-14q-113 -209 -342 -209q-258 0 -258 298q0 88 26.5 329.5t26.5 353.5l260 20q0 -48 -34 -287t-34 -337q0 -105 28.5 -147t97.5 -42q87 0 169 118.5t99 289.5q28 278 28 385zM696 1086h-174
q0 16 -108.5 164t-110.5 160h255q0 -11 69 -159.5t69 -164.5z" />
    <glyph glyph-name="uni045E" unicode="&#x45e;" horiz-adv-x="965" 
d="M957 961q0 -141 -198.5 -512.5t-227.5 -454.5q-88 -248 -205 -342.5t-320 -94.5v193q126 0 217.5 80.5t91.5 203.5q0 136 -121.5 474t-121.5 442l288 11q0 -137 56.5 -384.5t56.5 -337.5h15q4 35 109 299.5t105 408.5zM1026 1390q-197 -301 -473 -301q-315 0 -361 280
l234 58q38 -194 189 -194q141 0 304 220z" />
    <glyph glyph-name="uni045F" unicode="&#x45f;" horiz-adv-x="1056" 
d="M986 970q-71 -527 -71 -709q0 -105 17 -253l-248 -28q-7 83 -7 198h-14q-106 -209 -329 -209q-132 0 -185 73t-53 225q0 88 26.5 329.5t26.5 353.5l257 20q0 -46 -33.5 -285.5t-33.5 -333.5q0 -116 23.5 -155t91.5 -39q78 0 156 123.5t95 284.5q25 231 25 385zM519 -78
q-19 -48 -43 -131.5t-29 -190.5l-245 -20q12 149 139 342h178z" />
    <glyph glyph-name="uni0462" unicode="&#x462;" horiz-adv-x="1319" 
d="M1229 444q0 -450 -631 -450q-105 0 -301 6q21 135 84 670q20 188 28 285q-140 -3 -335 -16l31 211h321l16 273h273q-3 -27 -34 -273h401l-30 -210q-98 6 -394 15q-11 -71 -24 -167q52 4 98 4q497 0 497 -348zM977 409q0 192 -284 192q-47 0 -80 -5q-27 -236 -40 -410
q31 -8 66 -8q338 0 338 231zM0 1302z" />
    <glyph glyph-name="uni0463" unicode="&#x463;" horiz-adv-x="1082" 
d="M1042 348q0 -191 -161 -291q-135 -84 -343 -84q-146 0 -233 59q-98 66 -98 196q0 233 57 552q-53 0 -242 -4l26 189q195 -6 234 -6q11 117 19 425l260 15q-13 -62 -60 -440q172 0 382 6l-27 -192q-218 7 -377 7q-7 -55 -23 -190h15q117 41 209 41q362 0 362 -283z
M825 323q0 151 -223 151q-77 0 -158 -21q-13 -76 -13 -166q0 -138 179 -138q93 0 152 44q63 47 63 130zM0 1414z" />
    <glyph glyph-name="uni0472" unicode="&#x472;" horiz-adv-x="1333" 
d="M1278 741q0 -306 -197 -541.5t-501 -235.5q-228 0 -376.5 168t-148.5 423q0 306 197.5 541.5t501.5 235.5q228 0 376 -167.5t148 -423.5zM998 569h-679q4 -165 78 -275t231 -110q130 0 233 103t137 282zM1016 766q-9 168 -94.5 258.5t-215.5 90.5q-124 0 -223 -92.5
t-140 -256.5h673z" />
    <glyph glyph-name="uni0473" unicode="&#x473;" horiz-adv-x="1085" 
d="M1026 541q0 -240 -153.5 -409.5t-393.5 -169.5q-169 0 -287.5 116.5t-118.5 317.5q0 250 154 421t394 171q168 0 286.5 -117.5t118.5 -329.5zM788 406h-487q3 -97 50.5 -180.5t166.5 -83.5q111 0 179.5 78t90.5 186zM790 571q-32 236 -209 236q-98 0 -160 -57t-94 -179
h463z" />
    <glyph glyph-name="uni0474" unicode="&#x474;" horiz-adv-x="1273" 
d="M1295 1339l-17 -250q-36 -7 -85 -58.5t-104 -133.5t-113 -188t-110.5 -222.5t-112 -261.5t-58.5 -225h-322q0 79 -142 653t-142 649h301q0 -72 84 -518q84 -445 84 -505h16q0 60 58.5 207t114 261t120 219.5t135 187t144.5 131.5t149 54z" />
    <glyph glyph-name="uni0475" unicode="&#x475;" horiz-adv-x="1053" 
d="M1053 987l-15 -240q-27 -5 -64 -36t-79.5 -82.5t-87 -119.5t-88 -147t-97 -188t-59.5 -174h-286q0 64 -101 486.5t-102 463.5l278 10q0 -45 57 -352.5t57 -360.5h12q5 54 57 170t96.5 195t94.5 146.5t104 117t110 79t113 32.5z" />
    <glyph glyph-name="uni0490" unicode="&#x490;" horiz-adv-x="980" 
d="M1022 1570q-8 -73 -23.5 -246t-23.5 -245q-299 15 -536 15q-1 -82 -35 -476q-44 -416 -51 -618h-269q18 122 79 648q46 437 53 654h592q19 86 47 268h167z" />
    <glyph glyph-name="uni0491" unicode="&#x491;" horiz-adv-x="833" 
d="M864 1219q0 -93 -39 -469q-191 18 -443 18q-6 -83 -25 -293q-29 -278 -36 -475l-254 -10q16 98 63 485q29 277 37 475h505q35 194 35 269h157z" />
    <glyph glyph-name="Wgrave" unicode="&#x1e80;" horiz-adv-x="1862" 
d="M1905 1302q0 -97 -265 -665.5t-272 -636.5h-252q0 112 -77.5 468.5t-83.5 493.5h-15q-28 -127 -182 -509t-161 -453h-257q0 146 -129 671.5t-129 630.5h298q0 -99 64 -495t64 -528h14q8 75 178.5 505.5t170.5 517.5h271q0 -106 67.5 -502.5t67.5 -520.5h15q6 62 169 481
t163 542h281zM1098 1416h-174q0 16 -108.5 139t-110.5 135h265q0 -11 64 -134.5t64 -139.5z" />
    <glyph glyph-name="wgrave" unicode="&#x1e81;" horiz-adv-x="1564" 
d="M1559 961q0 -74 -204.5 -485.5t-211.5 -475.5h-222q0 61 -51.5 319.5t-67.5 366.5h-15q-38 -111 -154 -372.5t-121 -313.5h-222q0 82 -100.5 475t-100.5 473l271 13q0 -94 44 -365.5t44 -348.5h14q8 65 136.5 355t128.5 348h224q0 -68 55.5 -350.5t55.5 -352.5h13
q5 48 120.5 332.5t115.5 368.5zM915 1086h-174q0 16 -108.5 164t-110.5 160h255q0 -11 69 -159.5t69 -164.5z" />
    <glyph glyph-name="Wacute" unicode="&#x1e82;" horiz-adv-x="1862" 
d="M1905 1302q0 -97 -265 -665.5t-272 -636.5h-252q0 112 -77.5 468.5t-83.5 493.5h-15q-28 -127 -182 -509t-161 -453h-257q0 146 -129 671.5t-129 630.5h298q0 -99 64 -495t64 -528h14q8 75 178.5 505.5t170.5 517.5h271q0 -106 67.5 -502.5t67.5 -520.5h15q6 62 169 481
t163 542h281zM1373 1690q0 -12 -147.5 -135t-147.5 -139h-174q0 16 97 139.5t97 134.5h275z" />
    <glyph glyph-name="wacute" unicode="&#x1e83;" horiz-adv-x="1564" 
d="M1559 961q0 -74 -204.5 -485.5t-211.5 -475.5h-222q0 61 -51.5 319.5t-67.5 366.5h-15q-38 -111 -154 -372.5t-121 -313.5h-222q0 82 -100.5 475t-100.5 473l271 13q0 -94 44 -365.5t44 -348.5h14q8 65 136.5 355t128.5 348h224q0 -68 55.5 -350.5t55.5 -352.5h13
q5 48 120.5 332.5t115.5 368.5zM1201 1410q0 -12 -147.5 -160t-147.5 -164h-174q0 16 102 164.5t102 159.5h265z" />
    <glyph glyph-name="Wdieresis" unicode="&#x1e84;" horiz-adv-x="1862" 
d="M1905 1302q0 -97 -265 -665.5t-272 -636.5h-252q0 112 -77.5 468.5t-83.5 493.5h-15q-28 -127 -182 -509t-161 -453h-257q0 146 -129 671.5t-129 630.5h298q0 -99 64 -495t64 -528h14q8 75 178.5 505.5t170.5 517.5h271q0 -106 67.5 -502.5t67.5 -520.5h15q6 62 169 481
t163 542h281zM1336 1583q0 -66 -45 -112.5t-111 -46.5q-107 0 -107 110q0 66 46 111.5t112 45.5q105 0 105 -108zM967 1583q0 -66 -45.5 -112.5t-111.5 -46.5q-105 0 -105 109q0 66 45.5 112t111.5 46q105 0 105 -108z" />
    </font>
</defs>
</svg>
